<svg width="11" height="12" viewBox="0 0 11 12" fill="none" xmlns="http://www.w3.org/2000/svg">
<g clip-path="url(#clip0_9572_29001)">
<path d="M6.25 1.5V5.25H10C10.4219 5.25 10.75 5.57812 10.75 6C10.75 6.42187 10.4219 6.75 10 6.75H6.25V10.5C6.25 10.9219 5.92187 11.25 5.5 11.25C5.07812 11.25 4.75 10.9219 4.75 10.5V6.75H1C0.578125 6.75 0.25 6.42187 0.25 6C0.25 5.57812 0.578125 5.25 1 5.25H4.75V1.5C4.75 1.07812 5.07812 0.75 5.5 0.75C5.92187 0.75 6.25 1.07812 6.25 1.5Z" fill="white"/>
</g>
<defs>
<clipPath id="clip0_9572_29001">
<rect width="11" height="12" fill="white"/>
</clipPath>
</defs>
</svg>
