<svg width="9" height="11" viewBox="0 0 9 11" fill="none" xmlns="http://www.w3.org/2000/svg">
<path d="M8.71884 5.89285L5.98599 8.6257C5.76394 8.83066 5.42234 8.83066 5.20029 8.6257C4.99533 8.40365 4.99533 8.06205 5.20029 7.84L7.01081 6.04657H0.674011C0.366566 6.04657 0.127441 5.80745 0.127441 5.5C0.127441 5.19255 0.366566 4.95343 0.674011 4.95343H7.01081L5.20029 3.16C4.99533 2.93795 4.99533 2.59635 5.20029 2.3743C5.42234 2.16934 5.76394 2.16934 5.98599 2.3743L8.71884 5.10715C8.9238 5.3292 8.9238 5.6708 8.71884 5.89285Z" fill="black"/>
<path d="M8.71884 5.89285L5.98599 8.6257C5.76394 8.83066 5.42234 8.83066 5.20029 8.6257C4.99533 8.40365 4.99533 8.06205 5.20029 7.84L7.01081 6.04657H0.674011C0.366566 6.04657 0.127441 5.80745 0.127441 5.5C0.127441 5.19255 0.366566 4.95343 0.674011 4.95343H7.01081L5.20029 3.16C4.99533 2.93795 4.99533 2.59635 5.20029 2.3743C5.42234 2.16934 5.76394 2.16934 5.98599 2.3743L8.71884 5.10715C8.9238 5.3292 8.9238 5.6708 8.71884 5.89285Z" fill="#50575E"/>
</svg>
