<svg width="12" height="12" viewBox="0 0 12 12" fill="none" xmlns="http://www.w3.org/2000/svg">
<path d="M11.375 5.6875C11.375 6.17969 10.9648 6.58984 10.5 6.58984H6.5625V10.5273C6.5625 10.9922 6.15234 11.375 5.6875 11.375C5.19531 11.375 4.8125 10.9922 4.8125 10.5273V6.58984H0.875C0.382812 6.58984 0 6.17969 0 5.6875C0 5.22266 0.382812 4.83984 0.875 4.83984H4.8125V0.902344C4.8125 0.410156 5.19531 0 5.6875 0C6.15234 0 6.5625 0.410156 6.5625 0.902344V4.83984H10.5C10.9648 4.8125 11.375 5.22266 11.375 5.6875Z" fill="#787C82"/>
</svg>
