<svg width="14" height="17" viewBox="0 0 14 17" fill="none" xmlns="http://www.w3.org/2000/svg">
<path d="M4 0.5C4.53125 0.5 5 0.96875 5 1.5V2.5H9V1.5C9 0.96875 9.4375 0.5 10 0.5C10.5312 0.5 11 0.96875 11 1.5V2.5H12.5C13.3125 2.5 14 3.1875 14 4V5.5H0V4C0 3.1875 0.65625 2.5 1.5 2.5H3V1.5C3 0.96875 3.4375 0.5 4 0.5ZM0 6.5H14V15C14 15.8438 13.3125 16.5 12.5 16.5H1.5C0.65625 16.5 0 15.8438 0 15V6.5ZM2.5 8.5C2.21875 8.5 2 8.75 2 9V12C2 12.2812 2.21875 12.5 2.5 12.5H5.5C5.75 12.5 6 12.2812 6 12V9C6 8.75 5.75 8.5 5.5 8.5H2.5Z" fill="#A7AAAD"/>
</svg>
