<svg width="13" height="16" viewBox="0 0 13 16" fill="none" xmlns="http://www.w3.org/2000/svg">
<path d="M3.875 1.4375C4.36719 1.4375 4.75 1.82031 4.75 2.3125V3.1875H8.25V2.3125C8.25 1.82031 8.63281 1.4375 9.125 1.4375C9.61719 1.4375 10 1.82031 10 2.3125V3.1875H10.875C11.832 3.1875 12.625 3.98047 12.625 4.9375V12.8125C12.625 13.7695 11.832 14.5625 10.875 14.5625H2.125C1.16797 14.5625 0.375 13.7695 0.375 12.8125V4.9375C0.375 3.98047 1.16797 3.1875 2.125 3.1875H3V2.3125C3 1.82031 3.38281 1.4375 3.875 1.4375ZM3.875 8.4375C3.38281 8.4375 3 8.82031 3 9.3125V11.0625C3 11.5547 3.38281 11.9375 3.875 11.9375H9.125C9.61719 11.9375 10 11.5547 10 11.0625V9.3125C10 8.82031 9.61719 8.4375 9.125 8.4375H3.875Z" fill="black" fill-opacity="0.4"/>
</svg>
