<svg width="17" height="20" viewBox="0 0 17 20" fill="none" xmlns="http://www.w3.org/2000/svg">
<path d="M5.11829 1.09937C5.76114 1.09937 6.26114 1.59936 6.26114 2.24222V3.38507H10.8325V2.24222C10.8325 1.59936 11.3325 1.09937 11.9754 1.09937C12.6182 1.09937 13.1182 1.59936 13.1182 2.24222V3.38507H14.2611C15.5111 3.38507 16.5468 4.42078 16.5468 5.67078V15.9565C16.5468 17.2064 15.5111 18.2422 14.2611 18.2422H2.83258C1.58259 18.2422 0.546875 17.2064 0.546875 15.9565V5.67078C0.546875 4.42078 1.58259 3.38507 2.83258 3.38507H3.97543V2.24222C3.97543 1.59936 4.47543 1.09937 5.11829 1.09937ZM5.11829 10.2422C4.47543 10.2422 3.97543 10.7422 3.97543 11.385V13.6707C3.97543 14.3136 4.47543 14.8136 5.11829 14.8136H7.40399C8.04685 14.8136 8.54685 14.3136 8.54685 13.6707V11.385C8.54685 10.7422 8.04685 10.2422 7.40399 10.2422H5.11829Z" fill="white" fill-opacity="0.4"/>
</svg>
