<svg width="16" height="13" viewBox="0 0 16 13" fill="none" xmlns="http://www.w3.org/2000/svg">
<g clip-path="url(#clip0_9572_29024)">
<mask id="mask0_9572_29024" style="mask-type:luminance" maskUnits="userSpaceOnUse" x="0" y="0" width="16" height="13">
<path d="M16 0.5H0V12.5H16V0.5Z" fill="white"/>
</mask>
<g mask="url(#mask0_9572_29024)">
<path d="M14.0875 0.669841C14.4913 0.987117 14.5779 1.56398 14.2894 1.96779L6.90556 12.1206C6.7325 12.3225 6.50175 12.4667 6.24216 12.4956C5.95373 12.5244 5.69414 12.4091 5.49224 12.236L1.8003 8.54405C1.45418 8.16909 1.45418 7.59223 1.8003 7.21726C2.17526 6.87114 2.75213 6.87114 3.12709 7.21726L6.04026 10.1593L12.7896 0.871743C13.1069 0.467938 13.6837 0.381408 14.0875 0.669841Z" fill="#008A20"/>
</g>
</g>
<defs>
<clipPath id="clip0_9572_29024">
<rect width="16" height="13" fill="white"/>
</clipPath>
</defs>
</svg>
