<svg width="40" height="41" viewBox="0 0 40 41" fill="none" xmlns="http://www.w3.org/2000/svg">
<path d="M33.2455 16.3414C33.2455 16.7778 33.0914 17.1885 32.7834 17.4966L18.8448 31.4352C18.5368 31.7432 18.1004 31.9229 17.664 31.9229C17.2533 31.9229 16.8169 31.7432 16.5089 31.4352L7.21645 22.1428C6.90841 21.8348 6.75439 21.424 6.75439 20.9877C6.75439 20.5513 6.90841 20.1149 7.21645 19.8069L9.55239 17.4966C9.86042 17.1885 10.2711 17.0089 10.7075 17.0089C11.1439 17.0089 11.5546 17.1885 11.8627 17.4966L17.664 23.2979L28.1372 12.8504C28.4452 12.5423 28.856 12.3627 29.2923 12.3627C29.7287 12.3627 30.1394 12.5423 30.4475 12.8504L32.7834 15.1606C33.0914 15.4687 33.2455 15.9051 33.2455 16.3414ZM39.7142 20.4999C39.7142 9.616 30.8839 0.785645 19.9999 0.785645C9.116 0.785645 0.285645 9.616 0.285645 20.4999C0.285645 31.3839 9.116 40.2142 19.9999 40.2142C30.8839 40.2142 39.7142 31.3839 39.7142 20.4999Z" fill="#008A20"/>
</svg>
