<svg width="16" height="16" viewBox="0 0 16 16" fill="none" xmlns="http://www.w3.org/2000/svg">
<g clip-path="url(#clip0_9572_29044)">
<path d="M8 1.5C9.72391 1.5 11.3772 2.18482 12.5962 3.40381C13.8152 4.62279 14.5 6.27609 14.5 8C14.5 9.72391 13.8152 11.3772 12.5962 12.5962C11.3772 13.8152 9.72391 14.5 8 14.5C6.27609 14.5 4.62279 13.8152 3.40381 12.5962C2.18482 11.3772 1.5 9.72391 1.5 8C1.5 6.27609 2.18482 4.62279 3.40381 3.40381C4.62279 2.18482 6.27609 1.5 8 1.5ZM8 16C10.1217 16 12.1566 15.1571 13.6569 13.6569C15.1571 12.1566 16 10.1217 16 8C16 5.87827 15.1571 3.84344 13.6569 2.34315C12.1566 0.842855 10.1217 0 8 0C5.87827 0 3.84344 0.842855 2.34315 2.34315C0.842855 3.84344 0 5.87827 0 8C0 10.1217 0.842855 12.1566 2.34315 13.6569C3.84344 15.1571 5.87827 16 8 16ZM5.21875 5.21875C4.925 5.5125 4.925 5.9875 5.21875 6.27812L6.9375 7.99687L5.21875 9.71562C4.925 10.0094 4.925 10.4844 5.21875 10.775C5.5125 11.0656 5.9875 11.0687 6.27812 10.775L7.99687 9.05625L9.71562 10.775C10.0094 11.0687 10.4844 11.0687 10.775 10.775C11.0656 10.4812 11.0687 10.0062 10.775 9.71562L9.05625 7.99687L10.775 6.27812C11.0687 5.98437 11.0687 5.50938 10.775 5.21875C10.4812 4.92812 10.0062 4.925 9.71562 5.21875L7.99687 6.9375L6.27812 5.21875C5.98437 4.925 5.50938 4.925 5.21875 5.21875Z" fill="#A7AAAD"/>
</g>
<defs>
<clipPath id="clip0_9572_29044">
<rect width="16" height="16" fill="white"/>
</clipPath>
</defs>
</svg>
