<svg width="384" height="512" viewBox="0 0 384 512" fill="none" xmlns="http://www.w3.org/2000/svg">
<g clip-path="url(#clip0_9572_29055)">
<path d="M232 96H152C138.7 96 128 85.3 128 72C128 58.7 138.7 48 152 48H232C245.3 48 256 58.7 256 72C256 85.3 245.3 96 232 96ZM232 144C269.1 144 299.6 116 303.6 80H320C328.8 80 336 87.2 336 96V448C336 456.8 328.8 464 320 464H64C55.2 464 48 456.8 48 448V96C48 87.2 55.2 80 64 80H80.4C84.4 116 114.9 144 152 144H232ZM291.9 32C279 12.7 257 0 232 0H152C127 0 105 12.7 92.1 32H64C28.7 32 0 60.7 0 96V448C0 483.3 28.7 512 64 512H320C355.3 512 384 483.3 384 448V96C384 60.7 355.3 32 320 32H291.9Z" fill="black"/>
</g>
<defs>
<clipPath id="clip0_9572_29055">
<rect width="384" height="512" fill="white"/>
</clipPath>
</defs>
</svg>
