<svg width="12" height="13" viewBox="0 0 12 13" fill="none" xmlns="http://www.w3.org/2000/svg">
<g clip-path="url(#clip0_9572_29049)">
<path d="M6 12.5C2.69531 12.5 0 9.80468 0 6.5C0 3.19531 2.69531 0.5 6 0.5C9.30468 0.5 12 3.19531 12 6.5C12 9.80468 9.30468 12.5 6 12.5ZM3.91406 4.41406C3.70312 4.625 3.70312 5 3.91406 5.21093L5.20312 6.5L3.91406 7.78906C3.70312 7.99999 3.70312 8.35156 3.91406 8.58593C4.125 8.79687 4.5 8.79687 4.71093 8.58593L6 7.29687L7.28906 8.58593C7.49999 8.79687 7.85156 8.79687 8.08593 8.58593C8.29687 8.37499 8.29687 7.99999 8.08593 7.78906L6.79687 6.5L8.08593 5.21093C8.29687 5 8.29687 4.625 8.08593 4.41406C7.87499 4.20312 7.49999 4.20312 7.28906 4.41406L6 5.70312L4.71093 4.41406C4.5 4.20312 4.125 4.20312 3.91406 4.41406Z" fill="white" fill-opacity="0.4"/>
</g>
<defs>
<clipPath id="clip0_9572_29049">
<rect width="12" height="13" fill="white"/>
</clipPath>
</defs>
</svg>
