<svg width="21" height="22" viewBox="0 0 21 22" fill="none" xmlns="http://www.w3.org/2000/svg">
<path fill-rule="evenodd" clip-rule="evenodd" d="M1.31799 1.81799C2.0216 1.11438 3.16238 1.11438 3.86599 1.81799L19.682 17.634C20.3856 18.3376 20.3856 19.4784 19.682 20.182C18.9784 20.8856 17.8376 20.8856 17.134 20.182L1.31799 4.36599C0.614378 3.66238 0.61438 2.5216 1.31799 1.81799Z" fill="black"/>
<path fill-rule="evenodd" clip-rule="evenodd" d="M1.27405 20.138C0.570435 19.4344 0.570435 18.2936 1.27405 17.59L17.09 1.77405C17.7936 1.07044 18.9344 1.07044 19.638 1.77405C20.3416 2.47766 20.3416 3.61844 19.638 4.32205L3.82205 20.138C3.11844 20.8416 1.97766 20.8416 1.27405 20.138Z" fill="black"/>
</svg>
