<svg width="80" height="80" viewBox="0 0 80 80" fill="none" xmlns="http://www.w3.org/2000/svg">
<circle cx="40" cy="40" r="40" fill="#F7F7F7"/>
<path d="M34 24.5C35.0625 24.5 36 25.4375 36 26.5V28.5H44V26.5C44 25.4375 44.875 24.5 46 24.5C47.0625 24.5 48 25.4375 48 26.5V28.5H51C52.625 28.5 54 29.875 54 31.5V34.5H26V31.5C26 29.875 27.3125 28.5 29 28.5H32V26.5C32 25.4375 32.875 24.5 34 24.5ZM26 36.5H54V53.5C54 55.1875 52.625 56.5 51 56.5H29C27.3125 56.5 26 55.1875 26 53.5V36.5ZM46.5625 43.5625C47.125 43 47.125 42.0625 46.5625 41.5C45.9375 40.875 45 40.875 44.4375 41.5L38.5 47.4375L35.5625 44.5C34.9375 43.875 34 43.875 33.4375 44.5C32.8125 45.0625 32.8125 46 33.4375 46.5625L37.4375 50.5625C38 51.1875 38.9375 51.1875 39.5625 50.5625L46.5625 43.5625Z" fill="#A7AAAD"/>
</svg>
