<svg width="13" height="16" viewBox="0 0 13 16" fill="none" xmlns="http://www.w3.org/2000/svg">
<mask id="mask0_9572_29062" style="mask-type:luminance" maskUnits="userSpaceOnUse" x="0" y="0" width="13" height="16">
<path d="M13 0.5H0V15.5H13V0.5Z" fill="white"/>
</mask>
<g mask="url(#mask0_9572_29062)">
<path d="M3.64762 1.57153C4.16057 1.57153 4.55952 1.97048 4.55952 2.48343V3.39534H8.20714V2.48343C8.20714 1.97048 8.6061 1.57153 9.11905 1.57153C9.632 1.57153 10.031 1.97048 10.031 2.48343V3.39534H10.9429C11.9403 3.39534 12.7667 4.22175 12.7667 5.21915V13.4263C12.7667 14.4237 11.9403 15.2501 10.9429 15.2501H1.82381C0.826414 15.2501 0 14.4237 0 13.4263V5.21915C0 4.22175 0.826414 3.39534 1.82381 3.39534H2.73571V2.48343C2.73571 1.97048 3.13467 1.57153 3.64762 1.57153ZM3.64762 8.86677C3.13467 8.86677 2.73571 9.26572 2.73571 9.77867V11.6025C2.73571 12.1154 3.13467 12.5144 3.64762 12.5144H5.47143C5.98438 12.5144 6.38333 12.1154 6.38333 11.6025V9.77867C6.38333 9.26572 5.98438 8.86677 5.47143 8.86677H3.64762Z" fill="#4BB9A7"/>
</g>
</svg>
