<svg width="13" height="16" viewBox="0 0 13 16" fill="none" xmlns="http://www.w3.org/2000/svg">
<mask id="mask0_9572_29068" style="mask-type:luminance" maskUnits="userSpaceOnUse" x="0" y="0" width="13" height="16">
<path d="M13 0.5H0V15.5H13V0.5Z" fill="white"/>
</mask>
<g mask="url(#mask0_9572_29068)">
<path d="M3.71429 1.57153C4.23661 1.57153 4.64286 1.97778 4.64286 2.5001V3.42867H8.35714V2.5001C8.35714 1.97778 8.76339 1.57153 9.28571 1.57153C9.80804 1.57153 10.2143 1.97778 10.2143 2.5001V3.42867H11.1429C12.1585 3.42867 13 4.27019 13 5.28581V6.67867H0V5.28581C0 4.27019 0.841518 3.42867 1.85714 3.42867H2.78571V2.5001C2.78571 1.97778 3.19196 1.57153 3.71429 1.57153ZM0 8.07153H13V13.643C13 14.6586 12.1585 15.5001 11.1429 15.5001H1.85714C0.841518 15.5001 0 14.6586 0 13.643V8.07153Z" fill="#8659C2"/>
</g>
</svg>
