<svg width="40" height="41" viewBox="0 0 40 41" fill="none" xmlns="http://www.w3.org/2000/svg">
<path d="M19.9999 0.785645C9.116 0.785645 0.285645 9.616 0.285645 20.4999C0.285645 31.3839 9.116 40.2142 19.9999 40.2142C30.8839 40.2142 39.7142 31.3839 39.7142 20.4999C39.7142 9.616 30.8839 0.785645 19.9999 0.785645ZM23.2856 32.7957C23.2856 33.2577 22.9263 33.6428 22.4899 33.6428H17.5613C17.0993 33.6428 16.7142 33.2577 16.7142 32.7957V27.9185C16.7142 27.4564 17.0993 27.0714 17.5613 27.0714H22.4899C22.9263 27.0714 23.2856 27.4564 23.2856 27.9185V32.7957ZM23.2343 23.9653C23.2086 24.3247 22.8236 24.6071 22.3615 24.6071H17.6127C17.1249 24.6071 16.7399 24.3247 16.7399 23.9653L16.3035 8.02449C16.3035 7.8448 16.3805 7.66511 16.5602 7.56243C16.7142 7.43408 16.9452 7.35707 17.1763 7.35707H22.8236C23.0546 7.35707 23.2856 7.43408 23.4397 7.56243C23.6194 7.66511 23.6964 7.8448 23.6964 8.02449L23.2343 23.9653Z" fill="#D63638"/>
</svg>
