<svg width="14" height="13" viewBox="0 0 14 13" fill="none" xmlns="http://www.w3.org/2000/svg">
<path d="M2.27344 0.5H5.76562C6.16406 0.5 6.53906 0.664062 6.82031 0.945312L9.32812 3.42969C9.60938 3.71094 9.77344 4.08594 9.77344 4.48438V7.625H11.6016L10.875 6.89844C10.6406 6.6875 10.6406 6.3125 10.875 6.10156C11.0859 5.89062 11.4375 5.89062 11.6719 6.10156L13.3594 7.78906C13.5703 8 13.5703 8.375 13.3594 8.58594L11.6719 10.2734C11.4375 10.4844 11.0859 10.4844 10.875 10.2734C10.6406 10.0625 10.6406 9.6875 10.875 9.47656L11.6016 8.75H9.77344V11C9.77344 11.8203 9.09375 12.5 8.27344 12.5H2.27344C1.42969 12.5 0.773438 11.8203 0.773438 11V2C0.773438 1.17969 1.42969 0.5 2.27344 0.5ZM8.39062 4.625L5.64844 1.88281V4.0625C5.64844 4.36719 5.88281 4.625 6.21094 4.625H8.39062ZM5.27344 8.1875C5.27344 8.49219 5.50781 8.75 5.83594 8.75H8.27344V7.625H5.83594C5.50781 7.625 5.27344 7.88281 5.27344 8.1875Z" fill="#50575E"/>
</svg>
