<svg width="40" height="41" viewBox="0 0 40 41" fill="none" xmlns="http://www.w3.org/2000/svg">
<path d="M26.5714 32.8214C26.5714 33.2834 26.212 33.6428 25.75 33.6428H14.25C13.7879 33.6428 13.4286 33.2834 13.4286 32.8214V28.7142C13.4286 28.2522 13.7879 27.8928 14.25 27.8928H16.7143V19.6785H14.25C13.7879 19.6785 13.4286 19.3191 13.4286 18.8571V14.7499C13.4286 14.2879 13.7879 13.9285 14.25 13.9285H22.4643C22.9263 13.9285 23.2857 14.2879 23.2857 14.7499V27.8928H25.75C26.212 27.8928 26.5714 28.2522 26.5714 28.7142V32.8214ZM23.2857 9.82136C23.2857 10.2834 22.9263 10.6428 22.4643 10.6428H17.5357C17.0737 10.6428 16.7143 10.2834 16.7143 9.82136V5.71422C16.7143 5.25216 17.0737 4.89279 17.5357 4.89279H22.4643C22.9263 4.89279 23.2857 5.25216 23.2857 5.71422V9.82136ZM39.7143 20.4999C39.7143 9.616 30.8839 0.785645 20 0.785645C9.11606 0.785645 0.285706 9.616 0.285706 20.4999C0.285706 31.3839 9.11606 40.2142 20 40.2142C30.8839 40.2142 39.7143 31.3839 39.7143 20.4999Z" fill="#FF8845"/>
</svg>
