<svg width="16" height="15" viewBox="0 0 16 15" fill="none" xmlns="http://www.w3.org/2000/svg">
<path d="M14.4805 2.30859C15.1641 2.99219 15.1641 4.08594 14.4805 4.76953L12.4297 6.82031L11.5 7.75L4.82812 14.4219L1.71094 14.75C1.68359 14.75 1.65625 14.75 1.62891 14.75C1.24609 14.75 0.945312 14.4219 1 14.0391L1.32812 10.9219L8 4.25L8.92969 3.32031L10.9805 1.26953C11.3086 0.941406 11.7734 0.75 12.2109 0.75C12.6484 0.75 13.1133 0.941406 13.4414 1.26953L14.4805 2.30859ZM4.22656 13.1641L10.5703 6.84766L11.418 6L9.75 4.33203L8.90234 5.17969L2.58594 11.5234L2.39453 13.3555L4.22656 13.1641ZM13.5508 3.83984C13.7148 3.67578 13.7148 3.40234 13.5508 3.23828L12.5117 2.19922C12.4023 2.08984 12.2656 2.0625 12.2109 2.0625C12.1562 2.0625 12.0195 2.08984 11.9102 2.19922L10.6797 3.40234L12.3477 5.07031L13.5508 3.83984Z" fill="#646970"/>
</svg>
