<svg width="11" height="10" viewBox="0 0 11 10" fill="none" xmlns="http://www.w3.org/2000/svg">
<g clip-path="url(#clip0_9572_29088)">
<mask id="mask0_9572_29088" style="mask-type:luminance" maskUnits="userSpaceOnUse" x="0" y="0" width="11" height="10">
<path d="M11 0H0V10H11V0Z" fill="white"/>
</mask>
<g mask="url(#mask0_9572_29088)">
<path d="M9.40748 2.51013L8.24433 3.67328C8.08076 3.83685 7.82632 3.89137 7.60823 3.8005C7.39014 3.70963 7.24475 3.49154 7.24475 3.25527V2.6737H4.33687C3.0465 2.6737 2.01056 3.70963 2.01056 5C2.01056 5.32714 1.75612 5.58158 1.42899 5.58158C1.10185 5.58158 0.847412 5.32714 0.847412 5C0.847412 3.07353 2.4104 1.51054 4.33687 1.51054H7.24475V0.928969C7.24475 0.692704 7.39014 0.474613 7.60823 0.383742C7.82632 0.29287 8.06259 0.347393 8.24433 0.510961L9.40748 1.67411C9.62557 1.91038 9.62557 2.27386 9.40748 2.51013ZM1.59256 7.48987L2.75571 6.32672C2.93745 6.16315 3.17372 6.10863 3.39181 6.1995C3.6099 6.29037 3.75529 6.50846 3.75529 6.74473V7.3263H6.66317C7.95354 7.3263 8.98947 6.29037 8.98947 5C8.98947 4.67286 9.24391 4.41842 9.57105 4.41842C9.89819 4.41842 10.1526 4.67286 10.1526 5C10.1526 6.92647 8.58964 8.48946 6.66317 8.48946H3.75529V9.07103C3.75529 9.3073 3.6099 9.52539 3.39181 9.61626C3.17372 9.70713 2.93745 9.65261 2.75571 9.48904L1.59256 8.32589C1.37447 8.08962 1.37447 7.72614 1.59256 7.48987Z" fill="white" fill-opacity="0.4"/>
</g>
</g>
<defs>
<clipPath id="clip0_9572_29088">
<rect width="11" height="10" fill="white"/>
</clipPath>
</defs>
</svg>
