<svg width="15" height="13" viewBox="0 0 15 13" fill="none" xmlns="http://www.w3.org/2000/svg">
<path d="M3.375 0.5C4.03125 0.5 4.64062 0.875 4.99219 1.4375C5.32031 2.02344 5.32031 2.75 4.99219 3.3125C4.64062 3.89844 4.03125 4.25 3.375 4.25C2.69531 4.25 2.08594 3.89844 1.73438 3.3125C1.40625 2.75 1.40625 2.02344 1.73438 1.4375C2.08594 0.875 2.69531 0.5 3.375 0.5ZM12 0.5C12.6562 0.5 13.2656 0.875 13.6172 1.4375C13.9453 2.02344 13.9453 2.75 13.6172 3.3125C13.2656 3.89844 12.6562 4.25 12 4.25C11.3203 4.25 10.7109 3.89844 10.3594 3.3125C10.0312 2.75 10.0312 2.02344 10.3594 1.4375C10.7109 0.875 11.3203 0.5 12 0.5ZM0 7.50781C0 6.125 1.10156 5 2.48438 5H3.49219C3.86719 5 4.21875 5.09375 4.54688 5.23438C4.5 5.39844 4.5 5.58594 4.5 5.75C4.5 6.66406 4.875 7.46094 5.50781 8C5.50781 8 5.50781 8 5.48438 8H0.492188C0.210938 8 0 7.78906 0 7.50781ZM9.49219 8H9.46875C10.1016 7.46094 10.4766 6.66406 10.4766 5.75C10.4766 5.58594 10.4766 5.39844 10.4531 5.23438C10.7578 5.09375 11.1094 5 11.4844 5H12.4922C13.875 5 15 6.125 15 7.50781C15 7.78906 14.7656 8 14.4844 8H9.49219ZM5.25 5.75C5.25 4.95312 5.67188 4.22656 6.375 3.80469C7.05469 3.40625 7.92188 3.40625 8.625 3.80469C9.30469 4.22656 9.75 4.95312 9.75 5.75C9.75 6.57031 9.30469 7.29688 8.625 7.71875C7.92188 8.11719 7.05469 8.11719 6.375 7.71875C5.67188 7.29688 5.25 6.57031 5.25 5.75ZM3 11.8906C3 10.1562 4.38281 8.75 6.11719 8.75H8.85938C10.5938 8.75 12 10.1562 12 11.8906C12 12.2188 11.7188 12.5 11.3672 12.5H3.60938C3.25781 12.5 2.97656 12.2422 2.97656 11.8906H3Z" fill="#2271B1"/>
</svg>
