<svg width="13" height="12" viewBox="0 0 13 12" fill="none" xmlns="http://www.w3.org/2000/svg">
<g clip-path="url(#clip0_9572_29100)">
<mask id="mask0_9572_29100" style="mask-type:luminance" maskUnits="userSpaceOnUse" x="0" y="0" width="13" height="12">
<path d="M13 0H0V12H13V0Z" fill="white"/>
</mask>
<g mask="url(#mask0_9572_29100)">
<path d="M0.8125 1.2H3.02148C3.32617 0.5 4.03711 0 4.875 0C5.71289 0 6.42383 0.5 6.72852 1.2H12.1875C12.6445 1.2 13 1.55 13 2C13 2.45 12.6445 2.8 12.1875 2.8H6.72852C6.42383 3.5 5.71289 4 4.875 4C4.03711 4 3.32617 3.5 3.02148 2.8H0.8125C0.355469 2.8 0 2.45 0 2C0 1.55 0.355469 1.2 0.8125 1.2ZM0.8125 5.2H7.08398C7.38867 4.5 8.09961 4 8.9375 4C9.77539 4 10.4863 4.5 10.791 5.2H12.1875C12.6445 5.2 13 5.55 13 6C13 6.45 12.6445 6.8 12.1875 6.8H10.791C10.4863 7.5 9.77539 8 8.9375 8C8.09961 8 7.38867 7.5 7.08398 6.8H0.8125C0.355469 6.8 0 6.45 0 6C0 5.55 0.355469 5.2 0.8125 5.2ZM0.8125 9.2H2.20898C2.51367 8.5 3.22461 8 4.0625 8C4.90039 8 5.61133 8.5 5.91602 9.2H12.1875C12.6445 9.2 13 9.55 13 10C13 10.45 12.6445 10.8 12.1875 10.8H5.91602C5.61133 11.5 4.90039 12 4.0625 12C3.22461 12 2.51367 11.5 2.20898 10.8H0.8125C0.355469 10.8 0 10.45 0 10C0 9.55 0.355469 9.2 0.8125 9.2Z" fill="black" fill-opacity="0.55"/>
</g>
</g>
<defs>
<clipPath id="clip0_9572_29100">
<rect width="13" height="12" fill="white"/>
</clipPath>
</defs>
</svg>
