<svg width="16" height="8" viewBox="0 0 16 8" fill="none" xmlns="http://www.w3.org/2000/svg">
<mask id="mask0_9572_29106" style="mask-type:luminance" maskUnits="userSpaceOnUse" x="0" y="0" width="16" height="8">
<path d="M16 0.5H0V7.5H16V0.5Z" fill="white"/>
</mask>
<g mask="url(#mask0_9572_29106)">
<path d="M15.1875 4.875C15.4688 4.875 15.75 5.15625 15.75 5.4375V6C15.75 6.31641 15.4688 6.5625 15.1875 6.5625H0.5625C0.246094 6.5625 0 6.31641 0 6V5.4375C0 5.15625 0.246094 4.875 0.5625 4.875H15.1875ZM15.1875 0.9375C15.4688 0.9375 15.75 1.21875 15.75 1.5V2.0625C15.75 2.37891 15.4688 2.625 15.1875 2.625H0.5625C0.246094 2.625 0 2.37891 0 2.0625V1.5C0 1.21875 0.246094 0.9375 0.5625 0.9375H15.1875Z" fill="#A7AAAD"/>
</g>
</svg>
