<svg width="80" height="80" viewBox="0 0 80 80" fill="none" xmlns="http://www.w3.org/2000/svg">
<g clip-path="url(#clip0_9572_29112)">
<path opacity="0.15" d="M40 0C17.9 0 0 17.9 0 40C0 62.1 17.9 80 40 80C62.1 80 80 62.1 80 40C80 17.9 62.1 0 40 0ZM40 72C22.3 72 8 57.7 8 40C8 22.3 22.3 8 40 8C57.7 8 72 22.3 72 40C72 57.7 57.7 72 40 72Z" fill="black"/>
<path d="M75.8 47.4H75.4C73.2 47.2 71.6 45.2 71.8 43C71.9 42 71.9 41 71.9 40C72 22.4 57.6 8 40 8C37.8 8 36 6.2 36 4C36 1.8 37.8 0 40 0C62.1 0 80 17.9 80 40C80 41.3 79.9 42.5 79.8 43.8C79.6 45.9 77.9 47.4 75.8 47.4Z" fill="#E27730"/>
</g>
<defs>
<clipPath id="clip0_9572_29112">
<rect width="80" height="80" fill="white"/>
</clipPath>
</defs>
</svg>
