<svg width="576" height="513" viewBox="0 0 576 513" fill="none" xmlns="http://www.w3.org/2000/svg">
<path d="M309.033 16.8032L379.099 155.016L532.668 179.971C541.306 180.93 548.025 186.689 550.904 195.327C553.784 203.966 551.864 212.604 545.145 218.363L435.727 328.741L459.723 482.31C460.682 490.948 457.803 499.587 450.124 504.386C443.406 509.185 433.808 510.144 426.129 506.305L287.917 436.239L149.705 506.305C142.026 510.144 132.428 509.185 125.709 504.386C118.031 499.587 115.151 490.948 116.111 482.31L140.106 328.741L30.6884 218.363C24.9295 212.604 22.0501 203.966 24.9295 195.327C27.809 186.689 34.5276 180.93 43.1659 179.971L196.735 155.016L267.761 16.8032C271.6 9.12478 279.279 4.32574 287.917 4.32574C296.555 4.32574 304.234 9.12478 309.033 16.8032Z" fill="black"/>
</svg>
