<svg width="14" height="9" viewBox="0 0 14 9" fill="none" xmlns="http://www.w3.org/2000/svg">
<path d="M0 1.5C0 0.679688 0.65625 0 1.5 0H12C12.8203 0 13.5 0.679688 13.5 1.5V3C13.5 3.21094 13.3125 3.375 13.125 3.44531C12.6797 3.60938 12.375 4.00781 12.375 4.5C12.375 4.99219 12.6797 5.41406 13.125 5.57812C13.3125 5.64844 13.5 5.8125 13.5 6V7.5C13.5 8.34375 12.8203 9 12 9H1.5C0.65625 9 0 8.34375 0 7.5V6C0 5.8125 0.164062 5.64844 0.351562 5.57812C0.796875 5.41406 1.125 4.99219 1.125 4.5C1.125 4.00781 0.796875 3.60938 0.351562 3.44531C0.164062 3.375 0 3.21094 0 3V1.5Z" fill="#A7AAAD"/>
</svg>
