<svg width="14" height="17" viewBox="0 0 14 17" fill="none" xmlns="http://www.w3.org/2000/svg">
<path d="M0 15V6.5H14V15C14 15.8438 13.3125 16.5 12.5 16.5H1.5C0.65625 16.5 0 15.8438 0 15ZM10 8.875V10.125C10 10.3438 10.1562 10.5 10.375 10.5H11.625C11.8125 10.5 12 10.3438 12 10.125V8.875C12 8.6875 11.8125 8.5 11.625 8.5H10.375C10.1562 8.5 10 8.6875 10 8.875ZM10 12.875V14.125C10 14.3438 10.1562 14.5 10.375 14.5H11.625C11.8125 14.5 12 14.3438 12 14.125V12.875C12 12.6875 11.8125 12.5 11.625 12.5H10.375C10.1562 12.5 10 12.6875 10 12.875ZM6 8.875V10.125C6 10.3438 6.15625 10.5 6.375 10.5H7.625C7.8125 10.5 8 10.3438 8 10.125V8.875C8 8.6875 7.8125 8.5 7.625 8.5H6.375C6.15625 8.5 6 8.6875 6 8.875ZM6 12.875V14.125C6 14.3438 6.15625 14.5 6.375 14.5H7.625C7.8125 14.5 8 14.3438 8 14.125V12.875C8 12.6875 7.8125 12.5 7.625 12.5H6.375C6.15625 12.5 6 12.6875 6 12.875ZM2 8.875V10.125C2 10.3438 2.15625 10.5 2.375 10.5H3.625C3.8125 10.5 4 10.3438 4 10.125V8.875C4 8.6875 3.8125 8.5 3.625 8.5H2.375C2.15625 8.5 2 8.6875 2 8.875ZM2 12.875V14.125C2 14.3438 2.15625 14.5 2.375 14.5H3.625C3.8125 14.5 4 14.3438 4 14.125V12.875C4 12.6875 3.8125 12.5 3.625 12.5H2.375C2.15625 12.5 2 12.6875 2 12.875ZM12.5 2.5C13.3125 2.5 14 3.1875 14 4V5.5H0V4C0 3.1875 0.65625 2.5 1.5 2.5H3V1C3 0.75 3.21875 0.5 3.5 0.5H4.5C4.75 0.5 5 0.75 5 1V2.5H9V1C9 0.75 9.21875 0.5 9.5 0.5H10.5C10.75 0.5 11 0.75 11 1V2.5H12.5Z" fill="#FF8845"/>
</svg>
