<svg width="100" height="100" viewBox="0 0 100 100" fill="none" xmlns="http://www.w3.org/2000/svg">
<g clip-path="url(#clip0_9572_29131)">
<mask id="mask0_9572_29131" style="mask-type:luminance" maskUnits="userSpaceOnUse" x="0" y="0" width="100" height="100">
<path d="M100 0H0V100H100V0Z" fill="white"/>
</mask>
<g mask="url(#mask0_9572_29131)">
<path d="M50 0C77.614 0 100 22.386 100 50C100 77.614 77.614 100 50 100C22.386 100 0 77.614 0 50C0 22.386 22.386 0 50 0Z" fill="#1685B7"/>
<path d="M65.625 45.5625C65.625 50.0547 64.1602 54.1562 61.7188 57.5742L74.1211 69.8789C75.293 71.1484 75.293 73.1016 74.1211 74.3711C72.8516 75.543 70.8984 75.543 69.6289 74.3711L57.3242 61.9688C53.9062 64.4102 49.8047 65.875 45.3125 65.875C34.082 65.875 25 56.793 25 45.5625C25 34.332 34.082 25.25 45.3125 25.25C56.543 25.25 65.625 34.332 65.625 45.5625ZM45.3125 59.625C53.125 59.625 59.375 53.375 59.375 45.5625C59.375 37.75 53.125 31.5 45.3125 31.5C37.5 31.5 31.25 37.75 31.25 45.5625C31.25 53.375 37.5 59.625 45.3125 59.625Z" fill="white"/>
</g>
</g>
<defs>
<clipPath id="clip0_9572_29131">
<rect width="100" height="100" fill="white"/>
</clipPath>
</defs>
</svg>
