<svg width="42" height="42" viewBox="0 0 42 42" fill="none" xmlns="http://www.w3.org/2000/svg">
<path d="M0 4C0 1.79086 1.79086 0 4 0H38C40.2091 0 42 1.79086 42 4V38C42 40.2091 40.2091 42 38 42H4C1.79086 42 0 40.2091 0 38V4Z" fill="#F2F2F2"/>
<path d="M14 16.375C14 15.418 14.7656 14.625 15.75 14.625H26.25C27.207 14.625 28 15.418 28 16.375V25.125C28 26.1094 27.207 26.875 26.25 26.875H15.75C14.7656 26.875 14 26.1094 14 25.125V16.375ZM22.832 19.3008C22.7227 19.1094 22.5039 19 22.3125 19C22.0938 19 21.875 19.1094 21.7656 19.3008L19.3867 22.8008L18.6484 21.8711C18.5391 21.7344 18.3477 21.625 18.1562 21.625C17.9375 21.625 17.7461 21.7344 17.6367 21.8711L15.8867 24.0586C15.7227 24.2773 15.6953 24.5508 15.8047 24.7695C15.9141 24.9883 16.1328 25.125 16.4062 25.125H19.0312H19.9062H25.5938C25.8125 25.125 26.0586 25.0156 26.168 24.7969C26.2773 24.5781 26.25 24.3047 26.1133 24.1133L22.832 19.3008ZM17.0625 19C17.5273 19 17.9375 18.7539 18.1836 18.3438C18.4297 17.9609 18.4297 17.4414 18.1836 17.0312C17.9375 16.6484 17.5273 16.375 17.0625 16.375C16.5703 16.375 16.1602 16.6484 15.9141 17.0312C15.668 17.4414 15.668 17.9609 15.9141 18.3438C16.1602 18.7539 16.5703 19 17.0625 19Z" fill="#A7AAAD"/>
</svg>
