<svg width="26" height="21" viewBox="0 0 26 21" fill="none" xmlns="http://www.w3.org/2000/svg">
<path d="M16.75 7.375C16.75 11.2031 13.0781 14.25 8.625 14.25C7.10156 14.25 5.73438 13.9375 4.52344 13.3125C3.54688 13.8203 2.29688 14.25 0.773438 14.25C0.65625 14.25 0.539062 14.2109 0.5 14.0938C0.460938 13.9766 0.460938 13.8594 0.578125 13.7812C0.578125 13.7422 1.47656 12.8047 2.10156 11.5156C1.08594 10.3438 0.5 8.9375 0.5 7.375C0.5 3.58594 4.13281 0.5 8.625 0.5C13.0781 0.5 16.75 3.58594 16.75 7.375ZM23.8984 17.8438C24.5234 19.0938 25.3828 19.9922 25.3828 20.0312C25.4609 20.1094 25.5 20.2266 25.4609 20.3438C25.4219 20.4609 25.3047 20.5 25.1875 20.5C23.7812 20.5 22.5703 20.1094 21.5938 19.6797C20.5391 20.1875 19.2891 20.5 18 20.5C14.4453 20.5 11.5156 18.3125 10.6953 15.3047C14.875 14.4844 18 11.2422 18 7.375C18 7.17969 17.9609 6.98438 17.9609 6.78906C17.9609 6.78906 17.9609 6.75 18 6.75C22.1406 6.75 25.5 9.83594 25.5 13.625C25.5 15.2266 24.875 16.6719 23.8984 17.8438Z" fill="white"/>
</svg>
