<svg width="20" height="21" viewBox="0 0 20 21" fill="none" xmlns="http://www.w3.org/2000/svg">
<path d="M18.3594 17.1406C18.8672 17.6094 18.8672 18.4297 18.3594 18.8984C17.8906 19.4062 17.0703 19.4062 16.6016 18.8984L16.0938 18.4297C14.4141 19.7188 12.3047 20.5 9.96094 20.5C7.65625 20.5 5.54688 19.7188 3.86719 18.4297L3.35938 18.8984C2.89062 19.4062 2.07031 19.4062 1.60156 18.8984C1.09375 18.4297 1.09375 17.6094 1.60156 17.1406L2.07031 16.6328C0.78125 14.9531 0 12.8438 0 10.5C0 8.19531 0.78125 6.08594 2.07031 4.40625L1.60156 3.89844C1.09375 3.42969 1.09375 2.60938 1.60156 2.14062C2.07031 1.63281 2.89062 1.63281 3.35938 2.14062L3.86719 2.60938C5.54688 1.32031 7.65625 0.5 9.96094 0.5C12.3047 0.5 14.4141 1.32031 16.0938 2.60938L16.6016 2.14062C17.0703 1.63281 17.8906 1.63281 18.3594 2.14062C18.8672 2.60938 18.8672 3.42969 18.3594 3.89844L17.8906 4.40625C19.1797 6.08594 20 8.19531 20 10.5C20 12.8438 19.1797 14.9531 17.8906 16.6328L18.3594 17.1406ZM12.0703 14.3672C11.4453 14.7188 10.7422 14.875 9.96094 14.875C9.21875 14.875 8.51562 14.7188 7.89062 14.3672L5.625 16.6328C6.875 17.4922 8.35938 18 9.96094 18C11.6016 18 13.0859 17.4922 14.3359 16.6328L12.0703 14.3672ZM17.5 10.5C17.5 8.89844 16.9531 7.41406 16.0938 6.16406L13.8281 8.42969C14.1797 9.05469 14.375 9.75781 14.375 10.5C14.375 11.2812 14.1797 11.9844 13.8281 12.6094L16.0938 14.875C16.9531 13.625 17.5 12.1406 17.5 10.5ZM9.96094 3C8.35938 3 6.875 3.54688 5.625 4.40625L7.89062 6.67188C8.51562 6.32031 9.21875 6.125 9.96094 6.125C10.7422 6.125 11.4453 6.32031 12.0703 6.67188L14.3359 4.40625C13.0859 3.54688 11.6016 3 10 3H9.96094ZM6.13281 12.6094C5.78125 11.9844 5.58594 11.2812 5.58594 10.5C5.58594 9.75781 5.78125 9.05469 6.13281 8.42969L3.86719 6.16406C3.00781 7.41406 2.46094 8.89844 2.46094 10.5C2.46094 12.1406 3.00781 13.625 3.86719 14.875L6.13281 12.6094ZM9.96094 8.625C8.94531 8.625 8.08594 9.48438 8.08594 10.5C8.08594 11.5547 8.94531 12.375 9.96094 12.375C11.0156 12.375 11.875 11.5547 11.875 10.5C11.875 9.48438 11.0156 8.625 9.96094 8.625Z" fill="white"/>
</svg>
