<svg width="14" height="21" viewBox="0 0 14 21" fill="none" xmlns="http://www.w3.org/2000/svg">
<path d="M10.125 15.5H3.875C3.48438 14.2891 2.70312 13.1953 1.92188 12.1406C1.72656 11.8672 1.53125 11.5938 1.33594 11.3203C0.554688 10.1875 0.125 8.85938 0.125 7.375C0.125 3.58594 3.17188 0.5 7 0.5C10.7891 0.5 13.875 3.58594 13.875 7.41406C13.875 8.85938 13.4062 10.1875 12.625 11.3203C12.4297 11.5938 12.2344 11.8672 12.0391 12.1406C11.2578 13.1953 10.4766 14.2891 10.125 15.5ZM7 20.5C5.24219 20.5 3.875 19.1328 3.875 17.375V16.75H10.125V17.375C10.125 19.1328 8.71875 20.5 7 20.5ZM3.875 7.375C3.875 5.65625 5.24219 4.25 7 4.25C7.3125 4.25 7.625 3.97656 7.625 3.625C7.625 3.3125 7.3125 3 7 3C4.57812 3 2.625 4.99219 2.625 7.375C2.625 7.72656 2.89844 8 3.25 8C3.5625 8 3.875 7.72656 3.875 7.375Z" fill="white"/>
</svg>
