<svg width="60" height="60" viewBox="0 0 60 60" fill="none" xmlns="http://www.w3.org/2000/svg">
<g clip-path="url(#clip0_1_662)">
<rect width="60" height="60" rx="30" fill="white"/>
<path d="M41.253 56.6384C39.2109 56.6522 39.0745 61.7047 42.0083 61.6266C44.9421 61.5484 51.2079 61.9651 57.2715 52.453C62.2934 44.5755 60.0199 31.5689 53.44 32.842C50.1738 33.4747 49.2378 35.5322 49.2133 37.5299C49.1811 40.099 50.6533 42.8673 50.615 45.5483C50.5338 51.1983 46.2458 56.6032 41.253 56.6369V56.6384Z" fill="#F99C2D"/>
<path d="M43.6904 56.191C42.1125 56.4668 42.0543 56.6323 41.253 56.6384C39.2124 56.6537 39.0745 61.7047 42.0083 61.6265C42.3423 61.6173 44.8992 61.7935 47.2875 60.9938C42.8065 61.4963 42.1079 57.2925 43.6904 56.191Z" fill="#E58230"/>
<path d="M50.6135 45.5483C54.3025 45.8057 54.085 42.9623 55.9157 42.0829C57.748 41.2036 59.6875 42.4307 59.9326 44.1435C60.118 40.5571 59.7288 34.7891 55.9724 33.107C53.3726 31.9427 49.0417 33.7658 49.2117 37.5605C49.3404 40.4422 50.5629 42.8612 50.6135 45.5468V45.5483Z" fill="#CC6017"/>
<path d="M19.4589 46.4093C17.7952 48.6169 17.3126 52.4193 16.732 57.1623C11.5202 52.767 9.00616 45.5376 8.31064 39.6517C8.31064 39.6517 12.5849 48.1083 19.4589 46.4093Z" fill="#E58230"/>
<path d="M25.76 40.626C25.7248 41.1561 25.5762 41.7382 25.3188 42.3281C24.3429 44.5479 21.8044 46.8719 17.9147 46.9302C11.2306 47.0313 8.22789 41.0213 7.76523 37.3813C7.76523 37.3813 7.97818 36.6857 9.25432 36.0362C10.6009 35.3514 11.8097 36.0362 11.8097 36.0362C11.8097 36.0362 12.4301 37.3567 15.2796 38.2376C15.8633 38.4184 16.4148 38.544 16.9342 38.6283C17.9836 38.7999 18.9089 38.7983 19.7347 38.7263H19.7362C22.0449 38.5226 23.5861 37.7566 24.922 38.5823C25.5455 38.9669 25.8182 39.7221 25.76 40.626Z" fill="#FFAC3D"/>
<path d="M20.4395 45.5054L20.1422 46.6268C19.4574 46.8107 18.7144 46.9179 17.9132 46.9302C11.2291 47.0313 8.22642 41.0213 7.76376 37.3813C9.2835 40.361 10.8109 46.2699 20.4395 45.5054Z" fill="#F99C2D"/>
<path d="M14.6183 32.0219C14.2736 30.4562 12.331 31.5179 11.6248 32.1659C11.0748 32.6607 11.539 29.079 11.3015 28.5443C11.1345 27.8243 10.5432 27.1211 9.72663 27.2835C8.25285 27.5776 8.67722 30.7228 8.51483 30.8331C7.7136 30.1774 6.25821 27.0828 4.92385 28.1935C3.58949 29.3042 5.64082 31.406 6.24749 32.4708C6.30724 32.5749 6.0422 32.434 5.94721 32.3589C3.78405 30.5481 2.24287 32.074 4.23292 34.084C4.77984 34.6355 5.38344 34.9388 5.82006 35.4536C6.54928 36.3115 7.24941 37.5263 8.68641 37.4222C10.4589 37.5018 11.9802 36.6654 12.6665 34.5956C12.9469 33.75 14.8741 33.5723 14.6183 32.0234V32.0219Z" fill="#CC6017"/>
<path d="M11.1284 32.745C10.4283 33.0299 9.92885 33.5386 9.65156 34.2325C9.55657 34.4593 9.47844 34.6998 9.40031 34.951C9.3283 35.1977 8.95297 35.1655 8.92233 34.9127C8.73236 33.6764 9.78177 32.3114 11.084 32.4371C11.2494 32.4493 11.2831 32.6868 11.1284 32.745Z" fill="#994110"/>
<path d="M11.943 36.0944C11.943 36.4789 11.6442 37.1515 11.059 37.4563C10.3681 37.8163 8.29989 38.1181 7.76523 37.3813C9.35697 37.6203 10.9395 37.2388 11.943 36.0944Z" fill="#F99C2D"/>
<path d="M20.4395 45.5054L20.1422 46.6268C19.4574 46.8107 18.7144 46.9179 17.9132 46.9302C11.2291 47.0313 8.22642 41.0213 7.76376 37.3813C9.2835 40.361 10.8109 46.2699 20.4395 45.5054Z" fill="#F99C2D"/>
<path d="M23.1878 37.441C17.1073 46.9118 15.439 57.743 17.691 61.9728C19.2904 64.9801 22.552 67.2352 25.7784 66.2562C25.9347 66.2087 26.0342 66.054 26.0128 65.8916C25.6466 63.0927 28.5498 62.5335 29.8857 62.9012C31.2216 63.2689 33.5287 64.6614 34.2442 65.694C34.9596 66.7281 35.6031 66.7725 37.4568 66.8001C39.8696 66.8353 41.345 66.1827 42.0098 61.6235C42.6747 57.0643 38.8601 45.6295 38.595 40.9324C38.5138 39.4954 38.6364 37.873 38.6364 37.873L23.1893 37.438L23.1878 37.441Z" fill="#FFAB3D"/>
<path d="M24.0809 37.9466C22.287 40.1342 16.9005 51.1247 18.3283 56.0256C19.6121 60.4285 22.4402 61.1302 24.922 61.1302C27.9676 61.1302 33.1718 59.54 33.446 50.7264C33.7784 40.0576 36.1178 38.5808 36.1178 38.5808L24.0809 37.9466Z" fill="#FFDD99"/>
<path d="M33.0079 64.5297C32.0733 63.7637 30.7742 63.1493 29.8841 62.9042C28.5482 62.535 25.6436 63.0942 26.0097 65.8947C26.0312 66.0555 25.9331 66.2103 25.7753 66.2578C24.7397 63.5048 26.8033 59.4419 33.0079 64.5297Z" fill="#F99C2D"/>
<path d="M40.1025 56.8651C41.1106 58.7878 41.708 63.1923 39.9876 66.2562C41.6713 65.2834 42.4556 60.9111 42.1983 56.8713C42.0818 55.0482 40.1025 56.8651 40.1025 56.8651Z" fill="#F99C2D"/>
<path d="M36.438 46.3817C37.97 48.361 38.6425 51.7115 38.5491 54.489C38.5414 54.6974 38.8846 54.6744 38.8922 54.466C38.9581 52.5281 39.4009 50.4216 42.2856 48.0363C40.8072 46.7846 36.6831 46.8183 36.4395 46.3817H36.438Z" fill="#E58230"/>
<path d="M40.5115 49.6663C38.1201 51.3178 37.2714 57.1639 41.5763 57.1623C45.8812 57.1608 45.5135 54.0386 44.0106 53.9191C44.6311 53.1378 43.4254 52.4223 42.6441 52.5924C41.2009 49.9099 40.5115 49.6663 40.5115 49.6663Z" fill="#CC6017"/>
<path d="M43.839 54.0263C43.2094 54.4614 42.6624 55.2611 42.1952 55.8892C42.0726 56.0608 41.7907 55.9444 41.8229 55.7391C41.9225 54.9532 42.1155 54.1795 42.5797 53.507C42.7574 53.2726 42.9949 53.0275 43.3733 52.8942C44.0091 52.6751 44.4702 53.5039 43.96 53.9283L43.8405 54.0263H43.839Z" fill="#994110"/>
<path d="M43.9034 52.9248C43.7211 53.0122 43.5158 53.0459 43.3135 53.026C41.7233 52.8651 40.8241 51.9888 40.3078 50.9608C40.0933 50.5319 40.1791 50.0125 40.5115 49.6678C41.5472 48.5908 42.2825 48.0363 42.2825 48.0363C42.2825 48.0363 39.8267 47.8126 37.6528 47.16C34.5996 46.2423 35.5402 42.8183 36.1163 41.4594C36.15 41.3798 36.1959 41.2863 36.2495 41.1837C36.4364 40.8282 36.7306 40.3533 37.0201 39.9075C37.469 39.212 37.9056 38.5854 37.9056 38.5854C37.9056 38.5854 38.8202 38.5226 40.2496 38.8811C40.9742 39.0634 41.8321 39.3545 42.7712 39.8187C44.0887 40.4682 45.5656 41.4579 47.0562 42.9623C50.782 46.7218 48.101 50.9164 43.9034 52.9248Z" fill="#FFAC3D"/>
<path d="M42.2825 48.0363C42.2825 48.0363 39.8267 47.8126 37.6528 47.16C37.2714 47.0451 36.9527 46.8919 36.6877 46.708C36.513 46.587 36.3629 46.4537 36.2327 46.3097C36.0121 46.0646 35.8512 45.7904 35.7379 45.4962C35.747 45.4932 35.7562 45.4916 35.7654 45.4886C38.7574 46.3832 39.5387 46.4813 42.1768 47.3024C42.7375 47.4771 42.2825 48.0363 42.2825 48.0363Z" fill="#F99C2D"/>
<path d="M35.0347 40.3242C34.8616 40.747 34.6839 41.2695 34.5107 41.9114L35.0347 40.3242Z" fill="#F99C2D"/>
<path d="M44.2372 40.6214C40.5818 39.5367 37.5546 40.9002 34.5075 41.8776C34.6806 41.2357 34.8583 40.7133 35.0314 40.2905C36.7825 39.978 38.6055 39.5184 40.2463 38.8474C40.9709 39.0297 42.3681 39.4249 44.2372 40.6214Z" fill="#F99C2D"/>
<path d="M22.8183 39.8646C22.6421 40.1771 22.4583 40.5157 22.2714 40.8742C20.695 39.9887 19.0987 39.0282 16.9294 38.5961C17.9788 38.7662 18.9041 38.7647 19.7298 38.6926H19.7314C20.6889 39.1431 21.749 39.5383 22.8183 39.8646Z" fill="#F99C2D"/>
<path d="M35.0314 40.2905C34.8583 40.7133 34.6806 41.2357 34.5075 41.8776C30.5274 43.1614 25.8517 43.238 22.2715 40.8742C22.4584 40.5157 22.6422 40.1771 22.8184 39.8646C27.1141 40.8282 30.7878 41.0381 35.0314 40.2905Z" fill="#FFAB3D"/>
<path d="M35.0314 40.2905C34.8583 40.7133 34.6806 41.2357 34.5075 41.8776L35.0314 40.2905Z" fill="#F99C2D"/>
<path d="M20.8712 19.4447C19.3545 16.1371 13.8103 12.4435 11.4081 13.8269C10.207 14.5193 9.26945 22.7385 13.4426 25.4149C15.0022 26.4152 16.741 26.5516 16.741 26.5516L20.8712 19.4447Z" fill="#CC6017"/>
<path d="M16.9753 26.0169C13.4273 25.4133 10.3709 22.3064 11.3683 15.4615C11.4081 15.1903 11.6333 14.9851 11.906 14.9743C14.0722 14.8855 16.0546 16.8786 17.3553 19.2149C18.5227 21.3122 18.4568 22.7538 18.0784 24.0514C17.7061 24.6044 16.9738 26.0169 16.9738 26.0169H16.9753Z" fill="#FF8845"/>
<path d="M17.3553 19.2149C13.3599 17.3933 15.3009 24.8495 17.4396 25.2019C17.8333 24.3762 18.3695 23.5213 18.3695 23.5213C18.3695 23.5213 18.4629 20.3486 17.3553 19.2149Z" fill="#E86531"/>
<path d="M40.326 19.4339C41.9529 16.1785 47.6167 12.6733 49.9714 14.1348C51.1495 14.8671 51.8113 23.1123 47.5508 25.6492C45.9591 26.596 44.2172 26.6757 44.2172 26.6757L40.326 19.4339Z" fill="#CC6017"/>
<path d="M44.0012 26.1334C47.5677 25.6477 50.7251 22.645 49.9576 15.771C49.927 15.4998 49.7079 15.2853 49.4352 15.2654C47.2736 15.1046 45.2253 17.0303 43.848 19.3221C42.6117 21.3796 42.6286 22.8227 42.9641 24.1326C43.318 24.6979 44.0012 26.1334 44.0012 26.1334Z" fill="#FF8845"/>
<path d="M43.848 19.3206C47.9017 17.6323 45.7124 25.0196 43.5646 25.3015C43.1984 24.4635 42.6913 23.5902 42.6913 23.5902C42.6913 23.5902 42.6914 20.4497 43.848 19.3206Z" fill="#E86531"/>
<path d="M28.5955 40.9017C25.4442 40.9017 19.0206 39.14 16.7226 36.6888C14.4078 34.2192 14.4246 32.5524 15.2795 29.5037C15.618 28.295 16.6812 25.8637 17.8486 23.5933C17.8486 23.5918 17.8501 23.5918 17.8501 23.5903C18.9042 21.5405 20.0424 19.6224 20.8084 18.8579C22.4216 17.2447 27.7039 16.6105 30.0923 16.6105C31.7851 16.6105 35.0008 16.9399 37.3447 17.6431C37.3462 17.6431 37.3493 17.6431 37.3508 17.6446C38.4156 17.9648 39.3011 18.3616 39.7791 18.8411C40.928 19.9901 41.3524 20.8786 42.6898 23.5903C43.7301 25.7013 45.5347 28.6734 45.7385 32.0683C46.2134 39.9826 31.802 40.9017 28.5955 40.9017Z" fill="#FFAC3D"/>
<path d="M30.4247 31.12C31.1907 29.971 33.2283 31.6347 33.7675 32.2475C34.3068 32.8603 36.3275 34.8688 38.3221 34.0185C40.3168 33.1683 42.7235 29.0717 43.6657 30.2008C44.6064 31.3299 44.8254 40.0622 28.6737 40.0622C20.5924 40.0622 15.9581 35.4816 15.9581 32.2491C15.9581 30.5639 16.8375 28.6811 17.1025 28.6811C17.1255 28.8848 17.8992 34.2024 20.8054 34.2024C22.391 34.2024 24.0133 32.3762 24.6215 31.5015C26.1306 29.3337 26.6897 30.9683 26.6897 30.9683" fill="#FFDD99"/>
<path d="M24.2462 33.9542C24.3274 34.5501 24.7885 35.1292 25.3707 35.3085C26.3205 35.5275 27.6564 35.2364 27.9076 34.2008L28.8253 34.2391C28.8713 35.3452 30.0662 35.4831 31.0038 35.4724C31.5093 35.4632 31.9981 35.3422 32.3918 35.0312C32.7763 34.7355 33.0352 34.2544 33.0858 33.7596C33.1072 33.5758 33.2727 33.4425 33.4565 33.4639C33.9942 33.5359 33.6924 34.4888 33.5745 34.8152C33.1731 35.8247 32.09 36.4191 31.039 36.4483C30.3634 36.4743 29.6847 36.436 29.0444 36.1265C28.3412 35.8232 27.8402 35.0005 27.9046 34.2391L28.8222 34.2774C28.6721 35.6853 27.2458 36.3563 25.9988 36.3196C25.3829 36.3349 24.7012 36.102 24.2615 35.6501C23.8142 35.1966 23.5369 34.6206 23.5491 33.9542C23.5537 33.7627 23.7115 33.611 23.9015 33.6156C24.0914 33.6187 24.2324 33.7734 24.2431 33.9542H24.2462Z" fill="#CC6017"/>
<path d="M28.3657 34.3923C29.7195 34.3923 30.8169 33.4663 30.8169 32.3241C30.8169 31.1819 29.7195 30.2559 28.3657 30.2559C27.012 30.2559 25.9145 31.1819 25.9145 32.3241C25.9145 33.4663 27.012 34.3923 28.3657 34.3923Z" fill="#FF8845"/>
<path d="M30.4247 31.12C31.6181 29.8546 32.3259 32.1878 35.4435 33.8194C39.6243 36.004 41.7768 29.0993 43.5631 30.1043C43.2919 29.2142 43.0805 26.4137 41.5133 24.4359C41.0537 23.8553 39.393 21.6814 36.0257 22.7507C34.3604 23.2793 32.9816 25.9985 32.3121 27.6531C31.1647 30.4934 30.4232 31.1215 30.4232 31.1215L30.4247 31.12Z" fill="#CC6017"/>
<path d="M17.1025 28.6795C17.2664 26.8273 19.0144 22.1394 22.0968 22.1394C25.1792 22.1394 25.8486 26.6374 26.2485 28.943C26.4523 30.115 26.63 30.8641 26.63 30.8641C26.63 30.8641 26.3588 30.0966 25.4564 30.8886C24.7379 31.5183 22.9532 34.2023 20.8053 34.2023C18.6575 34.2023 17.5606 31.4631 17.1025 28.681V28.6795Z" fill="#CC6017"/>
<path d="M25.2895 28.0407C25.4028 30.0277 24.7747 32.2475 21.6847 32.2475C19.9781 32.2475 18.5947 31.195 18.7234 28.6412C18.8229 26.6527 20.0102 24.4344 22.0708 24.4344C23.7774 24.4344 25.1608 25.7871 25.2895 28.0407Z" fill="#2E2D2C"/>
<path d="M23.0038 28.7239C23.596 28.7239 24.0762 28.2438 24.0762 27.6516C24.0762 27.0593 23.596 26.5792 23.0038 26.5792C22.4115 26.5792 21.9314 27.0593 21.9314 27.6516C21.9314 28.2438 22.4115 28.7239 23.0038 28.7239Z" fill="#FEF6DC"/>
<path d="M28.355 32.1939C28.8364 32.1939 29.2267 31.9655 29.2267 31.6837C29.2267 31.402 28.8364 31.1736 28.355 31.1736C27.8736 31.1736 27.4833 31.402 27.4833 31.6837C27.4833 31.9655 27.8736 32.1939 28.355 32.1939Z" fill="#FFB58A"/>
<path d="M35.8679 17.2693C31.9307 19.9043 30.1168 24.8266 29.2298 27.814C29.0995 28.2506 28.4622 28.1924 28.4132 27.7389C28.0854 24.7132 27.2565 19.7679 24.8728 17.1559C26.9517 16.6703 29.1991 16.6105 30.4416 16.6105C33.0322 16.6105 35.8679 17.2693 35.8679 17.2693Z" fill="#CC6017"/>
<path d="M33.645 29.1345C34.7633 27.1399 37.4903 26.3432 39.5631 27.2532C40.2494 27.5489 40.8438 27.984 41.3126 28.5187C41.4949 28.727 41.4734 29.0426 41.2651 29.2234C41.1364 29.3367 40.9663 29.3705 40.8116 29.3322C39.6504 29.0074 38.601 28.6627 37.4382 28.7209C36.2968 28.7592 35.2643 29.1667 34.2072 29.6952C33.8472 29.9021 33.4382 29.4899 33.645 29.1345Z" fill="#2E2D2C"/>
<path d="M27.1937 21.5604C26.2577 21.3306 25.0382 21.1084 24.0761 21.1084C21.3431 21.1084 18.8245 21.781 17.7061 23.8737C17.7536 23.7787 17.8011 23.6868 17.8486 23.5933C17.8486 23.5918 17.8501 23.5918 17.8501 23.5903C18.4537 22.4167 19.0849 21.2861 19.6579 20.3899C21.8379 19.5734 24.2967 19.2379 26.5763 19.9089C26.8092 20.4389 27.013 20.9951 27.1937 21.5604Z" fill="#F99C2D"/>
<path d="M31.9307 21.5021C31.7667 21.7687 31.6089 22.0383 31.4588 22.308C29.9866 22.2038 28.5496 21.8897 27.1937 21.5604C27.013 20.9951 26.8092 20.4389 26.5764 19.9089C26.8828 19.9977 27.1846 20.1065 27.4818 20.2337C29.1103 20.9307 30.5963 21.3229 31.9307 21.5021Z" fill="#B54C03"/>
<path d="M37.9927 20.8189C37.7446 20.9813 37.4167 21.1636 36.9939 21.3658C35.1586 22.2452 33.2819 22.4367 31.4588 22.308C31.6089 22.0383 31.7667 21.7687 31.9306 21.5021C34.5442 21.8545 36.5803 21.3949 37.9927 20.8189Z" fill="#F99C2D"/>
<path d="M34.3157 11.0404C34.3697 10.5254 33.8554 10.0495 33.167 9.9774C32.4787 9.90529 31.877 10.2643 31.823 10.7793C31.7691 11.2943 32.2834 11.7702 32.9717 11.8423C33.66 11.9145 34.2618 11.5554 34.3157 11.0404Z" fill="#2271B1"/>
<path d="M19.7575 20.2122C19.6533 20.3991 19.1585 21.231 17.7061 23.8736C16.2875 23.961 15.091 23.7281 14.8643 23.2976C15.5031 22.4581 15.4909 20.3792 19.7575 20.2122Z" fill="#234D79"/>
<path d="M33.2267 11.0141C26.1765 9.91111 22.751 13.7855 20.7946 17.784C21.0244 17.7335 14.2928 20.9139 14.8643 23.2961C24.0761 17.0732 26.4048 20.9414 32.928 21.7274C36.7702 22.19 40.3152 19.4478 40.326 19.434C40.5358 19.1352 41.38 17.8361 41.9545 17.2447C40.7304 14.4259 38.0893 11.6177 33.2267 11.0141Z" fill="#2271B1"/>
<path d="M40.326 19.434C40.326 19.434 29.7368 14.625 20.8712 17.784C23.1125 13.2325 26.3297 10.1164 33.3033 11.0157C38.8384 11.728 40.3275 19.437 40.326 19.4355V19.434Z" fill="#3B8DC4"/>
<path d="M14.8872 23.1935C18.6636 19.9089 22.6299 19.0081 27.5032 19.9717C29.6556 20.3899 31.7376 21.2341 33.9544 21.2371C36.1267 21.2969 38.3052 20.7163 40.0915 19.4462C40.136 19.4156 40.1957 19.4263 40.2263 19.4707C40.2554 19.5121 40.2478 19.5657 40.211 19.5994C39.3746 20.3501 38.3742 20.9246 37.3033 21.3107C34.5993 22.2973 31.6472 21.8928 28.957 21.0839C25.2879 20.1096 21.2741 19.8706 17.8102 21.6263C16.8206 22.0935 15.8784 22.6741 14.9546 23.2869C14.9286 23.3038 14.8933 23.2977 14.8765 23.2716C14.8612 23.2471 14.8658 23.2149 14.8872 23.1965V23.1935Z" fill="#225E8C"/>
<path fill-rule="evenodd" clip-rule="evenodd" d="M30.7525 16.3087L28.332 16.1938C28.0608 16.1815 27.828 16.0635 27.6763 15.8613C27.5216 15.656 27.4725 15.3925 27.5384 15.1183L28.0578 12.9276C28.1788 12.4098 28.6889 12.0038 29.2159 12.0038C29.2221 12.0038 29.2282 12.0038 29.2359 12.0038C29.2619 11.9655 29.2956 11.9287 29.3354 11.8996C29.4166 11.8429 29.5009 11.8153 29.5836 11.8153C29.5867 11.8153 29.5974 11.8153 29.6005 11.8153C29.7016 11.8199 29.795 11.8674 29.8532 11.9425C29.8747 11.9716 29.89 12.0022 29.9007 12.0344L31.085 12.0911C31.111 12.0528 31.1432 12.0176 31.1799 11.9885C31.2535 11.9333 31.3454 11.9027 31.4327 11.9027C31.4343 11.9027 31.4465 11.9027 31.4496 11.9027C31.5522 11.9073 31.6472 11.9563 31.7039 12.0344C31.7253 12.0635 31.7407 12.0942 31.7514 12.1248C31.995 12.1524 32.2048 12.2657 32.3443 12.4511C32.499 12.6564 32.548 12.9199 32.4837 13.1926L31.9643 15.3849C31.8418 15.9027 31.3316 16.3087 30.8046 16.3087C30.8046 16.3087 30.7709 16.3087 30.7556 16.3087H30.7525ZM28.407 15.0157C28.3825 15.1183 28.3994 15.2148 28.453 15.2868C28.5051 15.3558 28.5894 15.3971 28.6889 15.4017L30.6805 15.4967C30.7878 15.4967 30.8981 15.4569 30.99 15.3864C31.0926 15.3083 31.1631 15.2041 31.1891 15.0923C31.1922 15.0785 31.1968 15.0662 31.2029 15.0555L31.4266 14.1057C31.4297 14.0919 31.4312 14.072 31.4205 14.0566C31.4143 14.049 31.4006 14.0444 31.3791 14.0429L29.5959 13.9586C29.4932 13.9525 29.4013 13.905 29.3416 13.8253C29.2818 13.7456 29.2619 13.6415 29.2849 13.5404C29.3293 13.355 29.5055 13.2156 29.6939 13.2156C29.6954 13.2156 29.7077 13.2156 29.7108 13.2156L31.6089 13.306L31.6487 13.1374C31.6625 13.0777 31.6549 13.0225 31.6242 12.9827C31.612 12.9659 31.5966 12.9536 31.5783 12.9429C31.5063 13.0409 31.3898 13.1037 31.2673 13.1037C31.2642 13.1037 31.2014 13.1022 31.2014 13.1022C31.1018 13.0976 31.016 13.0517 30.9624 12.9797C30.941 12.9521 30.9256 12.9214 30.9164 12.8877L29.7429 12.831C29.674 12.9398 29.5484 13.0164 29.4151 13.0164C29.412 13.0164 29.3462 13.0134 29.3462 13.0134C29.2512 13.0088 29.1654 12.9643 29.1118 12.8923C29.098 12.8739 29.0857 12.854 29.0765 12.8326C29.0474 12.8433 29.0214 12.8586 28.9953 12.8785C28.934 12.926 28.8866 12.9934 28.8712 13.0624L28.6001 14.2083C28.597 14.219 28.5939 14.242 28.6047 14.2558C28.6077 14.2589 28.6154 14.2711 28.6476 14.2727L30.4308 14.3569C30.5319 14.3615 30.6238 14.409 30.6836 14.4871C30.7433 14.5668 30.7648 14.671 30.7403 14.7721C30.6958 14.9605 30.5243 15.0969 30.3343 15.0969C30.3312 15.0969 30.3159 15.0969 30.3128 15.0969L28.4101 15.0065V15.0157H28.407Z" fill="#FF8845"/>
<path d="M29.5837 11.9701C29.5837 11.9701 29.5898 11.9701 29.5928 11.9701C29.6495 11.9732 29.7016 11.9992 29.7307 12.0375C29.7598 12.0773 29.7736 12.1264 29.7583 12.1831L31.1785 12.2505C31.1923 12.1984 31.2275 12.1478 31.2734 12.1111C31.3179 12.0773 31.3761 12.0559 31.4312 12.0559C31.4343 12.0559 31.4374 12.0559 31.442 12.0559C31.4986 12.059 31.5507 12.085 31.5798 12.1248C31.609 12.1647 31.6212 12.2122 31.6074 12.2688L31.6794 12.2734C32.1513 12.2964 32.4424 12.6917 32.3336 13.1589L31.8142 15.3512C31.707 15.8047 31.2597 16.157 30.8031 16.157C30.7893 16.157 30.7755 16.157 30.7618 16.157L28.3412 16.0421C27.8694 16.0192 27.5783 15.6239 27.6886 15.1551L28.2079 12.9644C28.3152 12.5109 28.761 12.1585 29.2175 12.1585C29.2313 12.1585 29.2451 12.1585 29.2589 12.1585L29.3309 12.1616C29.3447 12.1095 29.3799 12.059 29.4274 12.0237C29.4764 11.99 29.53 11.9686 29.5852 11.9686M30.3328 14.9452C30.3328 14.9452 30.3236 14.9452 30.3205 14.9452L28.3198 14.8502C28.306 14.8502 28.283 14.8824 28.283 14.8824L28.2585 14.982C28.1865 15.2853 28.378 15.5412 28.6813 15.5565L30.653 15.6499C30.6622 15.6499 30.6714 15.6499 30.679 15.6499C30.8184 15.6499 30.9609 15.6009 31.0819 15.5075C31.2122 15.4079 31.301 15.2746 31.3363 15.1275H31.3409L31.5737 14.1409C31.589 14.0797 31.5783 14.0184 31.5431 13.9678C31.5063 13.9188 31.4496 13.8928 31.3822 13.8897L29.6005 13.8054C29.481 13.7993 29.4044 13.6951 29.432 13.5772C29.4596 13.4592 29.576 13.3703 29.6924 13.3703C29.6955 13.3703 29.6986 13.3703 29.7032 13.3703L31.7009 13.4653C31.7147 13.4653 31.7361 13.4332 31.7361 13.4332L31.7989 13.1743C31.8495 12.9613 31.7177 12.779 31.5002 12.7683H31.4956V12.7729C31.4711 12.8724 31.3715 12.9521 31.2704 12.9521C31.2673 12.9521 31.2643 12.9521 31.2612 12.9521H31.2076C31.1034 12.946 31.0375 12.8571 31.062 12.753C31.062 12.7438 31.0544 12.7438 31.0544 12.7438L29.6541 12.6764C29.6449 12.6764 29.6419 12.6855 29.6419 12.6855C29.6174 12.7851 29.5178 12.8663 29.4151 12.8663C29.4121 12.8663 29.409 12.8663 29.4059 12.8663L29.3539 12.8633C29.2481 12.8587 29.1838 12.7698 29.2068 12.6641V12.6595H29.2037C29.2037 12.6595 29.1899 12.6595 29.1838 12.6595C29.0842 12.6595 28.9831 12.6963 28.9004 12.7591C28.8115 12.8265 28.7457 12.9245 28.7196 13.0272L28.4485 14.1746C28.4331 14.2375 28.4439 14.2987 28.4791 14.3478C28.5159 14.3983 28.5725 14.4244 28.64 14.4274L30.4217 14.5117C30.5412 14.5163 30.6177 14.622 30.5902 14.7399C30.5626 14.8594 30.4508 14.9468 30.3328 14.9468M29.5837 11.6637C29.4703 11.6637 29.3554 11.702 29.2527 11.7725C29.2497 11.774 29.2466 11.7771 29.2436 11.7801C29.2144 11.8031 29.1869 11.8276 29.1624 11.8537C28.5771 11.8797 28.0455 12.3179 27.9092 12.8939L27.3899 15.0831C27.3148 15.3972 27.3761 15.7158 27.5553 15.9533C27.7345 16.1907 28.0088 16.3302 28.3259 16.3455L30.7464 16.4604C30.7648 16.4604 30.7847 16.4604 30.8031 16.4604C31.4083 16.4604 31.972 16.013 32.113 15.4186L32.6323 13.2263C32.7059 12.9107 32.6461 12.5952 32.4669 12.3562C32.3183 12.1601 32.1053 12.0299 31.8571 11.9824C31.8495 11.9686 31.8388 11.9533 31.8296 11.941C31.7453 11.8261 31.6074 11.7541 31.4588 11.7464C31.4512 11.7464 31.4435 11.7464 31.4343 11.7464C31.3133 11.7464 31.1923 11.7878 31.0927 11.8613C31.0651 11.8828 31.0391 11.9058 31.0161 11.9318L30.0004 11.8843C29.9942 11.8736 29.9866 11.8629 29.9789 11.8521C29.8916 11.7372 29.7552 11.6668 29.6082 11.6606C29.6005 11.6606 29.5913 11.6606 29.5837 11.6606V11.6637ZM29.7292 13.0624C29.7598 13.041 29.7874 13.0149 29.8119 12.9873L30.8154 13.0364C30.823 13.0486 30.8307 13.0594 30.8384 13.0716C30.8506 13.0885 30.8644 13.1038 30.8782 13.1176L29.7277 13.0624H29.7292ZM28.7748 14.1256L29.0184 13.0961C29.0229 13.0793 29.0306 13.0624 29.0429 13.0456C29.1225 13.1176 29.2252 13.1605 29.337 13.1666H29.3676C29.2543 13.2478 29.1685 13.3673 29.1348 13.5036C29.1011 13.6507 29.1302 13.8008 29.2175 13.9157C29.3033 14.0306 29.4366 14.1011 29.5837 14.1088L31.2459 14.1884L31.0528 15.005C31.0452 15.0218 31.0391 15.0387 31.0345 15.0571C31.0161 15.1337 30.9655 15.2072 30.892 15.2639C30.8261 15.316 30.7495 15.3436 30.676 15.3436H30.6637L28.692 15.2501C28.6537 15.2486 28.6032 15.2378 28.5725 15.1965C28.5664 15.1888 28.5618 15.1796 28.5572 15.1689L30.3022 15.2516C30.3098 15.2516 30.3206 15.2516 30.3297 15.2516C30.5902 15.2516 30.8246 15.0647 30.8858 14.8089C30.9211 14.6618 30.8904 14.5117 30.8016 14.3952C30.7143 14.2803 30.5795 14.2099 30.4324 14.2037L28.7732 14.1241L28.7748 14.1256Z" fill="#2271B1"/>
<path fill-rule="evenodd" clip-rule="evenodd" d="M30.7112 16.1019L28.2906 15.987C28.0424 15.9748 27.8295 15.8675 27.6916 15.6852C27.5507 15.4983 27.5062 15.2578 27.566 15.005L28.0853 12.8143C28.1987 12.3286 28.6751 11.9502 29.17 11.9502C29.1853 11.9502 29.2313 11.9518 29.2313 11.9518C29.2542 11.9058 29.2895 11.8644 29.3339 11.8307C29.4013 11.7848 29.4702 11.7603 29.5377 11.7603C29.6296 11.7648 29.7016 11.8001 29.746 11.8583C29.7736 11.8951 29.7889 11.9349 29.7935 11.9778L31.0804 12.0391C31.1034 11.9931 31.1386 11.9518 31.18 11.918C31.2397 11.8736 31.3148 11.8476 31.3852 11.8476C31.4772 11.8522 31.5507 11.8889 31.5936 11.9472C31.6196 11.9824 31.635 12.0222 31.6396 12.0651C31.8862 12.0774 32.0961 12.1846 32.2324 12.3654C32.3734 12.5508 32.4178 12.7928 32.3581 13.0441L31.8387 15.2363C31.7238 15.722 31.2458 16.1004 30.7525 16.1004C30.7525 16.1004 30.7219 16.1004 30.7066 16.1004L30.7112 16.1019ZM28.2876 14.8671C28.2584 14.9928 28.2799 15.1107 28.3473 15.2011C28.4132 15.2884 28.5174 15.3405 28.6399 15.3466L30.6116 15.4401H30.6346C30.7587 15.4401 30.8843 15.3957 30.99 15.3145C31.1064 15.2256 31.1861 15.1061 31.2167 14.9774C31.2183 14.9682 31.2228 14.9591 31.2274 14.9514L31.4542 13.9893C31.4634 13.9479 31.4572 13.9081 31.4358 13.8775C31.4082 13.8422 31.3653 13.833 31.3347 13.8315L29.553 13.7472C29.4733 13.7427 29.4013 13.7059 29.3569 13.6446C29.3109 13.5833 29.2956 13.5021 29.314 13.424C29.3508 13.2723 29.4948 13.159 29.6495 13.159L31.6242 13.2524L31.6794 13.0211C31.6993 12.9384 31.6855 12.8602 31.6411 12.802C31.6074 12.7576 31.5584 12.7285 31.5001 12.7147C31.448 12.8189 31.3377 12.8924 31.2228 12.8924H31.1585C31.0834 12.8863 31.0191 12.8541 30.9777 12.7989C30.9517 12.7652 30.9364 12.7239 30.9333 12.6794L29.651 12.6182C29.602 12.7254 29.4871 12.8051 29.3676 12.8051L29.3017 12.802C29.2282 12.7989 29.1654 12.7668 29.124 12.7116C29.101 12.681 29.0857 12.6442 29.0796 12.6044C29.0168 12.6151 28.9524 12.6427 28.9004 12.684C28.8238 12.7423 28.7686 12.825 28.7472 12.9108L28.476 14.0582C28.4668 14.0996 28.4729 14.1394 28.4944 14.1685C28.5158 14.1992 28.5511 14.2145 28.5955 14.216L30.3772 14.3003C30.4553 14.3034 30.5273 14.3401 30.5733 14.4014C30.6192 14.4627 30.6361 14.5439 30.6162 14.6235C30.5809 14.7752 30.4369 14.8886 30.2837 14.8886L28.2998 14.7951L28.283 14.8656L28.2876 14.8671Z" fill="#FF8845"/>
<path d="M29.5392 11.8383C29.5392 11.8383 29.5453 11.8383 29.5484 11.8383C29.6051 11.8414 29.6572 11.8675 29.6863 11.9058C29.7154 11.9456 29.7292 11.9946 29.7139 12.0513L31.134 12.1187C31.1478 12.0666 31.183 12.0161 31.229 11.9793C31.2734 11.9456 31.3316 11.9241 31.3868 11.9241C31.3899 11.9241 31.3929 11.9241 31.3975 11.9241C31.4542 11.9272 31.5063 11.9532 31.5354 11.9931C31.5645 12.0329 31.5768 12.0804 31.563 12.1371L31.635 12.1417C32.1068 12.1647 32.3979 12.5599 32.2891 13.0272L31.7698 15.2195C31.6625 15.6729 31.2152 16.0253 30.7587 16.0253C30.7449 16.0253 30.7311 16.0253 30.7173 16.0253L28.2968 15.9104C27.8249 15.8874 27.5338 15.4921 27.6441 15.0234L28.1635 12.8326C28.2707 12.3791 28.7165 12.0268 29.1731 12.0268C29.1868 12.0268 29.2006 12.0268 29.2144 12.0268L29.2864 12.0298C29.3002 11.9778 29.3355 11.9272 29.3829 11.892C29.432 11.8583 29.4856 11.8368 29.5407 11.8368M30.2868 14.815C30.2868 14.815 30.2776 14.815 30.2746 14.815L28.2738 14.72C28.2585 14.72 28.237 14.7522 28.237 14.7522L28.2125 14.8518C28.1405 15.1551 28.332 15.411 28.6353 15.4263L30.607 15.5197C30.6162 15.5197 30.6254 15.5197 30.6331 15.5197C30.7725 15.5197 30.9149 15.4707 31.036 15.3772C31.1662 15.2777 31.255 15.1444 31.2903 14.9973H31.2949L31.5277 14.0107C31.5415 13.9494 31.5323 13.8882 31.4971 13.8376C31.4603 13.7886 31.4036 13.7625 31.3362 13.7595L29.5545 13.6752C29.435 13.6691 29.3584 13.5649 29.386 13.4469C29.4136 13.329 29.53 13.2401 29.6464 13.2401C29.6495 13.2401 29.6526 13.2401 29.6572 13.2401L31.6549 13.3351C31.6687 13.3351 31.6901 13.3029 31.6901 13.3029L31.7529 13.044C31.8035 12.8311 31.6717 12.6488 31.4542 12.638H31.4496V12.6426C31.4251 12.7422 31.3255 12.8219 31.2244 12.8219C31.2213 12.8219 31.2183 12.8219 31.2152 12.8219H31.1616C31.0574 12.8158 30.9915 12.7269 31.016 12.6227C31.016 12.6135 31.0084 12.6135 31.0084 12.6135L29.6082 12.5461C29.599 12.5461 29.5959 12.5553 29.5959 12.5553C29.5714 12.6549 29.4718 12.7361 29.3707 12.7361C29.3676 12.7361 29.3646 12.7361 29.3615 12.7361L29.3094 12.733C29.2037 12.7284 29.1394 12.6396 29.1623 12.5339V12.5293H29.1593C29.1593 12.5293 29.1455 12.5293 29.1394 12.5293C29.0398 12.5293 28.9387 12.566 28.8559 12.6289C28.7671 12.6963 28.7012 12.7943 28.6767 12.897L28.4055 14.0444C28.3917 14.1072 28.4009 14.1685 28.4362 14.2175C28.4729 14.2681 28.5296 14.2941 28.597 14.2972L30.3787 14.3815C30.4982 14.386 30.5748 14.4918 30.5473 14.6097C30.5197 14.7292 30.4079 14.8165 30.2899 14.8165M29.5392 11.6852C29.4565 11.6852 29.3722 11.7127 29.2956 11.7663C29.2543 11.797 29.219 11.8338 29.193 11.8736C29.1868 11.8736 29.1792 11.8736 29.1731 11.8736C28.6445 11.8736 28.1359 12.2796 28.0133 12.7974L27.494 14.9881C27.4297 15.2623 27.4787 15.5259 27.6319 15.7311C27.7835 15.9318 28.0164 16.0498 28.2876 16.0636L30.7081 16.1785C30.725 16.1785 30.7403 16.1785 30.7571 16.1785C31.2841 16.1785 31.7943 15.7725 31.9169 15.2547L32.4362 13.0624C32.5006 12.7882 32.4515 12.5247 32.2968 12.3194C32.1574 12.134 31.949 12.0207 31.7054 11.9931C31.6947 11.9609 31.6794 11.9303 31.658 11.9027C31.6013 11.8246 31.5063 11.7755 31.4036 11.7709C31.3975 11.7709 31.3929 11.7709 31.3868 11.7709C31.2995 11.7709 31.2091 11.8016 31.1371 11.8567C31.0988 11.8858 31.0651 11.9211 31.039 11.9609L29.8548 11.9042C29.8441 11.8721 29.8288 11.8429 29.8073 11.8154C29.7491 11.7372 29.6541 11.6897 29.553 11.6852H29.5361H29.5392ZM29.3692 12.8862C29.5009 12.8862 29.6265 12.8112 29.6955 12.7009L30.8705 12.7575C30.8812 12.7897 30.8966 12.8219 30.9165 12.8495C30.9716 12.923 31.0574 12.9674 31.1524 12.972H31.2091C31.2091 12.972 31.2167 12.9736 31.2229 12.9736C31.3454 12.9736 31.4619 12.9092 31.5339 12.8127C31.5522 12.8234 31.5676 12.8357 31.5798 12.8525C31.6105 12.8924 31.6181 12.9475 31.6043 13.0073L31.5645 13.1758L29.6664 13.0854H29.6495C29.4611 13.0854 29.2849 13.2248 29.2405 13.4086C29.216 13.5113 29.2374 13.6139 29.2972 13.6936C29.3554 13.7717 29.4473 13.8207 29.5499 13.8253L31.3332 13.9096C31.3562 13.9096 31.3699 13.9157 31.3791 13.9265C31.3883 13.9387 31.3868 13.9586 31.3822 13.9724L31.157 14.9238C31.1509 14.9345 31.1463 14.9468 31.1432 14.959C31.1172 15.0709 31.0467 15.175 30.9456 15.2516C30.8537 15.3236 30.7434 15.3619 30.6361 15.3619C30.63 15.3619 30.6223 15.3619 30.6162 15.3619L28.6445 15.2685C28.545 15.2639 28.4622 15.2225 28.4086 15.1536C28.355 15.0816 28.3381 14.9851 28.3626 14.8824V14.8732L30.2684 14.9636C30.2746 14.9636 30.2822 14.9636 30.2884 14.9636C30.4799 14.9636 30.6499 14.8273 30.6943 14.6388C30.7188 14.5377 30.6974 14.4335 30.6376 14.3539C30.5779 14.2757 30.486 14.2283 30.3849 14.2237L28.6047 14.1394C28.5725 14.1394 28.5633 14.1256 28.5603 14.1225C28.5495 14.1088 28.5526 14.0873 28.5557 14.0751L28.8268 12.9276C28.8437 12.8602 28.8896 12.7912 28.9509 12.7453C28.9754 12.7254 29.0045 12.7101 29.0321 12.6993C29.0413 12.7208 29.0536 12.7407 29.0674 12.7591C29.1225 12.8311 29.2083 12.8755 29.3033 12.8801L29.3554 12.8832C29.3554 12.8832 29.3676 12.8832 29.3722 12.8832L29.3692 12.8862Z" fill="white"/>
<path fill-rule="evenodd" clip-rule="evenodd" d="M31.7545 13.0425L31.6917 13.3014C31.6917 13.3014 31.6702 13.3351 31.6564 13.3336L29.6587 13.2386C29.5392 13.234 29.4182 13.3228 29.3891 13.4454C29.3615 13.5649 29.4381 13.6675 29.5576 13.6737L31.3393 13.7579C31.4052 13.761 31.4619 13.787 31.5002 13.8361C31.5354 13.8866 31.5446 13.9479 31.5308 14.0092L31.2979 14.9958H31.2933C31.2596 15.1428 31.1692 15.2761 31.039 15.3757C30.9103 15.4753 30.7587 15.5243 30.6101 15.5167L28.6384 15.4232C28.3335 15.4079 28.1436 15.152 28.2156 14.8487L28.2401 14.7491C28.2401 14.7491 28.2631 14.717 28.2768 14.717L30.2776 14.8119C30.4002 14.8181 30.5182 14.7292 30.5473 14.6051C30.5748 14.4872 30.4982 14.383 30.3787 14.3769L28.597 14.2926C28.5312 14.2895 28.4745 14.2635 28.4362 14.2129C28.4009 14.1639 28.3917 14.1011 28.4055 14.0398L28.6767 12.8924C28.7012 12.7897 28.7686 12.6917 28.8559 12.6243C28.9433 12.5568 29.0536 12.5201 29.1593 12.5247H29.1639V12.5293C29.1394 12.6334 29.2037 12.7223 29.3094 12.7284L29.3615 12.7315C29.4657 12.7361 29.5714 12.6549 29.5974 12.5523C29.5974 12.5523 29.6005 12.5431 29.6097 12.5431L31.0099 12.6105C31.0099 12.6105 31.0191 12.6105 31.0176 12.6197C30.9931 12.7238 31.0589 12.8127 31.1631 12.8188H31.2167C31.3209 12.8249 31.4266 12.7453 31.4511 12.6411V12.6365H31.4573C31.6763 12.6472 31.8066 12.8295 31.756 13.0425H31.7545Z" fill="white"/>
<path d="M44.2494 40.6214C40.5941 39.5367 37.5669 40.9002 34.5197 41.8776C34.6929 41.2357 34.8706 40.7133 35.0437 40.2905C36.7948 39.9779 38.6178 39.5183 40.2586 38.8473C40.9832 39.0296 42.3804 39.4249 44.2494 40.6214Z" fill="#F99C2D"/>
<path d="M22.8306 39.8646C22.6544 40.1771 22.4706 40.5157 22.2837 40.8742C20.7073 39.9887 19.1109 39.0281 16.9417 38.5961C17.9911 38.7662 18.9164 38.7646 19.7421 38.6926H19.7437C20.7012 39.143 21.7613 39.5383 22.8306 39.8646Z" fill="#F99C2D"/>
<path d="M35.0437 40.2905C34.8706 40.7133 34.6928 41.2357 34.5197 41.8776C30.5396 43.1614 25.864 43.238 22.2837 40.8742C22.4706 40.5157 22.6545 40.1771 22.8306 39.8646C27.1263 40.8282 30.8001 41.0381 35.0437 40.2905Z" fill="#FFAB3D"/>
<path d="M47.5263 37.1453C46.6975 38.3004 45.5608 40.0515 43.5922 40.2966C43.2904 40.1189 42.9947 39.9611 42.7067 39.8186C41.8442 39.3927 41.0506 39.1124 40.3673 38.9285C40.4271 38.8596 40.4838 38.7952 40.5374 38.734C41.9851 38.1043 43.2705 37.3016 44.1958 36.2767C45.1288 36.151 46.2563 36.3257 47.5263 37.1453Z" fill="#2271B1"/>
<path d="M40.5695 39.1736C41.5745 38.0721 43.0253 37.3506 44.8438 38.0262C42.7006 40.1342 40.5695 39.1736 40.5695 39.1736Z" fill="#225E8C"/>
<path d="M42.2884 39.1966C42.2884 39.3345 42.267 39.4678 42.2241 39.5919C41.4841 39.261 40.8039 39.0388 40.2111 38.8872L40.2157 38.8688C40.7365 38.6558 41.2375 38.4214 41.7124 38.161C42.054 38.3525 42.2884 38.7447 42.2884 39.1966Z" fill="#234D79"/>
<path d="M34.8752 40.5631C34.4554 41.6738 34.0127 43.3774 33.7124 45.9665C31.8173 46.924 28.2646 48.6612 27.0161 49.1775C26.7909 49.271 26.535 49.225 26.3512 49.0657C24.5097 47.4632 22.7694 46.1488 21.674 43.719C21.5178 43.3728 21.3845 43.0695 21.2742 42.8044C21.7644 41.7535 22.2546 40.796 22.702 39.9963C25.0015 40.7301 27.445 41.2234 28.9418 41.2234C29.8656 41.2234 32.2126 41.0166 34.8752 40.5631Z" fill="#FFAB3D"/>
<path d="M20.0776 39.0128C20.8819 39.3682 21.7797 39.7022 22.7019 39.9963C22.2546 40.796 21.7644 41.7535 21.2741 42.8045C20.4346 40.8052 20.7824 40.9768 20.7824 40.9768C20.7824 40.9768 20.0822 40.3027 20.0776 39.0128Z" fill="#FFAB3D"/>
<path d="M44.136 40.629C41.1685 39.7604 42.5826 40.6275 34.8016 45.4012C34.6131 45.5161 34.2194 45.7091 33.7123 45.9665C34.0126 43.3774 34.4554 41.6738 34.8751 40.5632C36.905 40.2185 39.1172 39.7313 41.023 39.0833C41.7936 39.3161 43.5922 40.2966 44.136 40.629Z" fill="#F99C2D"/>
<path d="M26.5365 48.839C26.3251 48.9018 26.0984 48.8512 25.9314 48.7057C24.0838 47.1002 22.3664 45.873 21.2665 43.431C19.929 40.4682 20.3748 40.6888 20.3748 40.6888C20.3748 40.6888 19.6747 40.0162 19.6701 38.7263C22.4844 39.9703 26.4369 40.9354 28.5342 40.9354C30.4707 40.9354 36.4899 40.5999 40.8514 38.593C42.6377 41.2817 30.2991 47.7084 26.5365 48.839Z" fill="#2271B1"/>
<path d="M39.6932 39.7681C37.2727 41.3322 32.0777 42.1564 28.2952 42.1564C24.5127 42.1564 21.7521 40.4835 19.9428 38.8519C22.8796 40.0392 26.3373 40.9354 28.5358 40.9354C30.7342 40.9354 34.319 40.9354 40.853 38.593C40.9158 38.9392 40.3351 39.3529 39.6932 39.7681Z" fill="#225E8C"/>
<path d="M19.7942 38.8121C20.3534 40.5647 21.7582 41.7704 23.1677 42.8581C23.2366 42.9071 23.2534 43.0036 23.1998 43.071C23.16 43.1216 23.0941 43.14 23.0374 43.1201C22.5732 42.9669 22.1581 42.734 21.7643 42.4567C20.9784 41.9006 20.309 41.1423 19.9413 40.2415C19.7559 39.7895 19.6747 39.2977 19.6931 38.8228C19.6931 38.7661 19.7789 38.7554 19.7942 38.8106V38.8121Z" fill="#225E8C"/>
<path d="M40.7718 38.855C40.493 39.5857 39.8633 40.0775 39.3118 40.5923C38.1843 41.5574 36.951 42.3862 35.6304 43.0634C34.9671 43.3943 34.2807 43.6991 33.5362 43.8447C33.3953 43.8723 33.3324 43.6639 33.4718 43.6133C34.7955 43.0511 36.0196 42.2453 37.2222 41.4578C37.8258 41.0565 38.4186 40.6382 38.9962 40.2047C39.5309 39.7711 40.1621 39.359 40.5343 38.7784C40.591 38.6328 40.8147 38.7033 40.7703 38.8565L40.7718 38.855Z" fill="#225E8C"/>
</g>
<rect x="1.5" y="1.5" width="57" height="57" rx="28.5" stroke="#FF8845" stroke-width="3"/>
<defs>
<clipPath id="clip0_1_662">
<rect width="60" height="60" rx="30" fill="white"/>
</clipPath>
</defs>
</svg>
