<svg width="60" height="60" viewBox="0 0 60 60" fill="none" xmlns="http://www.w3.org/2000/svg">
<g clip-path="url(#clip0_1_686)">
<rect width="60" height="60" rx="30" fill="white"/>
<path d="M41.253 56.6384C39.2109 56.6522 39.0745 61.7047 42.0083 61.6266C44.9421 61.5484 51.2079 61.9651 57.2715 52.453C62.2934 44.5755 60.0199 31.5689 53.44 32.842C50.1738 33.4747 49.2378 35.5322 49.2133 37.5299C49.1811 40.099 50.6533 42.8673 50.615 45.5483C50.5338 51.1983 46.2458 56.6032 41.253 56.6369V56.6384Z" fill="#F99C2D"/>
<path d="M43.6904 56.191C42.1125 56.4668 42.0543 56.6323 41.253 56.6384C39.2124 56.6537 39.0745 61.7047 42.0083 61.6265C42.3423 61.6173 44.8992 61.7935 47.2875 60.9938C42.8065 61.4963 42.1079 57.2925 43.6904 56.191Z" fill="#E58230"/>
<path d="M50.6135 45.5483C54.3025 45.8057 54.085 42.9623 55.9157 42.0829C57.748 41.2036 59.6875 42.4307 59.9326 44.1435C60.118 40.5571 59.7288 34.7891 55.9724 33.107C53.3726 31.9427 49.0417 33.7658 49.2117 37.5605C49.3404 40.4422 50.5629 42.8612 50.6135 45.5468V45.5483Z" fill="#CC6017"/>
<path d="M19.4589 46.4093C17.7952 48.6169 17.3126 52.4193 16.732 57.1623C11.5201 52.767 9.00613 45.5376 8.31061 39.6517C8.31061 39.6517 12.5849 48.1083 19.4589 46.4093Z" fill="#E58230"/>
<path d="M25.76 40.626C25.7248 41.1561 25.5762 41.7382 25.3188 42.3281C24.3429 44.5479 21.8044 46.8719 17.9147 46.9302C11.2306 47.0313 8.22792 41.0213 7.76526 37.3813C7.76526 37.3813 7.97821 36.6857 9.25435 36.0362C10.601 35.3514 11.8097 36.0362 11.8097 36.0362C11.8097 36.0362 12.4302 37.3567 15.2797 38.2376C15.8634 38.4184 16.4149 38.544 16.9342 38.6283C17.9836 38.7999 18.909 38.7983 19.7347 38.7263H19.7362C22.0449 38.5226 23.5861 37.7566 24.922 38.5823C25.5455 38.9669 25.8182 39.7221 25.76 40.626Z" fill="#FFAC3D"/>
<path d="M20.4394 45.5054L20.1422 46.6268C19.4574 46.8107 18.7144 46.9179 17.9132 46.9302C11.2291 47.0313 8.22639 41.0213 7.76373 37.3813C9.28347 40.361 10.8109 46.2699 20.4394 45.5054Z" fill="#F99C2D"/>
<path d="M8.92762 30.2748C8.17541 27.3656 9.70127 26.3085 10.7262 26.3085C11.7511 26.3085 12.0146 27.1296 11.5979 28.9282C11.1184 30.9918 14.5056 35.3503 10.5852 37.0462C6.40596 38.8555 4.02371 35.0761 5.25237 31.9141C6.24357 29.3648 8.92915 30.2733 8.92915 30.2733L8.92762 30.2748Z" fill="#CC6017"/>
<path d="M6.50392 30.4311C8.46487 29.3663 12.0206 30.7497 9.98614 33.1933L9.82068 32.7015C11.4814 33.0661 11.1275 35.7073 9.41011 35.5924L9.4959 35.0025C10.1455 35.1649 10.5085 35.8543 10.3645 36.4702C10.1179 37.6406 8.41431 37.5931 7.50738 37.3955C7.01101 37.2684 6.52843 37.0171 6.19446 36.6265C6.09948 36.5146 6.25114 36.3599 6.36451 36.4518C6.54222 36.5958 6.73679 36.7138 6.9436 36.8026C7.53036 37.0937 9.6491 37.1948 9.8023 36.3737C9.87277 35.9999 9.70119 35.6873 9.35649 35.5816L9.44228 34.9918C9.90341 35.0194 10.2282 34.6915 10.2849 34.2473C10.3477 33.8275 10.1409 33.3694 9.70272 33.2867C9.5388 33.2561 9.43156 33.0952 9.46679 32.9328C9.47752 32.8807 9.50356 32.8332 9.53726 32.7949C9.836 32.4671 10.0597 32.0703 10.0214 31.7072C9.87737 30.8248 8.76974 30.5337 7.98536 30.4724C7.5227 30.4449 7.05084 30.5092 6.61269 30.6716C6.45949 30.7283 6.35992 30.5046 6.50545 30.4295L6.50392 30.4311Z" fill="#994110"/>
<path d="M9.62003 33.2668C8.7805 33.0539 7.89348 33.0125 7.0279 33.0003C6.72763 33.0033 6.42583 33.0171 6.13475 33.0707C6.06734 33.083 6.00147 33.0386 5.98921 32.9696C5.97849 32.9129 6.0076 32.8578 6.05815 32.8333C6.35536 32.6893 6.67095 32.6081 6.98654 32.5544C7.77858 32.4258 8.5844 32.4135 9.37491 32.5544C9.54956 32.5912 9.73953 32.6372 9.90038 32.7214C10.2635 32.9237 9.99996 33.4231 9.62003 33.2653V33.2668Z" fill="#994110"/>
<path d="M9.46994 35.5954C8.67024 35.7348 7.87207 35.6184 7.09076 35.4468C6.83338 35.3855 6.5852 35.3181 6.32783 35.2109C6.26348 35.1848 6.23438 35.1113 6.26042 35.047C6.28187 34.9964 6.33242 34.9658 6.38604 34.9704C6.63116 34.9903 6.89466 34.9933 7.15051 35.0041C7.86595 35.0225 8.68097 35.0454 9.38568 34.9887C9.77021 34.9612 9.84681 35.5142 9.47147 35.5954H9.46994Z" fill="#994110"/>
<path d="M11.943 36.0944C11.943 36.4789 11.6443 37.1515 11.059 37.4563C10.3681 37.8163 8.29992 38.1181 7.76526 37.3813C9.357 37.6203 10.9395 37.2388 11.943 36.0944Z" fill="#F99C2D"/>
<path d="M20.4394 45.5054L20.1422 46.6268C19.4574 46.8107 18.7144 46.9179 17.9132 46.9302C11.2291 47.0313 8.22639 41.0213 7.76373 37.3813C9.28347 40.361 10.8109 46.2699 20.4394 45.5054Z" fill="#F99C2D"/>
<path d="M23.1878 37.441C17.1073 46.9118 15.439 57.743 17.691 61.9728C19.2904 64.9801 22.552 67.2352 25.7784 66.2562C25.9347 66.2087 26.0342 66.054 26.0128 65.8916C25.6466 63.0927 28.5498 62.5335 29.8857 62.9012C31.2216 63.2689 33.5287 64.6614 34.2442 65.694C34.9596 66.7281 35.6031 66.7725 37.4568 66.8001C39.8696 66.8353 41.345 66.1827 42.0098 61.6235C42.6747 57.0643 38.8601 45.6295 38.595 40.9324C38.5138 39.4954 38.6364 37.873 38.6364 37.873L23.1893 37.438L23.1878 37.441Z" fill="#FFAB3D"/>
<path d="M24.081 37.9466C22.287 40.1342 16.9005 51.1247 18.3283 56.0256C19.6121 60.4285 22.4402 61.1302 24.922 61.1302C27.9676 61.1302 33.1718 59.54 33.446 50.7264C33.7785 40.0576 36.1178 38.5808 36.1178 38.5808L24.081 37.9466Z" fill="#FFDD99"/>
<path d="M33.0079 64.5297C32.0733 63.7637 30.7742 63.1493 29.8841 62.9042C28.5482 62.535 25.6436 63.0942 26.0097 65.8947C26.0312 66.0555 25.9331 66.2103 25.7753 66.2578C24.7397 63.5048 26.8033 59.4419 33.0079 64.5297Z" fill="#F99C2D"/>
<path d="M40.1025 56.8651C41.1106 58.7878 41.708 63.1923 39.9876 66.2562C41.6713 65.2834 42.4556 60.9111 42.1983 56.8713C42.0818 55.0482 40.1025 56.8651 40.1025 56.8651Z" fill="#F99C2D"/>
<path d="M36.438 46.3817C37.97 48.361 38.6425 51.7115 38.5491 54.489C38.5414 54.6974 38.8846 54.6744 38.8922 54.466C38.9581 52.5281 39.4009 50.4216 42.2856 48.0363C40.8072 46.7846 36.6831 46.8183 36.4395 46.3817H36.438Z" fill="#E58230"/>
<path d="M40.5115 49.6663C38.1201 51.3178 37.2714 57.1639 41.5763 57.1623C45.8811 57.1608 45.5135 54.0386 44.0106 53.9191C44.631 53.1378 43.4254 52.4223 42.644 52.5924C41.2009 49.9099 40.5115 49.6663 40.5115 49.6663Z" fill="#CC6017"/>
<path d="M43.839 54.0263C43.2094 54.4614 42.6624 55.2611 42.1952 55.8892C42.0726 56.0608 41.7907 55.9444 41.8229 55.7391C41.9225 54.9532 42.1155 54.1795 42.5797 53.507C42.7574 53.2726 42.9949 53.0275 43.3733 52.8942C44.0091 52.6751 44.4702 53.5039 43.96 53.9283L43.8405 54.0263H43.839Z" fill="#994110"/>
<path d="M43.9033 52.9248C43.721 53.0122 43.5157 53.0459 43.3135 53.026C41.7233 52.8651 40.824 51.9888 40.3078 50.9608C40.0933 50.5319 40.1791 50.0125 40.5115 49.6678C41.5471 48.5908 42.2825 48.0363 42.2825 48.0363C42.2825 48.0363 39.8267 47.8126 37.6528 47.16C34.5996 46.2423 35.5402 42.8183 36.1162 41.4594C36.1499 41.3798 36.1959 41.2863 36.2495 41.1837C36.4364 40.8282 36.7306 40.3533 37.0201 39.9075C37.469 39.212 37.9056 38.5854 37.9056 38.5854C37.9056 38.5854 38.8202 38.5226 40.2495 38.8811C40.9742 39.0634 41.8321 39.3545 42.7712 39.8187C44.0887 40.4682 45.5655 41.4579 47.0562 42.9623C50.782 46.7218 48.101 50.9164 43.9033 52.9248Z" fill="#FFAC3D"/>
<path d="M42.2825 48.0363C42.2825 48.0363 39.8267 47.8126 37.6528 47.16C37.2714 47.0451 36.9527 46.8919 36.6877 46.708C36.513 46.587 36.3629 46.4537 36.2327 46.3097C36.0121 46.0646 35.8512 45.7904 35.7379 45.4962C35.747 45.4932 35.7562 45.4916 35.7654 45.4886C38.7574 46.3832 39.5387 46.4813 42.1768 47.3024C42.7375 47.4771 42.2825 48.0363 42.2825 48.0363Z" fill="#F99C2D"/>
<path d="M35.0347 40.3242C34.8616 40.747 34.6839 41.2695 34.5107 41.9114L35.0347 40.3242Z" fill="#F99C2D"/>
<path d="M44.2404 40.6231C40.5851 39.5385 37.5579 40.902 34.5107 41.8794C34.6839 41.2375 34.8616 40.7151 35.0347 40.2922C36.7857 39.9797 38.6088 39.5201 40.2496 38.8491C40.9742 39.0314 42.3714 39.4267 44.2404 40.6231Z" fill="#F99C2D"/>
<path d="M22.8217 39.8648C22.6455 40.1773 22.4616 40.5159 22.2747 40.8744C20.6983 39.9889 19.102 39.0283 16.9327 38.5963C17.9821 38.7664 18.9074 38.7648 19.7332 38.6928H19.7347C20.6922 39.1432 21.7523 39.5385 22.8217 39.8648Z" fill="#F99C2D"/>
<path d="M35.0362 40.2907C34.8631 40.7135 34.6854 41.2359 34.5123 41.8778C30.5321 43.1616 25.8565 43.2383 22.2762 40.8744C22.4631 40.5159 22.647 40.1773 22.8232 39.8648C27.1189 40.8284 30.7926 41.0383 35.0362 40.2907Z" fill="#FFAB3D"/>
<path d="M44.1857 40.6231C40.5303 39.5385 37.5031 40.9019 34.456 41.8793C34.6291 41.2374 34.8068 40.715 34.9799 40.2922C36.731 39.9797 38.5541 39.5201 40.1948 38.8491C40.9195 39.0314 42.3166 39.4266 44.1857 40.6231Z" fill="#F99C2D"/>
<path d="M22.7668 39.8648C22.5907 40.1773 22.4068 40.5159 22.2199 40.8744C20.6435 39.9889 19.0472 39.0283 16.8779 38.5963C17.9273 38.7663 18.8526 38.7648 19.6784 38.6928H19.6799C20.6374 39.1432 21.6975 39.5385 22.7668 39.8648Z" fill="#F99C2D"/>
<path d="M34.9799 40.2906C34.8068 40.7135 34.6291 41.2359 34.456 41.8778C30.4759 43.1616 25.8002 43.2382 22.22 40.8743C22.4069 40.5158 22.5907 40.1773 22.7669 39.8647C27.0626 40.8284 30.7363 41.0383 34.9799 40.2906Z" fill="#FFAB3D"/>
<path d="M34.9799 40.2906C34.8068 40.7135 34.6291 41.2359 34.456 41.8778L34.9799 40.2906Z" fill="#F99C2D"/>
<path d="M20.8197 19.4448C19.3031 16.1373 13.7588 12.4436 11.3566 13.827C10.1555 14.5195 9.21797 22.7386 13.3911 25.415C14.9507 26.4154 16.6895 26.5517 16.6895 26.5517L20.8197 19.4448Z" fill="#CC6017"/>
<path d="M16.9239 26.0171C13.3758 25.4135 10.3195 22.3066 11.3168 15.4617C11.3566 15.1905 11.5818 14.9852 11.8545 14.9745C14.0208 14.8857 16.0032 16.8788 17.3038 19.2151C18.4712 21.3124 18.4053 22.754 18.0269 24.0516C17.6547 24.6046 16.9224 26.0171 16.9224 26.0171H16.9239Z" fill="#FF8845"/>
<path d="M17.3038 19.2151C13.3084 17.3935 15.2494 24.8497 17.3881 25.2021C17.7818 24.3763 18.318 23.5215 18.318 23.5215C18.318 23.5215 18.4115 20.3487 17.3038 19.2151Z" fill="#E86531"/>
<path d="M40.2745 19.4357C41.9014 16.1802 47.5652 12.675 49.9199 14.1365C51.098 14.8688 51.7598 23.114 47.4993 25.6509C45.9076 26.5977 44.1657 26.6774 44.1657 26.6774L40.2745 19.4357Z" fill="#CC6017"/>
<path d="M43.9482 26.1335C47.5147 25.6479 50.6721 22.6452 49.9046 15.7711C49.874 15.5 49.6549 15.2855 49.3822 15.2656C47.2205 15.1047 45.1723 17.0304 43.795 19.3223C42.5587 21.3797 42.5755 22.8229 42.9111 24.1327C43.2649 24.698 43.9482 26.1335 43.9482 26.1335Z" fill="#FF8845"/>
<path d="M43.795 19.3223C47.8487 17.634 45.6594 25.0213 43.5116 25.3032C43.1454 24.4652 42.6384 23.5919 42.6384 23.5919C42.6384 23.5919 42.6384 20.4514 43.795 19.3223Z" fill="#E86531"/>
<path d="M28.544 40.9019C25.3927 40.9019 18.9691 39.1401 16.6711 36.6889C14.3563 34.2194 14.3731 32.5526 15.228 29.5039C15.5665 28.2952 16.6297 25.8639 17.7971 23.5935C17.7971 23.5919 17.7987 23.5919 17.7987 23.5904C18.8527 21.5406 19.9909 19.6226 20.7569 18.8581C22.3701 17.2449 27.6524 16.6107 30.0408 16.6107C31.7336 16.6107 34.9493 16.94 37.2932 17.6432C37.2948 17.6432 37.2978 17.6432 37.2994 17.6448C38.3641 17.9649 39.2496 18.3617 39.7276 18.8412C40.8766 19.9902 41.3009 20.8788 42.6384 23.5904C43.6786 25.7015 45.4833 28.6736 45.687 32.0684C46.1619 39.9827 31.7505 40.9019 28.544 40.9019Z" fill="#FFAC3D"/>
<path d="M30.3732 31.1201C31.1392 29.9711 32.9745 31.6349 33.5138 32.2477C34.0531 32.8605 36.276 34.8689 38.2706 34.0187C40.2653 33.1684 42.672 29.0719 43.6142 30.2009C44.5548 31.33 44.7739 40.0624 28.6221 40.0624C20.5409 40.0624 15.9066 35.4817 15.9066 32.2492C15.9066 30.564 16.786 28.6812 17.051 28.6812C17.074 28.885 17.8476 34.2025 20.7538 34.2025C22.3394 34.2025 23.709 32.1634 24.3188 31.2887C25.8278 29.1209 26.6382 30.9685 26.6382 30.9685" fill="#FFDD99"/>
<path d="M28.1549 34.656C27.6034 34.7173 26.4421 35.8893 25.7282 35.8356C26.4421 39.1263 29.6761 39.6181 30.9232 36.381C29.2809 36.6507 29.4203 34.5135 28.1549 34.656Z" fill="#863513"/>
<path d="M27.2296 38.2409C28.3388 38.8935 29.3959 38.5687 30.2201 37.6173C29.3147 36.8238 27.6739 37.0842 27.2296 38.2409Z" fill="#E86531"/>
<path d="M24.1947 33.9559C24.2759 34.5518 24.737 35.1309 25.3192 35.3102C26.269 35.5292 27.6049 35.2382 27.8561 34.2025L28.7738 34.2408C28.8198 35.3469 30.0147 35.4848 30.9523 35.4741C31.4579 35.4649 31.9466 35.3439 32.3403 35.0329C32.7248 34.7372 32.9837 34.2562 33.0343 33.7613C33.0557 33.5775 33.2212 33.4442 33.405 33.4656C33.9428 33.5376 33.641 34.4905 33.523 34.8169C33.1216 35.8264 32.0385 36.4209 30.9875 36.45C30.3119 36.476 29.6333 36.4377 28.9929 36.1282C28.2897 35.8249 27.7887 35.0022 27.8531 34.2408L28.7708 34.2791C28.6206 35.687 27.1943 36.358 25.9473 36.3213C25.3314 36.3366 24.6497 36.1037 24.21 35.6518C23.7627 35.1983 23.4854 34.6223 23.4976 33.9559C23.5022 33.7644 23.66 33.6127 23.85 33.6173C24.04 33.6204 24.1809 33.7751 24.1916 33.9559H24.1947Z" fill="#CC6017"/>
<path d="M28.3142 34.3925C29.668 34.3925 30.7654 33.4665 30.7654 32.3243C30.7654 31.1821 29.668 30.2561 28.3142 30.2561C26.9605 30.2561 25.863 31.1821 25.863 32.3243C25.863 33.4665 26.9605 34.3925 28.3142 34.3925Z" fill="#FF8845"/>
<path d="M30.3732 31.1201C31.5667 29.8547 32.2744 32.1879 35.392 33.8195C39.5728 36.0041 41.7253 29.0994 43.5116 30.1044C43.2404 29.2143 43.029 26.4139 41.4618 24.4361C41.0022 23.8554 39.3415 21.6815 35.9742 22.7509C34.3089 23.2794 32.9301 25.9987 32.2606 27.6532C31.1132 30.4936 30.3717 31.1217 30.3717 31.1217L30.3732 31.1201Z" fill="#CC6017"/>
<path d="M41.3362 27.9581C41.471 29.9849 40.7234 32.2477 37.0466 32.2477C35.0167 32.2477 33.3698 31.1753 33.523 28.5709C33.6425 26.5441 35.055 24.2813 37.5062 24.2813C39.5361 24.2813 41.183 25.6601 41.3362 27.9581Z" fill="#2E2D2C"/>
<path d="M17.051 28.6797C17.2149 26.8275 18.9629 22.1396 22.0453 22.1396C25.1277 22.1396 25.7972 26.6375 26.197 28.9432C26.4008 30.1152 26.5785 30.8643 26.5785 30.8643C26.5785 30.8643 26.3073 30.0968 25.405 30.8888C24.6865 31.5185 22.9017 34.2025 20.7538 34.2025C18.606 34.2025 17.5091 31.4633 17.051 28.6812V28.6797Z" fill="#CC6017"/>
<path d="M25.238 28.0408C25.3514 30.0278 24.7232 32.2477 21.6332 32.2477C19.9266 32.2477 18.5432 31.1952 18.6719 28.6414C18.7715 26.6529 19.9588 24.4345 22.0193 24.4345C23.7259 24.4345 25.1093 25.7873 25.238 28.0408Z" fill="#2E2D2C"/>
<path d="M38.5786 28.4177C39.1708 28.4177 39.651 27.9376 39.651 27.3453C39.651 26.753 39.1708 26.2729 38.5786 26.2729C37.9863 26.2729 37.5062 26.753 37.5062 27.3453C37.5062 27.9376 37.9863 28.4177 38.5786 28.4177Z" fill="#FEF6DC"/>
<path d="M22.9523 28.7241C23.5445 28.7241 24.0247 28.244 24.0247 27.6517C24.0247 27.0595 23.5445 26.5793 22.9523 26.5793C22.36 26.5793 21.8799 27.0595 21.8799 27.6517C21.8799 28.244 22.36 28.7241 22.9523 28.7241Z" fill="#FEF6DC"/>
<path d="M28.3035 32.1941C28.785 32.1941 29.1752 31.9657 29.1752 31.6839C29.1752 31.4022 28.785 31.1738 28.3035 31.1738C27.8221 31.1738 27.4318 31.4022 27.4318 31.6839C27.4318 31.9657 27.8221 32.1941 28.3035 32.1941Z" fill="#FFB58A"/>
<path d="M35.8149 17.2694C31.8776 19.9044 30.0638 24.8267 29.1767 27.8141C29.0465 28.2507 28.4092 28.1925 28.3602 27.739C28.0323 24.7134 27.2035 19.7681 24.8198 17.156C26.8987 16.6704 29.1461 16.6107 30.3885 16.6107C32.9791 16.6107 35.8149 17.2694 35.8149 17.2694Z" fill="#CC6017"/>
<path d="M27.1423 21.5605C26.2062 21.3307 24.9868 21.1086 24.0247 21.1086C21.2916 21.1086 18.773 21.7811 17.6547 23.8738C17.7022 23.7788 17.7496 23.6869 17.7971 23.5935C17.7971 23.5919 17.7987 23.5919 17.7987 23.5904C18.4023 22.4169 19.0335 21.2863 19.6064 20.3901C21.7864 19.5735 24.2453 19.238 26.5249 19.909C26.7578 20.4391 26.9615 20.9952 27.1423 21.5605Z" fill="#F99C2D"/>
<path d="M31.8792 21.5023C31.7153 21.7689 31.5575 22.0385 31.4074 22.3082C29.9351 22.204 28.4981 21.8899 27.1423 21.5605C26.9615 20.9952 26.7578 20.4391 26.5249 19.9091C26.8313 19.9979 27.1331 20.1067 27.4303 20.2338C29.0588 20.9309 30.5448 21.3231 31.8792 21.5023Z" fill="#B54C03"/>
<path d="M37.9413 20.8191C37.6931 20.9815 37.3653 21.1638 36.9424 21.366C35.1071 22.2453 33.2304 22.4368 31.4073 22.3082C31.5575 22.0385 31.7153 21.7689 31.8792 21.5023C34.4928 21.8547 36.5288 21.3951 37.9413 20.8191Z" fill="#F99C2D"/>
<path d="M34.2606 11.0404C34.3145 10.5254 33.8003 10.0495 33.1119 9.9774C32.4236 9.90529 31.8219 10.2643 31.7679 10.7793C31.714 11.2943 32.2282 11.7702 32.9166 11.8423C33.6049 11.9145 34.2067 11.5554 34.2606 11.0404Z" fill="#2271B1"/>
<path d="M19.706 20.2124C19.6018 20.3993 19.107 21.2311 17.6547 23.8738C16.236 23.9612 15.0395 23.7283 14.8128 23.2978C15.4516 22.4583 15.4394 20.3794 19.706 20.2124Z" fill="#234D79"/>
<path d="M33.1753 11.0143C26.125 9.91126 22.6995 13.7857 20.7432 17.7842C20.973 17.7336 14.2414 20.914 14.8128 23.2963C24.0247 17.0733 26.3533 20.9416 32.8765 21.7275C36.7188 22.1902 40.2638 19.4479 40.2745 19.4341C40.4844 19.1354 41.3285 17.8362 41.903 17.2449C40.679 14.426 38.0378 11.6179 33.1753 11.0143Z" fill="#2271B1"/>
<path d="M40.2745 19.4356C40.2745 19.4356 29.6854 14.6267 20.8198 17.7857C23.0611 13.2341 26.2782 10.1181 33.2519 11.0173C38.787 11.7297 40.2761 19.4387 40.2745 19.4372V19.4356Z" fill="#3B8DC4"/>
<path d="M14.8358 23.1936C18.6122 19.909 22.5785 19.0082 27.4517 19.9719C29.6042 20.3901 31.6862 21.2342 33.903 21.2373C36.0753 21.297 38.2538 20.7164 40.0401 19.4464C40.0845 19.4157 40.1443 19.4265 40.1749 19.4709C40.204 19.5123 40.1964 19.5659 40.1596 19.5996C39.3231 20.3503 38.3227 20.9248 37.2519 21.3108C34.5479 22.2974 31.5958 21.893 28.9041 21.0841C25.2349 20.1097 21.2211 19.8708 17.7573 21.6264C16.7676 22.0937 15.8255 22.6743 14.9017 23.2871C14.8756 23.3039 14.8404 23.2978 14.8235 23.2718C14.8082 23.2473 14.8128 23.2151 14.8343 23.1967L14.8358 23.1936Z" fill="#225E8C"/>
<path fill-rule="evenodd" clip-rule="evenodd" d="M30.7011 16.3089L28.2806 16.194C28.0094 16.1817 27.7765 16.0637 27.6249 15.8615C27.4701 15.6562 27.4211 15.3927 27.487 15.1185L28.0063 12.9278C28.1274 12.4099 28.6375 12.004 29.166 12.004C29.1722 12.004 29.1783 12.004 29.186 12.004C29.212 11.9657 29.2457 11.9289 29.284 11.8998C29.3667 11.8431 29.451 11.814 29.5337 11.814C29.5353 11.814 29.5475 11.814 29.5506 11.814C29.6517 11.8186 29.7467 11.8661 29.8034 11.9427C29.8248 11.9718 29.8401 12.0024 29.8508 12.0346L31.0351 12.0913C31.0611 12.053 31.0933 12.0178 31.1301 11.9886C31.2036 11.9335 31.2955 11.9013 31.3813 11.9013C31.3844 11.9013 31.3966 11.9013 31.3982 11.9013C31.5008 11.9059 31.5958 11.9549 31.6525 12.0331C31.6739 12.0622 31.6892 12.0928 31.7 12.1235C31.9435 12.1495 32.1534 12.2644 32.2928 12.4498C32.4476 12.6551 32.4966 12.9186 32.4323 13.1928L31.9129 15.3851C31.7903 15.9029 31.2802 16.3089 30.7517 16.3089C30.7517 16.3089 30.7195 16.3089 30.7026 16.3089H30.7011ZM28.3541 15.0174C28.3296 15.12 28.3464 15.2165 28.4001 15.2885C28.4521 15.3575 28.5364 15.3989 28.636 15.4034L30.6276 15.4984C30.7348 15.4984 30.8451 15.4586 30.9355 15.3881C31.0381 15.31 31.1086 15.2058 31.1347 15.094C31.1377 15.0802 31.1423 15.0679 31.1484 15.0572L31.3721 14.1074C31.3752 14.0936 31.3767 14.0737 31.366 14.0584C31.3599 14.0522 31.3461 14.0461 31.3246 14.0446L29.5429 13.9603C29.4403 13.9542 29.3484 13.9067 29.2886 13.8286C29.2289 13.7489 29.2089 13.6463 29.2319 13.5436C29.2763 13.3582 29.4525 13.2188 29.641 13.2188C29.6425 13.2188 29.6547 13.2188 29.6578 13.2188L31.5559 13.3092L31.5958 13.1407C31.6096 13.081 31.6019 13.0258 31.5713 12.986C31.559 12.9691 31.5437 12.9569 31.5253 12.9461C31.4533 13.0442 31.3369 13.107 31.2143 13.107C31.2113 13.107 31.1484 13.107 31.1484 13.107C31.0489 13.1024 30.9631 13.0564 30.9079 12.9844C30.8865 12.9569 30.8712 12.9262 30.862 12.8925L29.6885 12.8358C29.6195 12.9446 29.4939 13.0212 29.3606 13.0212C29.3575 13.0212 29.2917 13.0181 29.2917 13.0181C29.1967 13.0135 29.1109 12.9691 29.0557 12.8971C29.042 12.8787 29.0297 12.8588 29.0205 12.8374C28.9914 12.8481 28.9653 12.8634 28.9393 12.8833C28.878 12.9308 28.8305 12.9982 28.8152 13.0672L28.5441 14.2131C28.541 14.2238 28.5379 14.2468 28.5486 14.2606C28.5517 14.2636 28.5594 14.2759 28.5915 14.2774L30.3733 14.3617C30.4744 14.3663 30.5663 14.4138 30.626 14.4919C30.6858 14.5716 30.7072 14.6758 30.6827 14.7769C30.6383 14.9653 30.4667 15.1016 30.2767 15.1016C30.2737 15.1016 30.2584 15.1016 30.2553 15.1016L28.3526 15.0113V15.0205L28.3541 15.0174Z" fill="#FF8845"/>
<path d="M29.5306 11.9703C29.5306 11.9703 29.5368 11.9703 29.5398 11.9703C29.5965 11.9733 29.6486 11.9994 29.6777 12.0377C29.7068 12.0775 29.7206 12.1265 29.7053 12.1832L31.1254 12.2506C31.1392 12.1985 31.1744 12.148 31.2204 12.1112C31.2648 12.0775 31.3231 12.0561 31.3782 12.0561C31.3813 12.0561 31.3843 12.0561 31.3874 12.0561C31.4441 12.0591 31.4962 12.0852 31.5253 12.125C31.5544 12.1648 31.5666 12.2123 31.5528 12.269L31.6249 12.2736C32.0967 12.2966 32.3878 12.6918 32.279 13.1591L31.7597 15.3514C31.6524 15.8048 31.2051 16.1572 30.7485 16.1572C30.7348 16.1572 30.721 16.1572 30.7072 16.1572L28.2866 16.0423C27.8148 16.0193 27.5237 15.6241 27.634 15.1553L28.1534 12.9645C28.2606 12.5111 28.7064 12.1587 29.1629 12.1587C29.1767 12.1587 29.1905 12.1587 29.2043 12.1587L29.2763 12.1618C29.2901 12.1097 29.3253 12.0591 29.3728 12.0239C29.4218 11.9902 29.4755 11.9687 29.5291 11.9687M30.2813 14.9454C30.2813 14.9454 30.2721 14.9454 30.269 14.9454L28.2683 14.8504C28.2529 14.8504 28.2315 14.8826 28.2315 14.8826L28.207 14.9822C28.135 15.2855 28.3265 15.5413 28.6298 15.5567L30.6015 15.6501C30.6107 15.6501 30.6199 15.6501 30.6275 15.6501C30.7669 15.6501 30.9094 15.6011 31.0304 15.5076C31.1607 15.4081 31.2495 15.2748 31.2847 15.1277H31.2893L31.5222 14.1411C31.536 14.0798 31.5268 14.0185 31.4916 13.968C31.4548 13.919 31.3981 13.8929 31.3307 13.8899L29.549 13.8056C29.4295 13.7995 29.3529 13.6953 29.3805 13.5773C29.4081 13.4594 29.5245 13.3705 29.6409 13.3705C29.644 13.3705 29.6471 13.3705 29.6516 13.3705L31.6494 13.4655C31.6631 13.4655 31.6846 13.4333 31.6846 13.4333L31.7474 13.1744C31.798 12.9615 31.6662 12.7792 31.4487 12.7684H31.4441V12.773C31.4196 12.8726 31.32 12.9523 31.2189 12.9523C31.2158 12.9523 31.2127 12.9523 31.2097 12.9523H31.1561C31.0519 12.9461 30.986 12.8573 31.0105 12.7531C31.0105 12.7439 31.0029 12.7439 31.0029 12.7439L29.6026 12.6765C29.5934 12.6765 29.5904 12.6857 29.5904 12.6857C29.5659 12.7853 29.4663 12.8665 29.3652 12.8665C29.3621 12.8665 29.359 12.8665 29.356 12.8665L29.3039 12.8634C29.1982 12.8588 29.1338 12.77 29.1568 12.6643V12.6597H29.1538C29.1538 12.6597 29.14 12.6597 29.1338 12.6597C29.0343 12.6597 28.9331 12.6964 28.8504 12.7592C28.7616 12.8267 28.6957 12.9247 28.6712 13.0273L28.4 14.1748C28.3862 14.2376 28.3954 14.2989 28.4306 14.3479C28.4674 14.3985 28.5241 14.4245 28.5915 14.4276L30.3732 14.5118C30.4927 14.5164 30.5693 14.6221 30.5417 14.7401C30.5142 14.8596 30.4023 14.9469 30.2844 14.9469M29.5306 11.6639C29.4173 11.6639 29.3024 11.7022 29.1997 11.7726C29.1966 11.7742 29.1936 11.7772 29.1905 11.7788C29.1614 11.8018 29.1338 11.8263 29.1093 11.8523C28.5241 11.8784 27.991 12.3165 27.8562 12.8925L27.3368 15.0817C27.2617 15.3958 27.323 15.7145 27.5023 15.9519C27.6815 16.1894 27.9557 16.3288 28.2729 16.3441L30.6934 16.459C30.7118 16.459 30.7317 16.459 30.7501 16.459C31.3552 16.459 31.919 16.0117 32.0599 15.4173L32.5793 13.225C32.6528 12.9094 32.5931 12.5938 32.4138 12.3548C32.2652 12.1587 32.0523 12.0285 31.8041 11.981C31.7949 11.9672 31.7857 11.9519 31.7765 11.9381C31.6923 11.8232 31.5544 11.7512 31.4058 11.7451C31.3966 11.7451 31.3889 11.7451 31.3813 11.7451C31.2602 11.7451 31.1392 11.7864 31.0396 11.8615C31.0121 11.8829 30.9875 11.9059 30.9646 11.9304L29.9489 11.8829C29.9427 11.8722 29.9351 11.8615 29.9274 11.8508C29.8401 11.7359 29.7022 11.6654 29.5567 11.6577C29.549 11.6577 29.5413 11.6577 29.5321 11.6577L29.5306 11.6639ZM29.6777 13.0641C29.7083 13.0427 29.7359 13.0166 29.7604 12.989L30.7639 13.0381C30.7715 13.0503 30.7792 13.061 30.7868 13.0733C30.7991 13.0902 30.8129 13.1055 30.8267 13.1193L29.6762 13.0641H29.6777ZM28.7233 14.1258L28.9668 13.0963C28.9714 13.0794 28.9791 13.0626 28.9914 13.0457C29.071 13.1177 29.1737 13.1606 29.2855 13.1668H29.3131C29.2012 13.248 29.117 13.3659 29.0833 13.5038C29.0496 13.6509 29.0787 13.801 29.166 13.9159C29.2518 14.0308 29.3851 14.1013 29.5321 14.1089L31.1944 14.1886L31.0013 15.0051C30.9937 15.022 30.9875 15.0388 30.9829 15.0572C30.9646 15.1338 30.914 15.2074 30.8405 15.2641C30.7746 15.3161 30.698 15.3437 30.6245 15.3437H30.6122L28.6405 15.2503C28.6022 15.2487 28.5517 15.238 28.521 15.1966C28.5149 15.189 28.5103 15.1798 28.5057 15.1691L30.2507 15.2518C30.2583 15.2518 30.2675 15.2518 30.2782 15.2518C30.5387 15.2518 30.7731 15.0649 30.8328 14.8091C30.8681 14.6635 30.8374 14.5118 30.7485 14.3969C30.6612 14.282 30.5279 14.2116 30.3793 14.2054L28.7202 14.1273L28.7233 14.1258Z" fill="#2271B1"/>
<path fill-rule="evenodd" clip-rule="evenodd" d="M30.6597 16.102L28.2392 15.9871C27.991 15.9749 27.778 15.8676 27.6402 15.6853C27.4992 15.4984 27.4548 15.2579 27.5145 15.0051L28.0339 12.8144C28.1472 12.3287 28.6237 11.9503 29.1185 11.9503C29.1339 11.9503 29.1798 11.9519 29.1798 11.9519C29.2028 11.9059 29.238 11.8646 29.2825 11.8308C29.3499 11.7849 29.4188 11.7604 29.4862 11.7604C29.5781 11.765 29.6501 11.8002 29.6946 11.8584C29.7221 11.8952 29.7375 11.935 29.7421 11.9779L31.0289 12.0392C31.0519 11.9932 31.0871 11.9519 31.1285 11.9182C31.1882 11.8737 31.2633 11.8477 31.3338 11.8477C31.4272 11.8523 31.4992 11.8891 31.5437 11.9488C31.5697 11.984 31.585 12.0239 31.5896 12.0668C31.8363 12.079 32.0462 12.1863 32.1825 12.367C32.3235 12.5539 32.3679 12.7945 32.3081 13.0457L31.7888 15.238C31.6739 15.7236 31.1959 16.102 30.7026 16.102C30.7026 16.102 30.672 16.102 30.6566 16.102H30.6597ZM28.2361 14.8688C28.207 14.9944 28.2284 15.1124 28.2959 15.2028C28.3617 15.2901 28.4659 15.3422 28.5885 15.3483L30.5601 15.4417H30.5831C30.7072 15.4417 30.8328 15.3973 30.9385 15.3161C31.055 15.2273 31.1346 15.1078 31.1653 14.9791C31.1668 14.9699 31.1714 14.9607 31.176 14.953L31.4027 13.991C31.4119 13.9496 31.4058 13.9098 31.3843 13.8791C31.3568 13.8439 31.3139 13.8347 31.2832 13.8332L29.5015 13.7489C29.4219 13.7443 29.3499 13.7075 29.3054 13.6478C29.2595 13.5865 29.2442 13.5053 29.2625 13.4272C29.2993 13.2755 29.4433 13.1621 29.598 13.1621L31.5728 13.2556L31.6279 13.0243C31.6478 12.9415 31.6341 12.8634 31.5896 12.8052C31.5559 12.7608 31.5069 12.7317 31.4487 12.7179C31.3966 12.822 31.2863 12.8956 31.1714 12.8956H31.1071C31.032 12.8895 30.9676 12.8573 30.9263 12.8021C30.9002 12.7684 30.8849 12.7271 30.8818 12.6826L29.5996 12.6214C29.5505 12.7286 29.4356 12.8083 29.3162 12.8083L29.2503 12.8052C29.1767 12.8021 29.1139 12.7684 29.0726 12.7148C29.0496 12.6842 29.0343 12.6474 29.0281 12.6076C28.9653 12.6183 28.901 12.6459 28.8489 12.6872C28.7723 12.7454 28.7171 12.8282 28.6957 12.914L28.4245 14.0614C28.4153 14.1028 28.4215 14.1426 28.4429 14.1717C28.4644 14.2024 28.4996 14.2177 28.544 14.2192L30.3257 14.3035C30.4039 14.3065 30.4759 14.3433 30.5218 14.4046C30.5678 14.4659 30.5846 14.5471 30.5647 14.6267C30.5295 14.7784 30.3855 14.8918 30.2323 14.8918L28.2484 14.7983L28.2315 14.8688H28.2361Z" fill="#FF8845"/>
<path d="M29.4862 11.8385C29.4862 11.8385 29.4923 11.8385 29.4954 11.8385C29.5521 11.8416 29.6042 11.8676 29.6333 11.9059C29.6624 11.9457 29.6762 11.9948 29.6608 12.0515L31.081 12.1189C31.0948 12.0668 31.13 12.0162 31.176 11.9795C31.2204 11.9457 31.2786 11.9243 31.3338 11.9243C31.3368 11.9243 31.3399 11.9243 31.343 11.9243C31.3997 11.9274 31.4517 11.9534 31.4809 11.9932C31.51 12.0331 31.5222 12.0806 31.5084 12.1372L31.5804 12.1418C32.0523 12.1648 32.3434 12.5601 32.2346 13.0273L31.7152 15.2196C31.608 15.6731 31.1607 16.0254 30.7041 16.0254C30.6903 16.0254 30.6766 16.0254 30.6628 16.0254L28.2422 15.9105C27.7704 15.8876 27.4793 15.4923 27.5896 15.0235L28.1089 12.8328C28.2162 12.3793 28.662 12.0269 29.1185 12.0269C29.1323 12.0269 29.1461 12.0269 29.1599 12.0269L29.2319 12.03C29.2457 11.9779 29.2809 11.9274 29.3284 11.8921C29.3774 11.8584 29.431 11.837 29.4847 11.837M30.2353 14.8152C30.2353 14.8152 30.2262 14.8152 30.2231 14.8152L28.2223 14.7202C28.207 14.7202 28.1855 14.7524 28.1855 14.7524L28.161 14.8519C28.089 15.1553 28.2805 15.4111 28.5839 15.4264L30.5555 15.5199C30.5647 15.5199 30.5739 15.5199 30.5816 15.5199C30.721 15.5199 30.8635 15.4709 30.9845 15.3774C31.1147 15.2778 31.2036 15.1445 31.2388 14.9975H31.2434L31.4763 14.0109C31.49 13.9496 31.4809 13.8883 31.4456 13.8378C31.4089 13.7887 31.3522 13.7627 31.2848 13.7596L29.503 13.6754C29.3836 13.6692 29.307 13.5651 29.3345 13.4471C29.3621 13.3291 29.4785 13.2403 29.595 13.2403C29.598 13.2403 29.6011 13.2403 29.6057 13.2403L31.6034 13.3353C31.6172 13.3353 31.6386 13.3031 31.6386 13.3031L31.7015 13.0442C31.752 12.8312 31.6203 12.6489 31.4027 12.6382H31.3981V12.6428C31.3736 12.7424 31.274 12.822 31.1729 12.822C31.1699 12.822 31.1668 12.822 31.1637 12.822H31.1101C31.0059 12.8159 30.9401 12.7271 30.9646 12.6229C30.9646 12.6137 30.9569 12.6137 30.9569 12.6137L29.5567 12.5463C29.5475 12.5463 29.5444 12.5555 29.5444 12.5555C29.5199 12.6551 29.4203 12.7363 29.3192 12.7363C29.3162 12.7363 29.3131 12.7363 29.31 12.7363L29.2579 12.7332C29.1522 12.7286 29.0879 12.6397 29.1109 12.534V12.5294H29.1078C29.1078 12.5294 29.094 12.5294 29.0879 12.5294C28.9883 12.5294 28.8872 12.5662 28.8045 12.629C28.7156 12.6964 28.6497 12.7945 28.6252 12.8971L28.3541 14.0446C28.3403 14.1074 28.3495 14.1687 28.3847 14.2177C28.4215 14.2682 28.4781 14.2943 28.5456 14.2974L30.3273 14.3816C30.4468 14.3862 30.5234 14.4919 30.4958 14.6099C30.4682 14.7294 30.3564 14.8167 30.2384 14.8167M29.4862 11.6853C29.4035 11.6853 29.3192 11.7129 29.2426 11.7665C29.2013 11.7971 29.166 11.8339 29.14 11.8737C29.1338 11.8737 29.1262 11.8737 29.1201 11.8737C28.5915 11.8737 28.0829 12.2797 27.9603 12.7975L27.441 14.9883C27.3767 15.2625 27.4257 15.526 27.5789 15.7313C27.7305 15.932 27.9634 16.05 28.2346 16.0637L30.6551 16.1786C30.672 16.1786 30.6873 16.1786 30.7041 16.1786C31.2311 16.1786 31.7413 15.7727 31.8639 15.2548L32.3832 13.0626C32.4475 12.7883 32.3985 12.5248 32.2438 12.3196C32.1044 12.1342 31.896 12.0208 31.6524 11.9932C31.6417 11.9611 31.6264 11.9304 31.6049 11.9029C31.5483 11.8263 31.4533 11.7757 31.3506 11.7711H31.3338C31.2465 11.7711 31.1561 11.8017 31.0841 11.8554C31.0458 11.8845 31.0136 11.9197 30.9875 11.9595L29.8033 11.9029C29.7926 11.8707 29.7773 11.8416 29.7574 11.814C29.6991 11.7359 29.6042 11.6884 29.503 11.6838C29.4969 11.6838 29.4923 11.6838 29.4862 11.6838V11.6853ZM29.3177 12.8864C29.4494 12.8864 29.5751 12.8113 29.644 12.701L30.819 12.7577C30.8298 12.7899 30.8451 12.822 30.865 12.8496C30.9201 12.9232 31.0059 12.9676 31.1009 12.9722H31.1576C31.1576 12.9722 31.1653 12.9737 31.1714 12.9737C31.2939 12.9737 31.4104 12.9094 31.4824 12.8129C31.5008 12.8236 31.5161 12.8358 31.5283 12.8527C31.559 12.8925 31.5666 12.9477 31.5529 13.0074L31.513 13.1759L29.6149 13.0855H29.598C29.4096 13.0855 29.2334 13.225 29.189 13.4088C29.1645 13.5114 29.1859 13.6141 29.2457 13.6937C29.3039 13.7719 29.3958 13.8209 29.4985 13.8255L31.2817 13.9098C31.3047 13.9098 31.3185 13.9159 31.3277 13.9266C31.3368 13.9389 31.3353 13.9588 31.3307 13.9726L31.1055 14.9239C31.0994 14.9347 31.0948 14.9469 31.0917 14.9592C31.0657 15.071 30.9952 15.1752 30.8941 15.2518C30.8022 15.3238 30.6919 15.3621 30.5846 15.3621C30.5785 15.3621 30.5709 15.3621 30.5647 15.3621L28.5931 15.2686C28.4935 15.264 28.4107 15.2227 28.3571 15.1537C28.3035 15.0817 28.2867 14.9852 28.3112 14.8826V14.8734L30.217 14.9638C30.2231 14.9638 30.2308 14.9638 30.2369 14.9638C30.4284 14.9638 30.5984 14.8274 30.6429 14.639C30.6674 14.5379 30.6459 14.4337 30.5862 14.354C30.5264 14.2759 30.4345 14.2284 30.3334 14.2238L28.5532 14.1396C28.5211 14.1396 28.5119 14.1258 28.5088 14.1227C28.4981 14.1089 28.5011 14.0875 28.5042 14.0752L28.7754 12.9278C28.7922 12.8603 28.8382 12.7929 28.8995 12.7454C28.924 12.7255 28.9531 12.7102 28.9806 12.6995C28.9898 12.7209 29.0021 12.7409 29.0159 12.7592C29.071 12.8312 29.1568 12.8757 29.2518 12.8803L29.3039 12.8833C29.3039 12.8833 29.3162 12.8833 29.3208 12.8833L29.3177 12.8864Z" fill="white"/>
<path fill-rule="evenodd" clip-rule="evenodd" d="M31.703 13.0427L31.6402 13.3016C31.6402 13.3016 31.6188 13.3353 31.605 13.3338L29.6073 13.2388C29.4878 13.2342 29.3667 13.323 29.3376 13.4456C29.31 13.5651 29.3866 13.6677 29.5061 13.6739L31.2878 13.7581C31.3537 13.7612 31.4104 13.7872 31.4487 13.8362C31.4839 13.8868 31.4931 13.9481 31.4793 14.0094L31.2465 14.996H31.2419C31.2082 15.143 31.1178 15.2763 30.9876 15.3759C30.8589 15.4755 30.7072 15.5245 30.5586 15.5168L28.5869 15.4234C28.2821 15.4081 28.0921 15.1522 28.1641 14.8489L28.1886 14.7493C28.1886 14.7493 28.2116 14.7171 28.2254 14.7171L30.2262 14.8121C30.3487 14.8183 30.4667 14.7294 30.4958 14.6053C30.5234 14.4873 30.4468 14.3832 30.3273 14.377L28.5456 14.2928C28.4797 14.2897 28.423 14.2637 28.3847 14.2131C28.3495 14.1641 28.3403 14.1013 28.3541 14.04L28.6252 12.8925C28.6498 12.7899 28.7172 12.6918 28.8045 12.6244C28.8918 12.557 29.0021 12.5203 29.1078 12.5249H29.1124V12.5295C29.0879 12.6336 29.1522 12.7225 29.258 12.7286L29.31 12.7317C29.4142 12.7363 29.5199 12.6551 29.546 12.5524C29.546 12.5524 29.549 12.5432 29.5582 12.5432L30.9585 12.6107C30.9585 12.6107 30.9677 12.6107 30.9661 12.6198C30.9416 12.724 31.0075 12.8129 31.1117 12.819H31.1653C31.2695 12.8251 31.3752 12.7455 31.3997 12.6413V12.6367H31.4058C31.6249 12.6474 31.7551 12.8297 31.7046 13.0427H31.703Z" fill="white"/>
<path d="M44.2164 40.6231C40.561 39.5385 37.5338 40.9019 34.4867 41.8793C34.6598 41.2374 34.8375 40.715 35.0106 40.2922C36.7617 39.9797 38.5848 39.5201 40.2255 38.8491C40.9502 39.0314 42.3473 39.4266 44.2164 40.6231Z" fill="#F99C2D"/>
<path d="M22.7975 39.8647C22.6214 40.1773 22.4375 40.5158 22.2506 40.8743C20.6742 39.9888 19.0779 39.0283 16.9086 38.5963C17.958 38.7663 18.8833 38.7648 19.709 38.6928H19.7106C20.6681 39.1432 21.7282 39.5384 22.7975 39.8647Z" fill="#F99C2D"/>
<path d="M35.0106 40.2906C34.8374 40.7135 34.6597 41.2359 34.4866 41.8778C30.5065 43.1616 25.8309 43.2382 22.2506 40.8743C22.4375 40.5158 22.6214 40.1773 22.7975 39.8647C27.0932 40.8284 30.7669 41.0383 35.0106 40.2906Z" fill="#FFAB3D"/>
<path d="M47.4932 37.1455C46.6644 38.3006 45.5277 40.0517 43.5591 40.2968C43.2573 40.1191 42.9616 39.9613 42.6736 39.8188C41.8111 39.3929 41.0175 39.1126 40.3342 38.9287C40.394 38.8598 40.4507 38.7954 40.5043 38.7342C41.952 38.1045 43.2373 37.3017 44.1627 36.2768C45.0957 36.1512 46.2232 36.3259 47.4932 37.1455Z" fill="#2271B1"/>
<path d="M40.5364 39.1738C41.5414 38.0723 42.9922 37.3508 44.8107 38.0264C42.6674 40.1344 40.5364 39.1738 40.5364 39.1738Z" fill="#225E8C"/>
<path d="M42.2554 39.1968C42.2554 39.3347 42.2339 39.468 42.191 39.5921C41.4511 39.2612 40.7709 39.039 40.178 38.8874L40.1826 38.869C40.7034 38.656 41.2044 38.4216 41.6793 38.1612C42.021 38.3527 42.2554 38.7449 42.2554 39.1968Z" fill="#234D79"/>
<path d="M34.8421 40.5633C34.4223 41.674 33.9796 43.3776 33.6793 45.9667C31.7842 46.9242 28.2316 48.6614 26.983 49.1777C26.7578 49.2712 26.5019 49.2252 26.3181 49.0659C24.4767 47.4634 22.7363 46.149 21.6409 43.7192C21.4847 43.373 21.3514 43.0697 21.2411 42.8046C21.7313 41.7537 22.2216 40.7962 22.6689 39.9965C24.9684 40.7303 27.412 41.2236 28.9087 41.2236C29.8325 41.2236 32.1795 41.0168 34.8421 40.5633Z" fill="#FFAB3D"/>
<path d="M20.0446 39.013C20.8489 39.3684 21.7466 39.7024 22.6689 39.9965C22.2215 40.7962 21.7313 41.7537 21.241 42.8046C20.4015 40.8054 20.7493 40.977 20.7493 40.977C20.7493 40.977 20.0492 40.3029 20.0446 39.013Z" fill="#FFAB3D"/>
<path d="M44.1029 40.6292C41.1355 39.7606 42.5495 40.6277 34.7685 45.4014C34.5801 45.5163 34.1863 45.7093 33.6793 45.9667C33.9795 43.3776 34.4223 41.674 34.842 40.5633C36.8719 40.2186 39.0841 39.7315 40.9899 39.0834C41.7605 39.3163 43.5591 40.2968 44.1029 40.6292Z" fill="#F99C2D"/>
<path d="M26.5034 48.8392C26.292 48.902 26.0653 48.8514 25.8983 48.7059C24.0507 47.1003 22.3333 45.8732 21.2334 43.4312C19.8959 40.4684 20.3417 40.689 20.3417 40.689C20.3417 40.689 19.6416 40.0164 19.637 38.7265C22.4513 39.9705 26.4038 40.9356 28.5011 40.9356C30.4376 40.9356 36.4568 40.6001 40.8183 38.5932C42.6046 41.2818 30.266 47.7085 26.5034 48.8392Z" fill="#2271B1"/>
<path d="M39.6602 39.7682C37.2396 41.3324 32.0446 42.1566 28.2621 42.1566C24.4797 42.1566 21.719 40.4837 19.9097 38.8521C22.8466 40.0394 26.3043 40.9356 28.5027 40.9356C30.7011 40.9356 34.2859 40.9356 40.8199 38.5932C40.8827 38.9394 40.3021 39.3531 39.6602 39.7682Z" fill="#225E8C"/>
<path d="M19.7611 38.8138C20.3203 40.5664 21.7251 41.7721 23.1346 42.8598C23.2035 42.9088 23.2204 43.0053 23.1667 43.0728C23.1269 43.1233 23.061 43.1417 23.0044 43.1218C22.5402 42.9686 22.125 42.7357 21.7313 42.4584C20.9454 41.9023 20.2759 41.144 19.9082 40.2432C19.7228 39.7912 19.6416 39.2995 19.66 38.8245C19.66 38.7679 19.7458 38.7571 19.7611 38.8123V38.8138Z" fill="#225E8C"/>
<path d="M40.7387 38.8567C40.4598 39.5875 39.8302 40.0792 39.2787 40.594C38.1511 41.5591 36.9179 42.3879 35.5973 43.0651C34.934 43.396 34.2476 43.7009 33.5031 43.8464C33.3621 43.874 33.2993 43.6656 33.4387 43.6151C34.7624 43.0528 35.9864 42.247 37.1891 41.4596C37.7927 41.0582 38.3855 40.64 38.9631 40.2064C39.4978 39.7728 40.1289 39.3607 40.5012 38.7801C40.5579 38.6346 40.7816 38.7035 40.7371 38.8582L40.7387 38.8567Z" fill="#225E8C"/>
</g>
<rect x="1.5" y="1.5" width="57" height="57" rx="28.5" stroke="#FF8845" stroke-width="3"/>
<defs>
<clipPath id="clip0_1_686">
<rect width="60" height="60" rx="30" fill="white"/>
</clipPath>
</defs>
</svg>
