<svg width="60" height="60" viewBox="0 0 60 60" fill="none" xmlns="http://www.w3.org/2000/svg">
<g clip-path="url(#clip0_1_657)">
<rect width="60" height="60" rx="30" fill="white"/>
<path d="M41.253 56.6384C39.2109 56.6522 39.0745 61.7047 42.0083 61.6266C44.9421 61.5484 51.2079 61.9651 57.2715 52.453C62.2934 44.5755 60.0199 31.5689 53.44 32.842C50.1738 33.4747 49.2378 35.5322 49.2133 37.5299C49.1811 40.099 50.6533 42.8673 50.615 45.5483C50.5338 51.1983 46.2458 56.6032 41.253 56.6369V56.6384Z" fill="#F99C2D"/>
<path d="M43.6904 56.191C42.1125 56.4668 42.0543 56.6323 41.253 56.6384C39.2124 56.6537 39.0745 61.7047 42.0083 61.6265C42.3423 61.6173 44.8992 61.7935 47.2875 60.9938C42.8065 61.4963 42.1079 57.2925 43.6904 56.191Z" fill="#E58230"/>
<path d="M50.6135 45.5483C54.3025 45.8057 54.085 42.9623 55.9157 42.0829C57.748 41.2036 59.6875 42.4307 59.9326 44.1435C60.118 40.5571 59.7288 34.7891 55.9724 33.107C53.3726 31.9427 49.0417 33.7658 49.2117 37.5605C49.3404 40.4422 50.5629 42.8612 50.6135 45.5468V45.5483Z" fill="#CC6017"/>
<path d="M19.4589 46.4093C17.7952 48.6169 17.3126 52.4193 16.732 57.1623C11.5202 52.767 9.00615 45.5376 8.31063 39.6517C8.31063 39.6517 12.5849 48.1083 19.4589 46.4093Z" fill="#E58230"/>
<path d="M25.76 40.626C25.7248 41.1561 25.5762 41.7382 25.3188 42.3281C24.3429 44.5479 21.8044 46.8719 17.9147 46.9302C11.2306 47.0313 8.2279 41.0213 7.76524 37.3813C7.76524 37.3813 7.97819 36.6857 9.25434 36.0362C10.601 35.3514 11.8097 36.0362 11.8097 36.0362C11.8097 36.0362 12.4302 37.3567 15.2797 38.2376C15.8633 38.4184 16.4149 38.544 16.9342 38.6283C17.9836 38.7999 18.9089 38.7983 19.7347 38.7263H19.7362C22.0449 38.5226 23.5861 37.7566 24.922 38.5823C25.5455 38.9669 25.8182 39.7221 25.76 40.626Z" fill="#FFAC3D"/>
<path d="M20.4394 45.5054L20.1422 46.6268C19.4574 46.8107 18.7144 46.9179 17.9132 46.9302C11.2291 47.0313 8.22641 41.0213 7.76375 37.3813C9.28348 40.361 10.8109 46.2699 20.4394 45.5054Z" fill="#F99C2D"/>
<path d="M14.6183 32.0219C14.2736 30.4562 12.331 31.5179 11.6248 32.1659C11.0748 32.6607 11.539 29.079 11.3015 28.5443C11.1345 27.8243 10.5432 27.1211 9.72662 27.2835C8.25285 27.5776 8.67721 30.7228 8.51482 30.8331C7.71359 30.1774 6.2582 27.0828 4.92384 28.1935C3.58948 29.3042 5.64081 31.406 6.24748 32.4708C6.30723 32.5749 6.04219 32.434 5.94721 32.3589C3.78404 30.5481 2.24286 32.074 4.23291 34.084C4.77983 34.6355 5.38343 34.9388 5.82005 35.4536C6.54928 36.3115 7.2494 37.5263 8.6864 37.4222C10.4589 37.5018 11.9802 36.6654 12.6665 34.5956C12.9469 33.75 14.8741 33.5723 14.6183 32.0234V32.0219Z" fill="#CC6017"/>
<path d="M11.1284 32.745C10.4283 33.0299 9.92885 33.5386 9.65156 34.2325C9.55657 34.4593 9.47844 34.6998 9.40031 34.951C9.3283 35.1977 8.95297 35.1655 8.92233 34.9127C8.73236 33.6764 9.78177 32.3114 11.084 32.4371C11.2494 32.4493 11.2831 32.6868 11.1284 32.745Z" fill="#994110"/>
<path d="M11.943 36.0944C11.943 36.4789 11.6442 37.1515 11.059 37.4563C10.3681 37.8163 8.29991 38.1181 7.76524 37.3813C9.35698 37.6203 10.9395 37.2388 11.943 36.0944Z" fill="#F99C2D"/>
<path d="M20.4394 45.5054L20.1422 46.6268C19.4574 46.8107 18.7144 46.9179 17.9132 46.9302C11.2291 47.0313 8.22641 41.0213 7.76375 37.3813C9.28348 40.361 10.8109 46.2699 20.4394 45.5054Z" fill="#F99C2D"/>
<path d="M23.1878 37.441C17.1073 46.9118 15.439 57.743 17.691 61.9728C19.2904 64.9801 22.552 67.2352 25.7784 66.2562C25.9347 66.2087 26.0342 66.054 26.0128 65.8916C25.6466 63.0927 28.5498 62.5335 29.8857 62.9012C31.2216 63.2689 33.5287 64.6614 34.2442 65.694C34.9596 66.7281 35.6031 66.7725 37.4568 66.8001C39.8696 66.8353 41.345 66.1827 42.0098 61.6235C42.6747 57.0643 38.8601 45.6295 38.595 40.9324C38.5138 39.4954 38.6364 37.873 38.6364 37.873L23.1893 37.438L23.1878 37.441Z" fill="#FFAB3D"/>
<path d="M24.0809 37.9466C22.287 40.1342 16.9005 51.1247 18.3283 56.0256C19.6121 60.4285 22.4402 61.1302 24.922 61.1302C27.9676 61.1302 33.1718 59.54 33.446 50.7264C33.7784 40.0576 36.1178 38.5808 36.1178 38.5808L24.0809 37.9466Z" fill="#FFDD99"/>
<path d="M33.0079 64.5297C32.0733 63.7637 30.7742 63.1493 29.8841 62.9042C28.5482 62.535 25.6436 63.0942 26.0097 65.8947C26.0312 66.0555 25.9331 66.2103 25.7753 66.2578C24.7397 63.5048 26.8033 59.4419 33.0079 64.5297Z" fill="#F99C2D"/>
<path d="M40.1025 56.8651C41.1106 58.7878 41.708 63.1923 39.9876 66.2562C41.6713 65.2834 42.4556 60.9111 42.1983 56.8713C42.0818 55.0482 40.1025 56.8651 40.1025 56.8651Z" fill="#F99C2D"/>
<path d="M36.438 46.3817C37.97 48.361 38.6425 51.7115 38.5491 54.489C38.5414 54.6974 38.8846 54.6744 38.8922 54.466C38.9581 52.5281 39.4009 50.4216 42.2856 48.0363C40.8072 46.7846 36.6831 46.8183 36.4395 46.3817H36.438Z" fill="#E58230"/>
<path d="M40.5115 49.6663C38.1201 51.3178 37.2714 57.1639 41.5763 57.1623C45.8812 57.1608 45.5135 54.0386 44.0106 53.9191C44.6311 53.1378 43.4254 52.4223 42.6441 52.5924C41.2009 49.9099 40.5115 49.6663 40.5115 49.6663Z" fill="#CC6017"/>
<path d="M43.839 54.0263C43.2094 54.4614 42.6625 55.2611 42.1952 55.8892C42.0726 56.0608 41.7908 55.9444 41.8229 55.7391C41.9225 54.9532 42.1155 54.1795 42.5797 53.507C42.7574 53.2726 42.9949 53.0275 43.3733 52.8942C44.0091 52.6751 44.4702 53.5039 43.9601 53.9283L43.8406 54.0263H43.839Z" fill="#994110"/>
<path d="M43.9034 52.9248C43.7211 53.0122 43.5158 53.0459 43.3136 53.026C41.7234 52.8651 40.8241 51.9888 40.3078 50.9608C40.0933 50.5319 40.1791 50.0125 40.5115 49.6678C41.5472 48.5908 42.2825 48.0363 42.2825 48.0363C42.2825 48.0363 39.8267 47.8126 37.6529 47.16C34.5996 46.2423 35.5402 42.8183 36.1163 41.4594C36.15 41.3798 36.1959 41.2863 36.2495 41.1837C36.4365 40.8282 36.7306 40.3533 37.0201 39.9075C37.469 39.212 37.9056 38.5854 37.9056 38.5854C37.9056 38.5854 38.8202 38.5226 40.2496 38.8811C40.9742 39.0634 41.8321 39.3545 42.7712 39.8187C44.0887 40.4682 45.5656 41.4579 47.0562 42.9623C50.782 46.7218 48.101 50.9164 43.9034 52.9248Z" fill="#FFAC3D"/>
<path d="M42.2825 48.0363C42.2825 48.0363 39.8267 47.8126 37.6529 47.16C37.2714 47.0451 36.9527 46.8919 36.6877 46.708C36.513 46.587 36.3629 46.4537 36.2327 46.3097C36.0121 46.0646 35.8512 45.7904 35.7379 45.4962C35.7471 45.4932 35.7562 45.4916 35.7654 45.4886C38.7574 46.3832 39.5387 46.4813 42.1768 47.3024C42.7375 47.4771 42.2825 48.0363 42.2825 48.0363Z" fill="#F99C2D"/>
<path d="M35.0347 40.3242C34.8616 40.747 34.6839 41.2695 34.5107 41.9114L35.0347 40.3242Z" fill="#F99C2D"/>
<path d="M44.2404 40.6231C40.5851 39.5385 37.5579 40.902 34.5108 41.8794C34.6839 41.2375 34.8616 40.7151 35.0347 40.2922C36.7858 39.9797 38.6088 39.5201 40.2496 38.8491C40.9742 39.0314 42.3714 39.4267 44.2404 40.6231Z" fill="#F99C2D"/>
<path d="M22.8217 39.8648C22.6455 40.1773 22.4616 40.5159 22.2747 40.8744C20.6983 39.9889 19.102 39.0283 16.9327 38.5963C17.9821 38.7664 18.9074 38.7648 19.7332 38.6928H19.7347C20.6922 39.1432 21.7523 39.5385 22.8217 39.8648Z" fill="#F99C2D"/>
<path d="M35.0362 40.2907C34.8631 40.7135 34.6854 41.2359 34.5123 41.8778C30.5322 43.1616 25.8565 43.2383 22.2763 40.8744C22.4632 40.5159 22.647 40.1773 22.8232 39.8648C27.1189 40.8284 30.7926 41.0383 35.0362 40.2907Z" fill="#FFAB3D"/>
<path d="M20.8745 19.4449C19.3578 16.1373 13.8136 12.4437 11.4114 13.8271C10.2103 14.5196 9.27274 22.7387 13.4459 25.4151C15.0054 26.4155 16.7443 26.5518 16.7443 26.5518L20.8745 19.4449Z" fill="#CC6017"/>
<path d="M16.9786 26.0171C13.4306 25.4135 10.3742 22.3066 11.3716 15.4617C11.4114 15.1906 11.6366 14.9853 11.9093 14.9745C14.0755 14.8857 16.0579 16.8788 17.3586 19.2151C18.526 21.3124 18.4601 22.754 18.0817 24.0516C17.7094 24.6046 16.9771 26.0171 16.9771 26.0171H16.9786Z" fill="#FF8845"/>
<path d="M17.3601 19.2151C13.3647 17.3936 15.3057 24.8498 17.4444 25.2021C17.8381 24.3764 18.3743 23.5215 18.3743 23.5215C18.3743 23.5215 18.4677 20.3488 17.3601 19.2151Z" fill="#E86531"/>
<path d="M40.3308 19.4342C41.9578 16.1787 47.6215 12.6735 49.9762 14.135C51.1543 14.8673 51.8161 23.1125 47.5556 25.6494C45.9639 26.5962 44.222 26.6759 44.222 26.6759L40.3308 19.4342Z" fill="#CC6017"/>
<path d="M44.0045 26.1336C47.571 25.6479 50.7284 22.6452 49.9609 15.7712C49.9302 15.5 49.7112 15.2855 49.4385 15.2656C47.2768 15.1048 45.2286 17.0305 43.8513 19.3223C42.615 21.3798 42.6318 22.8229 42.9673 24.1328C43.3212 24.6981 44.0045 26.1336 44.0045 26.1336Z" fill="#FF8845"/>
<path d="M43.8513 19.3224C47.9049 17.6341 45.7157 25.0214 43.5679 25.3032C43.2017 24.4652 42.6946 23.592 42.6946 23.592C42.6946 23.592 42.6946 20.4514 43.8513 19.3224Z" fill="#E86531"/>
<path d="M28.5988 40.902C25.4475 40.902 19.0239 39.1402 16.7259 36.689C14.411 34.2194 14.4279 32.5526 15.2827 29.504C15.6213 28.2952 16.6845 25.8639 17.8519 23.5935C17.8519 23.592 17.8534 23.592 17.8534 23.5905C18.9074 21.5407 20.0457 19.6226 20.8117 18.8581C22.4249 17.245 27.7072 16.6107 30.0956 16.6107C31.7884 16.6107 35.0041 16.9401 37.348 17.6433C37.3495 17.6433 37.3526 17.6433 37.3541 17.6448C38.4189 17.965 39.3044 18.3618 39.7823 18.8413C40.9313 19.9903 41.3557 20.8788 42.6931 23.5905C43.7333 25.7015 45.538 28.6736 45.7418 32.0685C46.2167 39.9828 31.8053 40.902 28.5988 40.902Z" fill="#FFAC3D"/>
<path d="M30.428 31.1202C31.194 29.9712 33.0875 31.4572 33.6268 32.07C34.1661 32.6828 36.3308 34.8705 38.3254 34.0187C40.3201 33.1669 42.7268 29.0719 43.669 30.201C44.6096 31.3301 44.8287 40.0624 28.6769 40.0624C20.5957 40.0624 15.9614 35.4818 15.9614 32.2493C15.9614 30.5641 16.8408 28.6813 17.1058 28.6813C17.1288 28.885 17.9024 34.2026 20.8086 34.2026C22.3942 34.2026 23.9232 32.4362 24.5329 31.5599C26.0419 29.3921 26.693 30.967 26.693 30.967" fill="#FFDD99"/>
<path d="M24.2495 33.9559C24.3307 34.5519 24.7918 35.1309 25.374 35.3102C26.3238 35.5293 27.6597 35.2382 27.9109 34.2026L28.8286 34.2409C28.8746 35.347 30.0695 35.4848 31.0071 35.4741C31.5126 35.4649 32.0014 35.3439 32.3951 35.0329C32.7796 34.7372 33.0385 34.2562 33.0891 33.7614C33.1105 33.5775 33.276 33.4442 33.4598 33.4657C33.9975 33.5377 33.6957 34.4906 33.5778 34.8169C33.1764 35.8265 32.0933 36.4209 31.0423 36.45C30.3667 36.476 29.688 36.4377 29.0477 36.1283C28.3445 35.8249 27.8435 35.0023 27.9079 34.2409L28.8255 34.2792C28.6754 35.6871 27.2491 36.3581 26.0021 36.3213C25.3862 36.3366 24.7045 36.1038 24.2648 35.6518C23.8175 35.1984 23.5402 34.6223 23.5524 33.9559C23.557 33.7644 23.7148 33.6127 23.9048 33.6173C24.0947 33.6204 24.2357 33.7751 24.2464 33.9559H24.2495Z" fill="#CC6017"/>
<path d="M28.3705 34.3925C29.7243 34.3925 30.8217 33.4666 30.8217 32.3244C30.8217 31.1821 29.7243 30.2562 28.3705 30.2562C27.0168 30.2562 25.9193 31.1821 25.9193 32.3244C25.9193 33.4666 27.0168 34.3925 28.3705 34.3925Z" fill="#FF8845"/>
<path d="M30.428 31.1202C31.6214 29.8548 32.3292 32.188 35.4468 33.8196C39.6276 36.0042 41.7801 29.0995 43.5664 30.1045C43.2952 29.2144 43.0838 26.4139 41.5165 24.4361C41.057 23.8555 39.3963 21.6816 36.029 22.7509C34.3637 23.2795 32.9849 25.9988 32.3154 27.6533C31.168 30.4936 30.4265 31.1217 30.4265 31.1217L30.428 31.1202Z" fill="#CC6017"/>
<path d="M41.3925 27.9582C41.5273 29.985 40.7797 32.2478 37.1029 32.2478C35.073 32.2478 33.4261 31.1754 33.5793 28.571C33.6988 26.5442 35.1113 24.2814 37.5625 24.2814C39.5924 24.2814 41.2393 25.6602 41.3925 27.9582Z" fill="#2E2D2C"/>
<path d="M17.1058 28.6797C17.2697 26.8276 19.0177 22.1397 22.1001 22.1397C25.1825 22.1397 25.8519 26.6376 26.2518 28.9432C26.4555 30.1152 26.6333 30.8644 26.6333 30.8644C26.6333 30.8644 26.3621 30.0968 25.4598 30.8889C24.7412 31.5185 22.9565 34.2026 20.8086 34.2026C18.6608 34.2026 17.5639 31.4634 17.1058 28.6813V28.6797Z" fill="#CC6017"/>
<path d="M25.2943 28.0409C25.4077 30.0279 24.7796 32.2478 21.6895 32.2478C19.9829 32.2478 18.5995 31.1953 18.7282 28.6414C18.8278 26.6529 20.0151 24.4346 22.0756 24.4346C23.7822 24.4346 25.1656 25.7873 25.2943 28.0409Z" fill="#2E2D2C"/>
<path d="M38.6349 28.4178C39.2271 28.4178 39.7073 27.9376 39.7073 27.3454C39.7073 26.7531 39.2271 26.273 38.6349 26.273C38.0426 26.273 37.5625 26.7531 37.5625 27.3454C37.5625 27.9376 38.0426 28.4178 38.6349 28.4178Z" fill="#FEF6DC"/>
<path d="M23.0086 28.7242C23.6008 28.7242 24.081 28.244 24.081 27.6518C24.081 27.0595 23.6008 26.5794 23.0086 26.5794C22.4163 26.5794 21.9362 27.0595 21.9362 27.6518C21.9362 28.244 22.4163 28.7242 23.0086 28.7242Z" fill="#FEF6DC"/>
<path d="M28.3583 32.1941C28.8397 32.1941 29.23 31.9657 29.23 31.684C29.23 31.4022 28.8397 31.1738 28.3583 31.1738C27.8768 31.1738 27.4866 31.4022 27.4866 31.684C27.4866 31.9657 27.8768 32.1941 28.3583 32.1941Z" fill="#FFB58A"/>
<path d="M35.8712 17.2695C31.9339 19.9045 30.1201 24.8268 29.233 27.8142C29.1028 28.2508 28.4655 28.1926 28.4165 27.7391C28.0886 24.7134 27.2598 19.7682 24.8761 17.1561C26.955 16.6705 29.2024 16.6107 30.4448 16.6107C33.0354 16.6107 35.8712 17.2695 35.8712 17.2695Z" fill="#CC6017"/>
<path d="M27.197 21.5606C26.261 21.3308 25.0415 21.1086 24.0794 21.1086C21.3464 21.1086 18.8278 21.7812 17.7094 23.8739C17.7569 23.7789 17.8044 23.687 17.8519 23.5935C17.8519 23.592 17.8534 23.592 17.8534 23.5905C18.457 22.417 19.0882 21.2864 19.6612 20.3901C21.8412 19.5736 24.3 19.2381 26.5796 19.9091C26.8125 20.4392 27.0163 20.9953 27.197 21.5606Z" fill="#F99C2D"/>
<path d="M31.9355 21.5024C31.7716 21.7689 31.6138 22.0386 31.4636 22.3082C29.9914 22.204 28.5544 21.89 27.1986 21.5606C27.0178 20.9953 26.814 20.4392 26.5812 19.9091C26.8876 19.9979 27.1894 20.1067 27.4866 20.2339C29.1151 20.9309 30.6011 21.3231 31.9355 21.5024Z" fill="#B54C03"/>
<path d="M37.996 20.8191C37.7478 20.9815 37.42 21.1638 36.9972 21.366C35.1618 22.2454 33.2852 22.4369 31.4621 22.3082C31.6122 22.0386 31.77 21.7689 31.9339 21.5024C34.5475 21.8547 36.5835 21.3951 37.996 20.8191Z" fill="#F99C2D"/>
<path d="M34.3145 11.0404C34.3685 10.5254 33.8542 10.0495 33.1658 9.9774C32.4775 9.90529 31.8758 10.2643 31.8218 10.7793C31.7679 11.2943 32.2822 11.7702 32.9705 11.8423C33.6588 11.9145 34.2606 11.5554 34.3145 11.0404Z" fill="#2271B1"/>
<path d="M19.7607 20.2124C19.6566 20.3993 19.1617 21.2312 17.7094 23.8739C16.2908 23.9612 15.0943 23.7284 14.8676 23.2979C15.5064 22.4583 15.4942 20.3794 19.7607 20.2124Z" fill="#234D79"/>
<path d="M33.2315 11.0144C26.1813 9.91132 22.7558 13.7857 20.7994 17.7842C21.0292 17.7337 14.2977 20.9141 14.8691 23.2963C24.081 17.0734 26.4096 20.9417 32.9328 21.7276C36.775 22.1902 40.3201 19.448 40.3308 19.4342C40.5407 19.1354 41.3848 17.8363 41.9593 17.245C40.7352 14.4261 38.0941 11.618 33.2315 11.0144Z" fill="#2271B1"/>
<path d="M40.3307 19.4342C40.3307 19.4342 29.7416 14.6253 20.876 17.7842C23.1173 13.2327 26.3345 10.1166 33.3081 11.0159C38.8432 11.7283 40.3323 19.4373 40.3307 19.4357V19.4342Z" fill="#3B8DC4"/>
<path d="M14.8905 23.1937C18.6669 19.9091 22.6332 19.0083 27.5065 19.9719C29.6589 20.3901 31.7409 21.2343 33.9577 21.2373C36.1301 21.2971 38.3086 20.7164 40.0949 19.4464C40.1393 19.4158 40.199 19.4265 40.2297 19.4709C40.2588 19.5123 40.2511 19.5659 40.2144 19.5996C39.3779 20.3503 38.3775 20.9248 37.3066 21.3109C34.6027 22.2975 31.6505 21.893 28.9588 21.0841C25.2897 20.1098 21.2759 19.8708 17.8121 21.6264C16.8224 22.0937 15.8802 22.6743 14.9564 23.2871C14.9304 23.304 14.8951 23.2978 14.8783 23.2718C14.863 23.2473 14.8676 23.2151 14.889 23.1967L14.8905 23.1937Z" fill="#225E8C"/>
<path fill-rule="evenodd" clip-rule="evenodd" d="M30.7558 16.3089L28.3353 16.194C28.0641 16.1818 27.8313 16.0638 27.6796 15.8616C27.5249 15.6563 27.4758 15.3928 27.5417 15.1186L28.0611 12.9278C28.1821 12.41 28.6922 12.004 29.2208 12.004C29.2269 12.004 29.233 12.004 29.2407 12.004C29.2667 11.9657 29.3004 11.9289 29.3387 11.8998C29.4199 11.8432 29.5057 11.8156 29.5885 11.8156C29.59 11.8156 29.6023 11.8156 29.6053 11.8156C29.7064 11.8202 29.8014 11.8677 29.8581 11.9443C29.8795 11.9734 29.8949 12.004 29.9056 12.0362L31.0898 12.0929C31.1159 12.0546 31.148 12.0193 31.1848 11.9902C31.2583 11.9351 31.3503 11.9029 31.436 11.9029C31.4391 11.9029 31.4514 11.9029 31.4529 11.9029C31.5555 11.9075 31.6505 11.9565 31.7072 12.0347C31.7287 12.0638 31.744 12.0944 31.7547 12.125C31.9983 12.1511 32.2066 12.266 32.346 12.4514C32.5008 12.6566 32.5498 12.9201 32.4855 13.1944L31.9661 15.3867C31.8436 15.9045 31.3334 16.3104 30.8064 16.3104C30.8064 16.3104 30.7742 16.3104 30.7574 16.3104L30.7558 16.3089ZM28.4104 15.0174C28.3858 15.1201 28.4027 15.2166 28.4563 15.2886C28.5084 15.3575 28.5927 15.3989 28.6922 15.4035L30.6838 15.4985C30.7911 15.4985 30.8998 15.4587 30.9918 15.3882C31.0944 15.3101 31.1649 15.2059 31.1909 15.094C31.194 15.0803 31.1986 15.068 31.2047 15.0573L31.4284 14.1074C31.4314 14.0937 31.433 14.0737 31.4223 14.0584C31.4161 14.0508 31.4023 14.0462 31.3809 14.0446L29.5992 13.9604C29.4965 13.9542 29.4046 13.9067 29.3449 13.8286C29.2851 13.749 29.2652 13.6463 29.2882 13.5437C29.3326 13.3583 29.5088 13.2189 29.6972 13.2189C29.6988 13.2189 31.6122 13.3093 31.6122 13.3093L31.6521 13.1408C31.6658 13.081 31.6582 13.0259 31.6275 12.986C31.6153 12.9692 31.6 12.9554 31.5816 12.9462C31.5096 13.0442 31.3931 13.1086 31.2721 13.1086C31.2691 13.1086 31.2047 13.1071 31.2047 13.1071C31.1051 13.1025 31.0193 13.058 30.9657 12.9845C30.9458 12.9569 30.929 12.9263 30.9198 12.8926L29.7463 12.8359C29.6773 12.9447 29.5517 13.0213 29.4184 13.0213C29.4153 13.0213 29.3495 13.0182 29.3495 13.0182C29.2545 13.0136 29.1687 12.9692 29.1135 12.8972C29.0998 12.8788 29.0875 12.8589 29.0783 12.8374C29.0492 12.8481 29.0232 12.8635 28.9971 12.8834C28.9358 12.9309 28.8883 12.9983 28.873 13.0672L28.6019 14.2131C28.5988 14.2239 28.5957 14.2469 28.6065 14.2606C28.6095 14.2637 28.6172 14.276 28.6494 14.2775L30.4311 14.3618C30.5322 14.3663 30.6241 14.4138 30.6838 14.492C30.7436 14.5716 30.765 14.6758 30.7405 14.7769C30.6961 14.9654 30.5245 15.1017 30.3345 15.1017C30.3315 15.1017 30.3162 15.1017 30.3131 15.1017L28.4104 15.0113V15.0205V15.0174Z" fill="#FF8845"/>
<path d="M29.5869 11.9703C29.5869 11.9703 29.5931 11.9703 29.5961 11.9703C29.6528 11.9734 29.7049 11.9994 29.734 12.0377C29.7631 12.0776 29.7769 12.1266 29.7616 12.1833L31.1817 12.2507C31.1955 12.1986 31.2308 12.148 31.2767 12.1113C31.3211 12.0776 31.3794 12.0561 31.4345 12.0561C31.4376 12.0561 31.4406 12.0561 31.4437 12.0561C31.5004 12.0592 31.5525 12.0852 31.5816 12.1251C31.6107 12.1649 31.623 12.2124 31.6092 12.2691L31.6812 12.2737C32.153 12.2966 32.4441 12.6919 32.3353 13.1592L31.816 15.3514C31.7087 15.8049 31.2614 16.1573 30.8049 16.1573C30.7911 16.1573 30.7773 16.1573 30.7635 16.1573L28.343 16.0424C27.8711 16.0194 27.58 15.6241 27.6903 15.1553L28.2097 12.9646C28.3169 12.5111 28.7627 12.1588 29.2193 12.1588C29.233 12.1588 29.2468 12.1588 29.2606 12.1588L29.3326 12.1618C29.3464 12.1097 29.3816 12.0592 29.4291 12.0239C29.4782 11.9902 29.5318 11.9688 29.5854 11.9688M30.3361 14.9455C30.3361 14.9455 30.3269 14.9455 30.3238 14.9455L28.323 14.8505C28.3093 14.8505 28.2863 14.8826 28.2863 14.8826L28.2618 14.9822C28.1898 15.2856 28.3813 15.5414 28.6846 15.5567L30.6563 15.6502C30.6655 15.6502 30.6746 15.6502 30.6823 15.6502C30.8217 15.6502 30.9642 15.6011 31.0852 15.5077C31.2154 15.4081 31.3043 15.2748 31.3395 15.1278H31.3441L31.577 14.1412C31.5908 14.0799 31.5816 14.0186 31.5464 13.968C31.5096 13.919 31.4529 13.893 31.3855 13.8899L29.6038 13.8057C29.4843 13.7995 29.4077 13.6953 29.4353 13.5759C29.4628 13.4579 29.5793 13.369 29.6957 13.369C29.6988 13.369 29.7018 13.369 29.7064 13.369L31.7041 13.464C31.7179 13.464 31.7394 13.4318 31.7394 13.4318L31.8022 13.1729C31.8527 12.96 31.721 12.7777 31.5035 12.767H31.4989V12.7716C31.4743 12.8711 31.3748 12.9508 31.2737 12.9508C31.2706 12.9508 31.2675 12.9508 31.2645 12.9508H31.2108C31.1067 12.9447 31.0408 12.8558 31.0653 12.7516C31.0653 12.7424 31.0576 12.7425 31.0576 12.7425L29.6574 12.675C29.6482 12.675 29.6451 12.6842 29.6451 12.6842C29.6206 12.7838 29.5211 12.865 29.4199 12.865C29.4169 12.865 29.4138 12.865 29.4108 12.865L29.3587 12.8619C29.253 12.8573 29.1886 12.7685 29.2116 12.6628V12.6582H29.2085C29.2085 12.6582 29.1947 12.6582 29.1886 12.6582C29.089 12.6582 28.9879 12.695 28.9052 12.7578C28.8163 12.8252 28.7505 12.9232 28.726 13.0259L28.4548 14.1733C28.441 14.2361 28.4502 14.2974 28.4854 14.3464C28.5222 14.397 28.5789 14.423 28.6463 14.4261L30.428 14.5104C30.5475 14.515 30.6241 14.6207 30.5965 14.7386C30.5689 14.8581 30.4571 14.9455 30.3391 14.9455M29.5869 11.6639C29.4736 11.6639 29.3587 11.7022 29.256 11.7727C29.253 11.7742 29.2499 11.7773 29.2468 11.7788C29.2177 11.8018 29.1902 11.8263 29.1656 11.8524C28.5804 11.8784 28.0488 12.3166 27.9125 12.8926L27.3931 15.0818C27.3181 15.3959 27.3793 15.7145 27.5586 15.952C27.7378 16.1894 28.012 16.3288 28.3292 16.3442L30.7497 16.4591C30.7681 16.4591 30.788 16.4591 30.8064 16.4591C31.4115 16.4591 31.9753 16.0117 32.1163 15.4173L32.6356 13.225C32.7091 12.9094 32.6494 12.5938 32.4701 12.3549C32.3215 12.1588 32.1086 12.0285 31.8604 11.9811C31.8512 11.9673 31.842 11.9519 31.8328 11.9382C31.7486 11.8233 31.6107 11.7513 31.4621 11.7451C31.4529 11.7451 31.4452 11.7451 31.4376 11.7451C31.3166 11.7451 31.1955 11.7865 31.0959 11.8616C31.0684 11.883 31.0439 11.906 31.0209 11.9305L30.0052 11.883C29.999 11.8723 29.9914 11.8616 29.9837 11.8508C29.8964 11.7359 29.7585 11.6655 29.613 11.6593C29.6053 11.6593 29.5977 11.6593 29.5885 11.6593L29.5869 11.6639ZM29.7325 13.0642C29.7631 13.0427 29.7907 13.0167 29.8152 12.9891L30.8187 13.0381C30.8263 13.0504 30.834 13.0611 30.8416 13.0734C30.8539 13.0902 30.8677 13.1055 30.8815 13.1193L29.7309 13.0642H29.7325ZM28.7796 14.1258L29.0232 13.0963C29.0278 13.0795 29.0354 13.0626 29.0477 13.0458C29.1273 13.1178 29.23 13.1607 29.3418 13.1668H29.3725C29.2591 13.248 29.1733 13.3675 29.1396 13.5038C29.1059 13.6509 29.135 13.8011 29.2223 13.916C29.3081 14.0309 29.4414 14.1013 29.5885 14.109L31.2507 14.1886L31.0576 15.0052C31.05 15.0221 31.0439 15.0389 31.0393 15.0573C31.0209 15.1339 30.9703 15.2074 30.8968 15.2641C30.8309 15.3162 30.7543 15.3438 30.6808 15.3438H30.6685L28.6968 15.2503C28.6601 15.2488 28.608 15.2381 28.5774 15.1967C28.5712 15.189 28.5666 15.1798 28.562 15.1691L30.307 15.2519C30.3146 15.2519 30.3254 15.2519 30.3345 15.2519C30.595 15.2519 30.8294 15.0649 30.8891 14.8091C30.9244 14.6636 30.8937 14.5119 30.8049 14.3955C30.7175 14.2806 30.5843 14.2101 30.4357 14.204L28.7765 14.1243L28.7796 14.1258Z" fill="#2271B1"/>
<path fill-rule="evenodd" clip-rule="evenodd" d="M30.716 16.1021L28.2955 15.9872C28.0473 15.9749 27.8343 15.8677 27.6965 15.6854C27.5555 15.4985 27.5111 15.258 27.5708 15.0052L28.0902 12.8144C28.2035 12.3288 28.68 11.9504 29.1748 11.9504C29.1902 11.9504 29.2361 11.9519 29.2361 11.9519C29.2591 11.906 29.2943 11.8646 29.3388 11.8309C29.4062 11.7849 29.4751 11.7604 29.5425 11.7604C29.6344 11.765 29.7064 11.8003 29.7509 11.8585C29.7784 11.8953 29.7938 11.9351 29.7983 11.978L31.0852 12.0393C31.1082 11.9933 31.1434 11.9519 31.1848 11.9182C31.2445 11.8738 31.3196 11.8478 31.3901 11.8478C31.4835 11.8524 31.5555 11.8891 31.6 11.9489C31.626 11.9841 31.6413 12.0239 31.6459 12.0668C31.8926 12.0791 32.1025 12.1863 32.2388 12.3671C32.3798 12.5525 32.4242 12.7945 32.3644 13.0458L31.8451 15.2381C31.7302 15.7237 31.2522 16.1021 30.7589 16.1021C30.7589 16.1021 30.7283 16.1021 30.7129 16.1021H30.716ZM28.2909 14.8673C28.2618 14.9929 28.2832 15.1109 28.3506 15.2013C28.4165 15.2886 28.5207 15.3407 28.6432 15.3468L30.6149 15.4403H30.6379C30.762 15.4403 30.8876 15.3959 30.9933 15.3147C31.1097 15.2258 31.1894 15.1063 31.22 14.9776C31.2216 14.9684 31.2262 14.9592 31.2308 14.9516L31.4575 13.9895C31.4667 13.9481 31.4606 13.9083 31.4391 13.8776C31.4115 13.8424 31.3686 13.8332 31.338 13.8317L29.5563 13.7474C29.4766 13.7428 29.4062 13.7061 29.3602 13.6463C29.3142 13.585 29.2989 13.5054 29.3173 13.4257C29.3541 13.274 29.4981 13.1591 29.6513 13.1591L31.626 13.2526L31.6812 13.0213C31.7011 12.9385 31.6873 12.8604 31.6429 12.8022C31.6092 12.7578 31.5601 12.7287 31.5019 12.7149C31.4498 12.819 31.3395 12.8926 31.2246 12.8926H31.1603C31.0852 12.8865 31.0209 12.8543 30.9795 12.7991C30.9535 12.7654 30.9382 12.7241 30.9351 12.6796L29.6528 12.6184C29.6038 12.7256 29.4889 12.8053 29.3694 12.8053L29.3035 12.8022C29.23 12.7991 29.1672 12.767 29.1258 12.7118C29.1028 12.6812 29.0875 12.6444 29.0814 12.6046C29.0186 12.6153 28.9542 12.6429 28.9021 12.6842C28.8255 12.7424 28.7704 12.8252 28.7489 12.911L28.4778 14.0584C28.4686 14.0998 28.4747 14.1396 28.4962 14.1687C28.5176 14.1994 28.5528 14.2147 28.5973 14.2162L30.379 14.3005C30.4571 14.3035 30.5291 14.3403 30.5735 14.4001C30.6195 14.4613 30.6363 14.5425 30.618 14.6222C30.5827 14.7739 30.4387 14.8888 30.2855 14.8888L28.3016 14.7953L28.2847 14.8658L28.2909 14.8673Z" fill="#FF8845"/>
<path d="M29.5425 11.8386C29.5425 11.8386 29.5486 11.8386 29.5517 11.8386C29.6084 11.8416 29.6605 11.8677 29.6896 11.906C29.7187 11.9458 29.7325 11.9948 29.7172 12.0515L31.1373 12.1189C31.1511 12.0668 31.1863 12.0163 31.2323 11.9795C31.2767 11.9458 31.3349 11.9244 31.3901 11.9244C31.3932 11.9244 31.3962 11.9244 31.3993 11.9244C31.456 11.9274 31.5081 11.9535 31.5372 11.9933C31.5663 12.0331 31.5785 12.0806 31.5647 12.1373L31.6367 12.1419C32.1086 12.1649 32.3997 12.5601 32.2909 13.0274L31.7716 15.2197C31.6643 15.6731 31.217 16.0255 30.7604 16.0255C30.7466 16.0255 30.7329 16.0255 30.7191 16.0255L28.2985 15.9106C27.8267 15.8876 27.5356 15.4924 27.6459 15.0236L28.1652 12.8328C28.2725 12.3794 28.7183 12.027 29.1748 12.027C29.1886 12.027 29.2024 12.027 29.2162 12.027L29.2882 12.0301C29.302 11.978 29.3372 11.9274 29.3847 11.8922C29.4337 11.8585 29.4874 11.837 29.541 11.837M30.2916 14.8152C30.2916 14.8152 30.2825 14.8152 30.2794 14.8152L28.2786 14.7202C28.2633 14.7202 28.2418 14.7524 28.2418 14.7524L28.2173 14.852C28.1453 15.1553 28.3368 15.4112 28.6402 15.4265L30.6118 15.5199C30.621 15.5199 30.6302 15.5199 30.6379 15.5199C30.7773 15.5199 30.9198 15.4709 31.0408 15.3775C31.171 15.2779 31.2599 15.1446 31.2951 14.9975H31.2997L31.5326 14.0109C31.5479 13.9497 31.5372 13.8884 31.5019 13.8378C31.4652 13.7888 31.4085 13.7627 31.3411 13.7597L29.5594 13.6754C29.4399 13.6693 29.3633 13.5651 29.3908 13.4456C29.4184 13.3277 29.5348 13.2388 29.6513 13.2388C29.6543 13.2388 29.6574 13.2388 29.662 13.2388L31.6597 13.3338C31.6735 13.3338 31.695 13.3016 31.695 13.3016L31.7578 13.0427C31.8083 12.8298 31.6766 12.6475 31.459 12.6367H31.4544V12.6413C31.4299 12.7409 31.3303 12.8206 31.2292 12.8206C31.2262 12.8206 31.2231 12.8206 31.22 12.8206H31.1664C31.0622 12.8144 30.9964 12.7256 31.0209 12.6214C31.0209 12.6122 31.0132 12.6122 31.0132 12.6122L29.613 12.5448C29.6038 12.5448 29.6007 12.554 29.6007 12.554C29.5762 12.6536 29.4766 12.7348 29.3755 12.7348C29.3725 12.7348 29.3694 12.7348 29.3663 12.7348L29.3142 12.7317C29.2085 12.7271 29.1442 12.6383 29.1672 12.5326V12.528H29.1641C29.1641 12.528 29.1503 12.528 29.1442 12.528C29.0446 12.528 28.9435 12.5647 28.8608 12.6275C28.7719 12.695 28.706 12.793 28.6815 12.8956L28.4104 14.0431C28.395 14.1059 28.4058 14.1672 28.441 14.2162C28.4778 14.2668 28.5345 14.2928 28.6019 14.2959L30.3836 14.3801C30.5031 14.3847 30.5797 14.4904 30.5521 14.6084C30.5245 14.7279 30.4127 14.8152 30.2947 14.8152M29.5425 11.6854C29.4598 11.6854 29.3755 11.7129 29.2989 11.7666C29.2576 11.7972 29.2223 11.834 29.1963 11.8738C29.1901 11.8738 29.1825 11.8738 29.1764 11.8738C28.6478 11.8738 28.1392 12.2798 28.0166 12.7976L27.4973 14.9883C27.433 15.2626 27.482 15.5261 27.6352 15.7314C27.7868 15.932 28.0197 16.05 28.2909 16.0638L30.7114 16.1787C30.7283 16.1787 30.7436 16.1787 30.7604 16.1787C31.2874 16.1787 31.7976 15.7727 31.9202 15.2549L32.4395 13.0626C32.5038 12.7884 32.4548 12.5249 32.3001 12.3196C32.1607 12.1342 31.9523 12.0209 31.7087 11.9933C31.698 11.9611 31.6827 11.9305 31.6612 11.9029C31.6046 11.8263 31.5096 11.7758 31.4069 11.7712H31.3901C31.3028 11.7712 31.2124 11.8018 31.1404 11.8554C31.1021 11.8845 31.0699 11.9198 31.0439 11.9596L29.8596 11.9029C29.8489 11.8707 29.8336 11.8416 29.8121 11.8141C29.7539 11.7359 29.6589 11.6884 29.5578 11.6838C29.5517 11.6838 29.5471 11.6838 29.541 11.6838L29.5425 11.6854ZM29.374 12.8865C29.5057 12.8865 29.6314 12.8114 29.7003 12.7011L30.8753 12.7578C30.8861 12.7899 30.9014 12.8221 30.9213 12.8497C30.9764 12.9232 31.0622 12.9676 31.1572 12.9722H31.2139C31.2139 12.9722 31.2216 12.9738 31.2277 12.9738C31.3503 12.9738 31.4667 12.9094 31.5387 12.8129C31.5571 12.8236 31.5724 12.8359 31.5846 12.8527C31.6153 12.8926 31.623 12.9477 31.6092 13.0075L31.5693 13.176L29.6712 13.0856H29.6543C29.4659 13.0856 29.2897 13.225 29.2453 13.4089C29.2208 13.5115 29.2422 13.6141 29.302 13.6938C29.3602 13.7719 29.4521 13.821 29.5548 13.8256L31.338 13.9098C31.361 13.9098 31.3748 13.9159 31.384 13.9267C31.3932 13.9389 31.3901 13.9588 31.387 13.9711L31.1618 14.924C31.1557 14.9347 31.1511 14.947 31.148 14.9592C31.122 15.0711 31.0515 15.1752 30.9504 15.2518C30.8585 15.3238 30.7482 15.3621 30.6409 15.3621C30.6348 15.3621 30.6272 15.3621 30.621 15.3621L28.6494 15.2687C28.5498 15.2641 28.467 15.2227 28.4134 15.1538C28.3598 15.0818 28.343 14.9853 28.3675 14.8826V14.8734L30.2733 14.9638C30.2794 14.9638 30.2871 14.9638 30.2932 14.9638C30.4847 14.9638 30.6547 14.8275 30.6992 14.639C30.7237 14.5379 30.7022 14.4338 30.6425 14.3541C30.5827 14.276 30.4908 14.2285 30.3897 14.2239L28.6095 14.1396C28.5774 14.1396 28.5682 14.1258 28.5651 14.1228C28.5544 14.109 28.5574 14.0875 28.5605 14.0753L28.8317 12.9278C28.8485 12.8604 28.8945 12.793 28.9558 12.7455C28.9803 12.7256 29.0094 12.7103 29.0369 12.6995C29.0461 12.721 29.0584 12.7409 29.0722 12.7593C29.1273 12.8313 29.2131 12.8757 29.3081 12.8803L29.3602 12.8834C29.3602 12.8834 29.3725 12.8834 29.3771 12.8834L29.374 12.8865Z" fill="white"/>
<path fill-rule="evenodd" clip-rule="evenodd" d="M31.7578 13.0427L31.695 13.3016C31.695 13.3016 31.6735 13.3353 31.6597 13.3338L29.662 13.2388C29.5425 13.2342 29.4215 13.3231 29.3924 13.4456C29.3648 13.5651 29.4414 13.6678 29.5609 13.6739L31.3426 13.7581C31.4085 13.7612 31.4652 13.7873 31.5035 13.8363C31.5387 13.8868 31.5479 13.9481 31.5341 14.0094L31.3012 14.996H31.2966C31.2629 15.1431 31.1725 15.2763 31.0423 15.3759C30.9136 15.4755 30.762 15.5245 30.6134 15.5169L28.6417 15.4234C28.3368 15.4081 28.1469 15.1523 28.2189 14.8489L28.2434 14.7493C28.2434 14.7493 28.2664 14.7172 28.2802 14.7172L30.2809 14.8122C30.4035 14.8183 30.5215 14.7294 30.5506 14.6053C30.5781 14.4874 30.5015 14.3832 30.382 14.3771L28.6003 14.2928C28.5345 14.2897 28.4778 14.2637 28.4395 14.2131C28.4042 14.1641 28.395 14.1013 28.4088 14.04L28.68 12.8926C28.7045 12.7899 28.7719 12.6919 28.8592 12.6245C28.9466 12.5571 29.0569 12.5203 29.1626 12.5249H29.1672V12.5295C29.1427 12.6337 29.207 12.7225 29.3127 12.7286L29.3648 12.7317C29.469 12.7363 29.5747 12.6551 29.6007 12.5525C29.6007 12.5525 29.6038 12.5433 29.613 12.5433L31.0132 12.6107C31.0132 12.6107 31.0224 12.6107 31.0209 12.6199C30.9964 12.724 31.0622 12.8129 31.1664 12.819H31.22C31.3242 12.8252 31.4299 12.7455 31.4544 12.6413V12.6367H31.4606C31.6796 12.6475 31.8099 12.8298 31.7593 13.0427H31.7578Z" fill="white"/>
<path d="M47.5189 37.1455C46.6901 38.3006 45.5533 40.0517 43.5847 40.2968C43.2829 40.1191 42.9873 39.9613 42.6992 39.8188C41.8367 39.3929 41.0432 39.1126 40.3599 38.9287C40.4196 38.8598 40.4763 38.7955 40.5299 38.7342C41.9777 38.1045 43.263 37.3018 44.1883 36.2769C45.1213 36.1512 46.2489 36.3259 47.5189 37.1455Z" fill="#2271B1"/>
<path d="M40.5606 39.1739C41.5656 38.0724 43.0164 37.3508 44.8348 38.0264C42.6916 40.1344 40.5606 39.1739 40.5606 39.1739Z" fill="#225E8C"/>
<path d="M42.281 39.1969C42.281 39.3347 42.2596 39.468 42.2167 39.5921C41.4767 39.2612 40.7965 39.0391 40.2036 38.8874L40.2082 38.869C40.7291 38.6561 41.2301 38.4217 41.705 38.1612C42.0466 38.3527 42.281 38.7449 42.281 39.1969Z" fill="#234D79"/>
<path d="M34.8677 40.5634C34.4479 41.6741 34.0052 43.3777 33.7049 45.9667C31.8099 46.9242 28.2572 48.6615 27.0086 49.1778C26.7834 49.2712 26.5276 49.2253 26.3437 49.0659C24.5023 47.4635 22.7619 46.149 21.6665 43.7193C21.5103 43.3731 21.377 43.0697 21.2667 42.8047C21.7569 41.7537 22.2472 40.7963 22.6945 39.9966C24.994 40.7304 27.4376 41.2237 28.9343 41.2237C29.8581 41.2237 32.2051 41.0169 34.8677 40.5634Z" fill="#FFAB3D"/>
<path d="M20.0702 39.013C20.8745 39.3685 21.7722 39.7024 22.6945 39.9966C22.2472 40.7963 21.7569 41.7538 21.2667 42.8047C20.4272 40.8055 20.7749 40.977 20.7749 40.977C20.7749 40.977 20.0748 40.303 20.0702 39.013Z" fill="#FFAB3D"/>
<path d="M44.1286 40.6293C41.1611 39.7606 42.5752 40.6277 34.7942 45.4014C34.6057 45.5163 34.212 45.7094 33.7049 45.9667C34.0052 43.3777 34.4479 41.6741 34.8677 40.5634C36.8976 40.2187 39.1098 39.7315 41.0156 39.0835C41.7862 39.3164 43.5847 40.2968 44.1286 40.6293Z" fill="#F99C2D"/>
<path d="M26.5291 48.8392C26.3177 48.902 26.0909 48.8515 25.9239 48.7059C24.0764 47.1004 22.359 45.8733 21.259 43.4313C19.9216 40.4684 20.3674 40.689 20.3674 40.689C20.3674 40.689 19.6673 40.0165 19.6627 38.7265C22.477 39.9705 26.4295 40.9357 28.5268 40.9357C30.4632 40.9357 36.4824 40.6002 40.844 38.5933C42.6303 41.2819 30.2916 47.7086 26.5291 48.8392Z" fill="#2271B1"/>
<path d="M39.6843 39.7683C37.2637 41.3325 32.0688 42.1567 28.2863 42.1567C24.5038 42.1567 21.7431 40.4837 19.9339 38.8522C22.8707 40.0395 26.3284 40.9357 28.5268 40.9357C30.7252 40.9357 34.3101 40.9357 40.844 38.5933C40.9068 38.9395 40.3262 39.3531 39.6843 39.7683Z" fill="#225E8C"/>
<path d="M19.7853 38.8123C20.3444 40.5649 21.7493 41.7706 23.1587 42.8583C23.2276 42.9073 23.2445 43.0038 23.1909 43.0713C23.151 43.1218 23.0852 43.1402 23.0285 43.1203C22.5643 42.9671 22.1491 42.7342 21.7554 42.4569C20.9695 41.9008 20.3 41.1425 19.9323 40.2417C19.747 39.7897 19.6658 39.298 19.6841 38.823C19.6841 38.7664 19.7699 38.7556 19.7853 38.8108V38.8123Z" fill="#225E8C"/>
<path d="M40.7628 38.8552C40.484 39.586 39.8543 40.0777 39.3028 40.5925C38.1753 41.5576 36.942 42.3865 35.6214 43.0636C34.9581 43.3945 34.2718 43.6994 33.5272 43.8449C33.3863 43.8725 33.3235 43.6641 33.4629 43.6136C34.7865 43.0513 36.0106 42.2455 37.2132 41.4581C37.8168 41.0567 38.4097 40.6385 38.9872 40.2049C39.5219 39.7713 40.1531 39.3592 40.5254 38.7786C40.582 38.6331 40.8057 38.702 40.7613 38.8567L40.7628 38.8552Z" fill="#225E8C"/>
</g>
<rect x="1.5" y="1.5" width="57" height="57" rx="28.5" stroke="#FFA06A" stroke-width="3"/>
<defs>
<clipPath id="clip0_1_657">
<rect width="60" height="60" rx="30" fill="white"/>
</clipPath>
</defs>
</svg>
