<svg width="22" height="21" viewBox="0 0 22 21" fill="none" xmlns="http://www.w3.org/2000/svg">
<path d="M12.0938 1.20312L14.6328 6.39844L20.2188 7.21875C20.6875 7.29688 21.0781 7.60938 21.2344 8.07812C21.3906 8.50781 21.2734 9.01562 20.9219 9.32812L16.8594 13.3516L17.8359 19.0547C17.9141 19.5234 17.7188 19.9922 17.3281 20.2656C16.9375 20.5781 16.4297 20.5781 16 20.3828L11 17.6875L5.96094 20.3828C5.57031 20.5781 5.0625 20.5781 4.67188 20.2656C4.28125 19.9922 4.08594 19.5234 4.16406 19.0547L5.10156 13.3516L1.03906 9.32812C0.726562 9.01562 0.609375 8.50781 0.726562 8.07812C0.882812 7.60938 1.27344 7.29688 1.74219 7.21875L7.36719 6.39844L9.86719 1.20312C10.0625 0.773438 10.4922 0.5 11 0.5C11.4688 0.5 11.8984 0.773438 12.0938 1.20312Z" fill="white"/>
</svg>
